<svg width="548" height="416" viewBox="0 0 548 416" fill="none" xmlns="http://www.w3.org/2000/svg">
<rect x="0.681641" y="1.11719" width="546" height="414" rx="11.5" fill="#FAFCFF" stroke="#EAEBED"/>
<rect x="167.182" y="110.697" width="213" height="64.3165" rx="6.70866" fill="white"/>
<rect x="167.182" y="110.697" width="213" height="64.3165" rx="6.70866" stroke="#E0E0E0" stroke-width="0.838583"/>
<rect x="179.521" y="122.266" width="20.0512" height="20.0512" rx="4.62719" fill="#1A73E8"/>
<path d="M194.605 128.752C194.391 128.509 194.081 128.37 193.756 128.369C192.816 128.368 191.86 128.368 190.935 128.368C190.552 128.368 190.17 128.369 189.786 128.369H189.145C188.363 128.368 187.554 128.368 186.759 128.371C186.701 128.371 186.697 128.368 186.684 128.31C186.629 128.054 186.568 127.794 186.508 127.544C186.49 127.47 186.473 127.396 186.455 127.321C186.398 127.076 186.248 126.956 185.999 126.956C185.512 126.955 185.074 126.955 184.661 126.956C184.53 126.956 184.412 127.002 184.33 127.086C184.254 127.163 184.213 127.267 184.213 127.381C184.215 127.624 184.405 127.8 184.666 127.801C184.737 127.801 184.807 127.802 184.878 127.802C185.118 127.803 185.366 127.805 185.611 127.798C185.697 127.796 185.71 127.806 185.729 127.889C185.946 128.836 186.171 129.799 186.389 130.729C186.459 131.027 186.529 131.325 186.598 131.623C186.674 131.947 186.749 132.271 186.826 132.599L186.914 132.98C186.909 132.981 186.904 132.982 186.899 132.983C186.602 133.034 186.342 133.199 186.168 133.449C185.996 133.696 185.931 133.994 185.985 134.287C186.088 134.844 186.544 135.219 187.119 135.219C188.001 135.22 188.883 135.22 189.765 135.22H193.009H193.024C193.042 135.22 193.06 135.22 193.079 135.218C193.289 135.205 193.459 135.038 193.476 134.83C193.492 134.62 193.35 134.428 193.144 134.384C193.094 134.374 193.045 134.374 192.998 134.374H192.977C191.483 134.374 189.989 134.374 188.494 134.374H187.187C187.176 134.374 187.165 134.374 187.154 134.374C187.125 134.374 187.098 134.375 187.071 134.373C186.935 134.362 186.822 134.252 186.81 134.117C186.797 133.979 186.879 133.858 187.009 133.821C187.057 133.808 187.112 133.807 187.164 133.807C188.218 133.806 189.272 133.806 190.326 133.806C191.209 133.806 192.093 133.806 192.976 133.806C193.555 133.806 193.98 133.469 194.113 132.906C194.285 132.178 194.473 131.377 194.704 130.385C194.72 130.317 194.737 130.247 194.754 130.18C194.801 129.993 194.849 129.799 194.873 129.603C194.909 129.296 194.811 128.986 194.605 128.752V128.752ZM194.017 129.634C193.762 130.726 193.51 131.797 193.298 132.701C193.255 132.885 193.162 132.96 192.978 132.96C192.282 132.961 191.585 132.961 190.889 132.961C189.864 132.961 188.839 132.961 187.814 132.962C187.805 132.961 187.783 132.962 187.775 132.959C187.773 132.957 187.77 132.951 187.767 132.936C187.545 131.98 187.317 131.009 187.097 130.07L186.896 129.215V129.214H193.681C193.821 129.214 193.924 129.252 193.98 129.323C194.05 129.412 194.039 129.541 194.017 129.634Z" fill="white"/>
<path d="M188.144 135.506C187.559 135.507 187.088 135.984 187.09 136.575C187.092 137.151 187.567 137.625 188.141 137.625C188.723 137.624 189.195 137.151 189.195 136.567C189.196 135.983 188.723 135.505 188.144 135.506ZM188.152 136.918C187.956 136.923 187.793 136.763 187.793 136.566C187.792 136.374 187.947 136.215 188.139 136.213C188.329 136.21 188.491 136.368 188.493 136.559C188.496 136.752 188.343 136.913 188.152 136.918Z" fill="white"/>
<path d="M192.011 135.506C191.429 135.504 190.956 135.974 190.951 136.558C190.946 137.141 191.418 137.623 191.996 137.625C192.578 137.627 193.053 137.156 193.056 136.573C193.059 135.988 192.589 135.508 192.011 135.506ZM192.004 136.918C191.808 136.918 191.649 136.755 191.653 136.558C191.657 136.366 191.816 136.211 192.008 136.213C192.198 136.215 192.356 136.377 192.354 136.568C192.352 136.761 192.195 136.918 192.004 136.918Z" fill="white"/>
<path fill-rule="evenodd" clip-rule="evenodd" d="M192.55 129.921C192.68 130.107 192.635 130.363 192.449 130.493L189.783 132.36C189.689 132.425 189.573 132.449 189.462 132.425C189.35 132.402 189.254 132.333 189.195 132.235L188.395 130.901C188.278 130.707 188.341 130.455 188.536 130.338C188.73 130.221 188.983 130.284 189.099 130.479L189.673 131.434L191.978 129.82C192.164 129.69 192.42 129.735 192.55 129.921Z" fill="white"/>
<path d="M209.68 128.115V135.791H208.367V128.115H209.68ZM212.089 128.115V129.17H205.979V128.115H212.089ZM213.763 131.173V135.791H212.492V130.087H213.705L213.763 131.173ZM215.508 130.05L215.497 131.231C215.42 131.217 215.336 131.206 215.244 131.199C215.156 131.192 215.069 131.189 214.981 131.189C214.763 131.189 214.571 131.22 214.406 131.284C214.241 131.343 214.102 131.431 213.99 131.547C213.881 131.66 213.796 131.797 213.737 131.958C213.677 132.12 213.642 132.301 213.631 132.501L213.341 132.522C213.341 132.164 213.376 131.832 213.447 131.526C213.517 131.22 213.622 130.951 213.763 130.719C213.907 130.488 214.086 130.307 214.301 130.176C214.519 130.046 214.77 129.981 215.055 129.981C215.132 129.981 215.214 129.988 215.302 130.003C215.394 130.017 215.462 130.032 215.508 130.05ZM217.556 130.087V135.791H216.28V130.087H217.556ZM216.196 128.59C216.196 128.396 216.259 128.236 216.386 128.11C216.516 127.98 216.695 127.915 216.924 127.915C217.148 127.915 217.326 127.98 217.456 128.11C217.586 128.236 217.651 128.396 217.651 128.59C217.651 128.779 217.586 128.938 217.456 129.064C217.326 129.191 217.148 129.254 216.924 129.254C216.695 129.254 216.516 129.191 216.386 129.064C216.259 128.938 216.196 128.779 216.196 128.59ZM222.493 130.087H223.648V135.633C223.648 136.146 223.539 136.582 223.321 136.94C223.103 137.299 222.799 137.571 222.409 137.757C222.019 137.947 221.567 138.042 221.054 138.042C220.836 138.042 220.594 138.01 220.327 137.947C220.063 137.884 219.806 137.782 219.557 137.641C219.311 137.504 219.105 137.323 218.94 137.098L219.536 136.35C219.74 136.592 219.965 136.77 220.211 136.882C220.457 136.995 220.715 137.051 220.986 137.051C221.277 137.051 221.525 136.997 221.729 136.888C221.936 136.782 222.096 136.626 222.209 136.418C222.321 136.211 222.377 135.958 222.377 135.659V131.378L222.493 130.087ZM218.619 133.002V132.891C218.619 132.459 218.671 132.066 218.777 131.711C218.882 131.352 219.033 131.045 219.23 130.788C219.427 130.528 219.666 130.329 219.947 130.192C220.228 130.052 220.546 129.981 220.901 129.981C221.27 129.981 221.585 130.048 221.845 130.182C222.109 130.315 222.328 130.507 222.504 130.756C222.68 131.002 222.817 131.298 222.915 131.642C223.017 131.983 223.093 132.363 223.142 132.781V133.134C223.096 133.542 223.019 133.914 222.91 134.252C222.801 134.589 222.657 134.881 222.478 135.127C222.298 135.373 222.077 135.563 221.813 135.696C221.553 135.83 221.246 135.896 220.891 135.896C220.543 135.896 220.228 135.824 219.947 135.68C219.669 135.536 219.43 135.334 219.23 135.074C219.033 134.814 218.882 134.508 218.777 134.157C218.671 133.802 218.619 133.417 218.619 133.002ZM219.889 132.891V133.002C219.889 133.262 219.914 133.505 219.963 133.73C220.016 133.955 220.095 134.153 220.2 134.325C220.309 134.494 220.446 134.628 220.611 134.726C220.78 134.821 220.979 134.868 221.207 134.868C221.506 134.868 221.75 134.805 221.94 134.679C222.133 134.552 222.281 134.382 222.383 134.167C222.488 133.949 222.562 133.707 222.604 133.44V132.486C222.583 132.278 222.539 132.085 222.472 131.906C222.409 131.726 222.323 131.57 222.214 131.436C222.105 131.299 221.968 131.194 221.803 131.12C221.638 131.043 221.443 131.004 221.218 131.004C220.989 131.004 220.791 131.053 220.622 131.152C220.453 131.25 220.314 131.385 220.205 131.558C220.1 131.73 220.021 131.93 219.968 132.159C219.915 132.387 219.889 132.631 219.889 132.891ZM228.511 130.087H229.666V135.633C229.666 136.146 229.557 136.582 229.339 136.94C229.121 137.299 228.817 137.571 228.427 137.757C228.037 137.947 227.585 138.042 227.072 138.042C226.854 138.042 226.612 138.01 226.345 137.947C226.081 137.884 225.824 137.782 225.575 137.641C225.329 137.504 225.123 137.323 224.958 137.098L225.554 136.35C225.758 136.592 225.983 136.77 226.229 136.882C226.475 136.995 226.733 137.051 227.004 137.051C227.295 137.051 227.543 136.997 227.747 136.888C227.954 136.782 228.114 136.626 228.227 136.418C228.339 136.211 228.395 135.958 228.395 135.659V131.378L228.511 130.087ZM224.636 133.002V132.891C224.636 132.459 224.689 132.066 224.795 131.711C224.9 131.352 225.051 131.045 225.248 130.788C225.445 130.528 225.684 130.329 225.965 130.192C226.246 130.052 226.564 129.981 226.919 129.981C227.288 129.981 227.603 130.048 227.863 130.182C228.126 130.315 228.346 130.507 228.522 130.756C228.698 131.002 228.835 131.298 228.933 131.642C229.035 131.983 229.111 132.363 229.16 132.781V133.134C229.114 133.542 229.037 133.914 228.928 134.252C228.819 134.589 228.675 134.881 228.496 135.127C228.316 135.373 228.095 135.563 227.831 135.696C227.571 135.83 227.264 135.896 226.909 135.896C226.561 135.896 226.246 135.824 225.965 135.68C225.687 135.536 225.448 135.334 225.248 135.074C225.051 134.814 224.9 134.508 224.795 134.157C224.689 133.802 224.636 133.417 224.636 133.002ZM225.907 132.891V133.002C225.907 133.262 225.932 133.505 225.981 133.73C226.034 133.955 226.113 134.153 226.218 134.325C226.327 134.494 226.464 134.628 226.629 134.726C226.798 134.821 226.997 134.868 227.225 134.868C227.524 134.868 227.768 134.805 227.958 134.679C228.151 134.552 228.299 134.382 228.401 134.167C228.506 133.949 228.58 133.707 228.622 133.44V132.486C228.601 132.278 228.557 132.085 228.49 131.906C228.427 131.726 228.341 131.57 228.232 131.436C228.123 131.299 227.986 131.194 227.821 131.12C227.656 131.043 227.46 131.004 227.236 131.004C227.007 131.004 226.809 131.053 226.64 131.152C226.471 131.25 226.332 131.385 226.223 131.558C226.118 131.73 226.039 131.93 225.986 132.159C225.933 132.387 225.907 132.631 225.907 132.891ZM233.391 135.896C232.969 135.896 232.587 135.828 232.247 135.691C231.909 135.55 231.621 135.355 231.382 135.106C231.146 134.856 230.965 134.563 230.839 134.225C230.712 133.888 230.649 133.524 230.649 133.134V132.923C230.649 132.477 230.714 132.073 230.844 131.711C230.974 131.349 231.155 131.039 231.387 130.783C231.619 130.523 231.893 130.324 232.21 130.187C232.526 130.05 232.869 129.981 233.238 129.981C233.645 129.981 234.002 130.05 234.308 130.187C234.614 130.324 234.867 130.517 235.067 130.767C235.271 131.013 235.422 131.306 235.52 131.647C235.622 131.988 235.673 132.364 235.673 132.776V133.319H231.266V132.406H234.419V132.306C234.412 132.078 234.366 131.863 234.281 131.663C234.201 131.463 234.076 131.301 233.907 131.178C233.738 131.055 233.514 130.994 233.232 130.994C233.022 130.994 232.833 131.039 232.668 131.131C232.507 131.219 232.371 131.347 232.262 131.516C232.153 131.684 232.069 131.888 232.009 132.127C231.953 132.363 231.925 132.628 231.925 132.923V133.134C231.925 133.384 231.958 133.615 232.025 133.83C232.095 134.041 232.197 134.225 232.331 134.383C232.464 134.542 232.626 134.666 232.816 134.758C233.006 134.846 233.222 134.89 233.464 134.89C233.77 134.89 234.042 134.828 234.281 134.705C234.52 134.582 234.728 134.408 234.904 134.183L235.573 134.832C235.45 135.011 235.29 135.183 235.093 135.348C234.897 135.51 234.656 135.642 234.371 135.744C234.09 135.845 233.763 135.896 233.391 135.896ZM237.832 131.173V135.791H236.562V130.087H237.774L237.832 131.173ZM239.577 130.05L239.567 131.231C239.489 131.217 239.405 131.206 239.314 131.199C239.226 131.192 239.138 131.189 239.05 131.189C238.832 131.189 238.641 131.22 238.475 131.284C238.31 131.343 238.171 131.431 238.059 131.547C237.95 131.66 237.866 131.797 237.806 131.958C237.746 132.12 237.711 132.301 237.7 132.501L237.41 132.522C237.41 132.164 237.446 131.832 237.516 131.526C237.586 131.22 237.692 130.951 237.832 130.719C237.976 130.488 238.156 130.307 238.37 130.176C238.588 130.046 238.839 129.981 239.124 129.981C239.201 129.981 239.284 129.988 239.372 130.003C239.463 130.017 239.531 130.032 239.577 130.05Z" fill="#1A73E8"/>
<path d="M186.422 155.981V156.402C186.422 156.982 186.346 157.502 186.195 157.963C186.044 158.423 185.828 158.815 185.547 159.138C185.269 159.462 184.935 159.709 184.545 159.882C184.155 160.05 183.723 160.135 183.248 160.135C182.777 160.135 182.347 160.05 181.957 159.882C181.57 159.709 181.234 159.462 180.95 159.138C180.665 158.815 180.444 158.423 180.285 157.963C180.131 157.502 180.053 156.982 180.053 156.402V155.981C180.053 155.401 180.131 154.882 180.285 154.425C180.44 153.965 180.658 153.573 180.939 153.25C181.224 152.923 181.559 152.675 181.946 152.506C182.336 152.334 182.767 152.248 183.238 152.248C183.712 152.248 184.144 152.334 184.535 152.506C184.925 152.675 185.26 152.923 185.541 153.25C185.823 153.573 186.039 153.965 186.19 154.425C186.345 154.882 186.422 155.401 186.422 155.981ZM185.099 156.402V155.97C185.099 155.541 185.056 155.163 184.972 154.837C184.891 154.506 184.77 154.23 184.608 154.009C184.45 153.784 184.255 153.615 184.023 153.503C183.791 153.387 183.529 153.329 183.238 153.329C182.946 153.329 182.686 153.387 182.457 153.503C182.229 153.615 182.034 153.784 181.872 154.009C181.714 154.23 181.593 154.506 181.508 154.837C181.424 155.163 181.382 155.541 181.382 155.97V156.402C181.382 156.831 181.424 157.211 181.508 157.541C181.593 157.871 181.716 158.151 181.878 158.379C182.043 158.604 182.24 158.775 182.468 158.891C182.696 159.003 182.956 159.059 183.248 159.059C183.543 159.059 183.805 159.003 184.034 158.891C184.262 158.775 184.455 158.604 184.614 158.379C184.772 158.151 184.891 157.871 184.972 157.541C185.056 157.211 185.099 156.831 185.099 156.402ZM188.786 155.411V160.029H187.516V154.325H188.728L188.786 155.411ZM190.531 154.288L190.521 155.469C190.444 155.455 190.359 155.445 190.268 155.437C190.18 155.43 190.092 155.427 190.004 155.427C189.786 155.427 189.595 155.459 189.43 155.522C189.264 155.582 189.126 155.669 189.013 155.785C188.904 155.898 188.82 156.035 188.76 156.197C188.7 156.358 188.665 156.539 188.655 156.74L188.365 156.761C188.365 156.402 188.4 156.07 188.47 155.764C188.54 155.459 188.646 155.19 188.786 154.958C188.931 154.726 189.11 154.545 189.324 154.415C189.542 154.285 189.793 154.22 190.078 154.22C190.155 154.22 190.238 154.227 190.326 154.241C190.417 154.255 190.486 154.271 190.531 154.288ZM194.593 158.848V151.932H195.869V160.029H194.715L194.593 158.848ZM190.882 157.24V157.13C190.882 156.697 190.933 156.304 191.035 155.949C191.137 155.59 191.285 155.283 191.478 155.026C191.671 154.766 191.907 154.568 192.184 154.431C192.462 154.29 192.775 154.22 193.123 154.22C193.467 154.22 193.769 154.286 194.029 154.42C194.289 154.554 194.511 154.745 194.694 154.995C194.876 155.241 195.022 155.536 195.131 155.88C195.24 156.221 195.317 156.601 195.363 157.019V157.372C195.317 157.78 195.24 158.153 195.131 158.49C195.022 158.827 194.876 159.119 194.694 159.365C194.511 159.611 194.288 159.801 194.024 159.934C193.764 160.068 193.46 160.135 193.112 160.135C192.768 160.135 192.457 160.063 192.179 159.919C191.905 159.774 191.671 159.572 191.478 159.312C191.285 159.052 191.137 158.746 191.035 158.395C190.933 158.04 190.882 157.655 190.882 157.24ZM192.153 157.13V157.24C192.153 157.501 192.175 157.743 192.221 157.968C192.27 158.193 192.346 158.392 192.448 158.564C192.55 158.732 192.682 158.866 192.843 158.964C193.008 159.059 193.205 159.107 193.434 159.107C193.722 159.107 193.959 159.043 194.145 158.917C194.332 158.79 194.477 158.62 194.583 158.406C194.692 158.188 194.766 157.945 194.804 157.678V156.724C194.783 156.516 194.739 156.323 194.673 156.144C194.609 155.965 194.523 155.808 194.414 155.675C194.305 155.538 194.17 155.432 194.008 155.358C193.85 155.281 193.662 155.242 193.444 155.242C193.212 155.242 193.015 155.292 192.854 155.39C192.692 155.488 192.559 155.624 192.453 155.796C192.351 155.968 192.276 156.169 192.226 156.397C192.177 156.625 192.153 156.87 192.153 157.13ZM199.604 160.135C199.183 160.135 198.801 160.066 198.461 159.929C198.123 159.789 197.835 159.593 197.596 159.344C197.36 159.094 197.179 158.801 197.053 158.464C196.926 158.126 196.863 157.762 196.863 157.372V157.161C196.863 156.715 196.928 156.311 197.058 155.949C197.188 155.587 197.369 155.278 197.601 155.021C197.833 154.761 198.107 154.562 198.424 154.425C198.74 154.288 199.083 154.22 199.452 154.22C199.859 154.22 200.216 154.288 200.522 154.425C200.828 154.562 201.081 154.756 201.281 155.005C201.485 155.251 201.636 155.545 201.734 155.886C201.836 156.227 201.887 156.603 201.887 157.014V157.557H197.48V156.645H200.633V156.545C200.625 156.316 200.58 156.102 200.495 155.901C200.415 155.701 200.29 155.539 200.121 155.416C199.952 155.293 199.728 155.232 199.446 155.232C199.235 155.232 199.047 155.278 198.882 155.369C198.721 155.457 198.585 155.585 198.476 155.754C198.367 155.923 198.283 156.126 198.223 156.365C198.167 156.601 198.139 156.866 198.139 157.161V157.372C198.139 157.622 198.172 157.854 198.239 158.068C198.309 158.279 198.411 158.464 198.545 158.622C198.678 158.78 198.84 158.905 199.03 158.996C199.22 159.084 199.436 159.128 199.678 159.128C199.984 159.128 200.256 159.066 200.495 158.943C200.734 158.82 200.942 158.646 201.118 158.421L201.787 159.07C201.664 159.249 201.504 159.421 201.307 159.586C201.11 159.748 200.87 159.88 200.585 159.982C200.304 160.084 199.977 160.135 199.604 160.135ZM204.046 155.411V160.029H202.776V154.325H203.988L204.046 155.411ZM205.791 154.288L205.781 155.469C205.703 155.455 205.619 155.445 205.528 155.437C205.44 155.43 205.352 155.427 205.264 155.427C205.046 155.427 204.855 155.459 204.689 155.522C204.524 155.582 204.385 155.669 204.273 155.785C204.164 155.898 204.08 156.035 204.02 156.197C203.96 156.358 203.925 156.539 203.914 156.74L203.624 156.761C203.624 156.402 203.66 156.07 203.73 155.764C203.8 155.459 203.906 155.19 204.046 154.958C204.19 154.726 204.369 154.545 204.584 154.415C204.802 154.285 205.053 154.22 205.338 154.22C205.415 154.22 205.498 154.227 205.586 154.241C205.677 154.255 205.745 154.271 205.791 154.288ZM210.336 155.422V162.222H209.065V154.325H210.236L210.336 155.422ZM214.052 157.124V157.235C214.052 157.65 214.003 158.035 213.905 158.39C213.81 158.741 213.668 159.049 213.478 159.312C213.291 159.572 213.061 159.774 212.787 159.919C212.513 160.063 212.197 160.135 211.838 160.135C211.483 160.135 211.172 160.07 210.905 159.94C210.641 159.806 210.418 159.618 210.236 159.376C210.053 159.133 209.905 158.848 209.793 158.522C209.684 158.191 209.606 157.829 209.561 157.436V157.009C209.606 156.59 209.684 156.211 209.793 155.87C209.905 155.529 210.053 155.235 210.236 154.989C210.418 154.743 210.641 154.554 210.905 154.42C211.169 154.286 211.476 154.22 211.828 154.22C212.186 154.22 212.504 154.29 212.782 154.431C213.059 154.568 213.293 154.764 213.483 155.021C213.673 155.274 213.815 155.58 213.91 155.938C214.005 156.293 214.052 156.689 214.052 157.124ZM212.782 157.235V157.124C212.782 156.861 212.757 156.617 212.708 156.392C212.659 156.163 212.582 155.963 212.476 155.791C212.371 155.618 212.235 155.485 212.07 155.39C211.908 155.292 211.713 155.242 211.485 155.242C211.26 155.242 211.067 155.281 210.905 155.358C210.743 155.432 210.608 155.536 210.499 155.669C210.39 155.803 210.306 155.959 210.246 156.139C210.186 156.314 210.144 156.506 210.12 156.713V157.736C210.162 157.989 210.234 158.221 210.336 158.432C210.438 158.643 210.582 158.811 210.768 158.938C210.958 159.061 211.2 159.123 211.496 159.123C211.724 159.123 211.919 159.073 212.081 158.975C212.242 158.877 212.374 158.741 212.476 158.569C212.582 158.393 212.659 158.191 212.708 157.963C212.757 157.734 212.782 157.492 212.782 157.235ZM216.385 151.932V160.029H215.109V151.932H216.385ZM220.885 158.885V156.165C220.885 155.961 220.848 155.785 220.774 155.638C220.7 155.49 220.588 155.376 220.437 155.295C220.289 155.214 220.103 155.174 219.878 155.174C219.671 155.174 219.491 155.209 219.34 155.279C219.189 155.35 219.071 155.445 218.987 155.564C218.903 155.684 218.861 155.819 218.861 155.97H217.595C217.595 155.745 217.65 155.527 217.759 155.316C217.868 155.105 218.026 154.917 218.233 154.752C218.441 154.587 218.688 154.457 218.977 154.362C219.265 154.267 219.588 154.22 219.947 154.22C220.375 154.22 220.755 154.292 221.085 154.436C221.419 154.58 221.681 154.798 221.871 155.09C222.064 155.378 222.161 155.74 222.161 156.176V158.711C222.161 158.971 222.178 159.205 222.213 159.412C222.252 159.616 222.307 159.794 222.377 159.945V160.029H221.075C221.015 159.892 220.968 159.718 220.932 159.507C220.901 159.293 220.885 159.086 220.885 158.885ZM221.069 156.56L221.08 157.346H220.168C219.932 157.346 219.725 157.369 219.546 157.414C219.367 157.457 219.217 157.52 219.098 157.604C218.978 157.689 218.889 157.791 218.829 157.91C218.769 158.03 218.739 158.165 218.739 158.316C218.739 158.467 218.774 158.606 218.845 158.732C218.915 158.855 219.017 158.952 219.15 159.022C219.288 159.093 219.453 159.128 219.646 159.128C219.906 159.128 220.133 159.075 220.326 158.97C220.523 158.861 220.678 158.729 220.79 158.574C220.902 158.416 220.962 158.267 220.969 158.126L221.38 158.69C221.338 158.834 221.266 158.989 221.164 159.154C221.062 159.319 220.929 159.478 220.764 159.629C220.602 159.776 220.407 159.898 220.178 159.992C219.954 160.087 219.693 160.135 219.398 160.135C219.026 160.135 218.694 160.061 218.402 159.913C218.11 159.762 217.882 159.56 217.717 159.307C217.551 159.05 217.469 158.761 217.469 158.437C217.469 158.135 217.525 157.868 217.637 157.636C217.753 157.4 217.922 157.204 218.144 157.045C218.368 156.887 218.643 156.768 218.966 156.687C219.289 156.603 219.658 156.56 220.073 156.56H221.069ZM225.711 159.123C225.919 159.123 226.105 159.082 226.27 159.001C226.439 158.917 226.574 158.801 226.676 158.653C226.782 158.506 226.84 158.335 226.85 158.142H228.047C228.04 158.511 227.931 158.847 227.72 159.149C227.509 159.451 227.23 159.692 226.882 159.871C226.534 160.047 226.149 160.135 225.727 160.135C225.291 160.135 224.912 160.061 224.589 159.913C224.265 159.762 223.996 159.555 223.782 159.291C223.568 159.028 223.406 158.724 223.297 158.379C223.191 158.035 223.139 157.666 223.139 157.272V157.088C223.139 156.694 223.191 156.325 223.297 155.981C223.406 155.633 223.568 155.327 223.782 155.063C223.996 154.8 224.265 154.594 224.589 154.446C224.912 154.295 225.29 154.22 225.722 154.22C226.179 154.22 226.58 154.311 226.924 154.494C227.268 154.673 227.539 154.924 227.736 155.248C227.936 155.568 228.04 155.94 228.047 156.365H226.85C226.84 156.154 226.787 155.965 226.692 155.796C226.601 155.624 226.471 155.487 226.302 155.385C226.137 155.283 225.938 155.232 225.706 155.232C225.45 155.232 225.237 155.285 225.068 155.39C224.9 155.492 224.768 155.633 224.673 155.812C224.578 155.988 224.509 156.186 224.467 156.408C224.429 156.625 224.409 156.852 224.409 157.088V157.272C224.409 157.508 224.429 157.736 224.467 157.957C224.506 158.179 224.573 158.377 224.668 158.553C224.766 158.725 224.9 158.864 225.068 158.97C225.237 159.072 225.451 159.123 225.711 159.123ZM231.429 160.135C231.007 160.135 230.626 160.066 230.285 159.929C229.947 159.789 229.659 159.593 229.42 159.344C229.185 159.094 229.004 158.801 228.877 158.464C228.751 158.126 228.687 157.762 228.687 157.372V157.161C228.687 156.715 228.753 156.311 228.883 155.949C229.013 155.587 229.194 155.278 229.426 155.021C229.658 154.761 229.932 154.562 230.248 154.425C230.564 154.288 230.907 154.22 231.276 154.22C231.684 154.22 232.04 154.288 232.346 154.425C232.652 154.562 232.905 154.756 233.105 155.005C233.309 155.251 233.46 155.545 233.559 155.886C233.661 156.227 233.712 156.603 233.712 157.014V157.557H229.304V156.645H232.457V156.545C232.45 156.316 232.404 156.102 232.32 155.901C232.239 155.701 232.114 155.539 231.946 155.416C231.777 155.293 231.552 155.232 231.271 155.232C231.06 155.232 230.872 155.278 230.707 155.369C230.545 155.457 230.41 155.585 230.301 155.754C230.192 155.923 230.107 156.126 230.048 156.365C229.991 156.601 229.963 156.866 229.963 157.161V157.372C229.963 157.622 229.997 157.854 230.063 158.068C230.134 158.279 230.236 158.464 230.369 158.622C230.503 158.78 230.664 158.905 230.854 158.996C231.044 159.084 231.26 159.128 231.503 159.128C231.808 159.128 232.081 159.066 232.32 158.943C232.559 158.82 232.766 158.646 232.942 158.421L233.611 159.07C233.488 159.249 233.328 159.421 233.132 159.586C232.935 159.748 232.694 159.88 232.409 159.982C232.128 160.084 231.801 160.135 231.429 160.135ZM238.074 158.848V151.932H239.35V160.029H238.195L238.074 158.848ZM234.363 157.24V157.13C234.363 156.697 234.414 156.304 234.516 155.949C234.618 155.59 234.765 155.283 234.958 155.026C235.152 154.766 235.387 154.568 235.665 154.431C235.943 154.29 236.255 154.22 236.603 154.22C236.948 154.22 237.25 154.286 237.51 154.42C237.77 154.554 237.992 154.745 238.174 154.995C238.357 155.241 238.503 155.536 238.612 155.88C238.721 156.221 238.798 156.601 238.844 157.019V157.372C238.798 157.78 238.721 158.153 238.612 158.49C238.503 158.827 238.357 159.119 238.174 159.365C237.992 159.611 237.768 159.801 237.505 159.934C237.245 160.068 236.941 160.135 236.593 160.135C236.248 160.135 235.937 160.063 235.66 159.919C235.386 159.774 235.152 159.572 234.958 159.312C234.765 159.052 234.618 158.746 234.516 158.395C234.414 158.04 234.363 157.655 234.363 157.24ZM235.633 157.13V157.24C235.633 157.501 235.656 157.743 235.702 157.968C235.751 158.193 235.827 158.392 235.929 158.564C236.03 158.732 236.162 158.866 236.324 158.964C236.489 159.059 236.686 159.107 236.914 159.107C237.203 159.107 237.44 159.043 237.626 158.917C237.812 158.79 237.958 158.62 238.064 158.406C238.173 158.188 238.246 157.945 238.285 157.678V156.724C238.264 156.516 238.22 156.323 238.153 156.144C238.09 155.965 238.004 155.808 237.895 155.675C237.786 155.538 237.651 155.432 237.489 155.358C237.331 155.281 237.143 155.242 236.925 155.242C236.693 155.242 236.496 155.292 236.334 155.39C236.173 155.488 236.039 155.624 235.934 155.796C235.832 155.968 235.756 156.169 235.707 156.397C235.658 156.625 235.633 156.87 235.633 157.13Z" fill="#4A566B"/>
<g filter="url(#filter0_d_17414_10036)">
<circle cx="379.785" cy="110.698" r="7.71199" fill="white"/>
</g>
<path fill-rule="evenodd" clip-rule="evenodd" d="M382.877 114.217L376.932 108.165L377.472 107.615L383.417 113.667L382.877 114.217Z" fill="#999999"/>
<path fill-rule="evenodd" clip-rule="evenodd" d="M383.186 108.282L377.241 114.333L376.701 113.783L382.646 107.732L383.186 108.282Z" fill="#999999"/>
<rect x="167.182" y="222.773" width="213" height="82.7653" rx="6.70866" fill="white"/>
<rect x="167.182" y="222.773" width="213" height="82.7653" rx="6.70866" stroke="#E0E0E0" stroke-width="0.838583"/>
<rect x="179.521" y="234.342" width="20.0512" height="20.0512" rx="4.62719" fill="#1BB644"/>
<path d="M195.291 243.701C195.291 243.847 195.237 243.979 195.142 244.073C195.054 244.157 194.938 244.202 194.814 244.2C194.546 244.194 194.358 243.988 194.357 243.7C194.356 243.51 194.356 243.321 194.356 243.13V242.978C194.356 242.748 194.357 242.517 194.356 242.287C194.352 241.334 193.723 240.575 192.79 240.398C192.685 240.378 192.567 240.369 192.43 240.369C190.453 240.367 188.426 240.367 186.232 240.368C185.149 240.368 184.325 241.179 184.316 242.255C184.306 243.488 184.306 244.742 184.316 245.984C184.325 247.058 185.149 247.87 186.232 247.872C186.947 247.873 187.663 247.873 188.378 247.873H188.804C189.245 247.873 189.685 247.872 190.126 247.873C190.204 247.873 190.288 247.876 190.369 247.901C190.56 247.961 190.693 248.151 190.685 248.353C190.677 248.557 190.538 248.734 190.346 248.786C190.287 248.801 190.221 248.809 190.143 248.809L189.389 248.81C188.848 248.811 188.298 248.811 187.745 248.811C187.242 248.811 186.737 248.811 186.236 248.809C185.575 248.808 184.959 248.599 184.456 248.205C183.951 247.812 183.606 247.269 183.458 246.636C183.409 246.43 183.384 246.198 183.383 245.946C183.377 244.84 183.376 243.678 183.38 242.29C183.385 240.827 184.398 239.66 185.844 239.454C185.984 239.434 186.129 239.434 186.258 239.434H186.265C186.925 239.433 187.586 239.433 188.246 239.433H189.332C189.65 239.433 189.969 239.433 190.287 239.432C190.979 239.431 191.718 239.431 192.437 239.433C193.828 239.438 194.952 240.347 195.234 241.697C195.268 241.861 195.286 242.038 195.289 242.222C195.297 242.732 195.295 243.256 195.291 243.701Z" fill="white"/>
<path d="M193.273 244.307H193.262C192.6 244.307 191.98 244.561 191.514 245.024C191.049 245.486 190.792 246.104 190.791 246.764C190.787 248.122 191.889 249.231 193.247 249.235H193.255C193.91 249.235 194.526 248.981 194.991 248.519C195.457 248.055 195.715 247.436 195.716 246.777C195.72 245.42 194.624 244.312 193.273 244.307ZM194.331 247.85C194.041 248.141 193.659 248.301 193.255 248.301H193.248C192.408 248.297 191.725 247.609 191.727 246.768C191.728 245.928 192.413 245.245 193.253 245.245C194.093 245.245 194.779 245.928 194.782 246.768C194.784 247.173 194.624 247.558 194.331 247.85Z" fill="white"/>
<path d="M193.225 242.799C192.991 242.896 192.751 242.991 192.519 243.083L192.498 243.091C192.414 243.125 192.33 243.158 192.247 243.192C192.048 243.271 191.849 243.351 191.651 243.431L191.604 243.45C191.061 243.667 190.5 243.893 189.945 244.108C189.813 244.159 189.676 244.192 189.543 244.223L189.534 244.225C189.479 244.238 189.423 244.251 189.37 244.266L189.345 244.272L189.321 244.267C189.265 244.253 189.211 244.242 189.158 244.231L189.145 244.229C189.023 244.204 188.909 244.181 188.797 244.136C187.785 243.738 186.758 243.325 185.764 242.926L185.459 242.804C185.218 242.706 185.098 242.483 185.161 242.247C185.197 242.113 185.28 242.006 185.395 241.948C185.518 241.886 185.665 241.882 185.809 241.938C186.053 242.032 186.3 242.131 186.532 242.224L186.593 242.249C186.655 242.274 186.716 242.298 186.778 242.323L187.334 242.545C187.898 242.77 188.498 243.009 189.088 243.248C189.255 243.316 189.407 243.317 189.566 243.253C190.611 242.833 191.698 242.399 192.798 241.964C192.915 241.917 193.021 241.897 193.111 241.902C193.318 241.916 193.489 242.081 193.518 242.294C193.549 242.518 193.437 242.711 193.225 242.799Z" fill="white"/>
<path d="M194.226 246.794C194.053 246.937 193.876 247.079 193.704 247.217L193.593 247.307C193.546 247.344 193.5 247.381 193.454 247.419C193.441 247.429 193.428 247.44 193.415 247.45L193.392 247.469C193.344 247.509 193.293 247.55 193.24 247.588C193.151 247.651 193.052 247.685 192.953 247.685C192.819 247.685 192.694 247.625 192.601 247.514C192.456 247.343 192.32 247.169 192.197 246.998C192.05 246.794 192.09 246.512 192.289 246.357C192.481 246.207 192.763 246.237 192.931 246.425C192.967 246.466 193 246.507 193.035 246.551C193.069 246.523 193.103 246.496 193.137 246.468L193.14 246.466C193.3 246.337 193.449 246.215 193.607 246.094C193.691 246.03 193.787 245.986 193.876 245.97C194.074 245.934 194.272 246.044 194.357 246.238C194.446 246.439 194.396 246.652 194.226 246.794Z" fill="white"/>
<path d="M210.56 245.89C210.56 245.732 210.536 245.591 210.486 245.468C210.441 245.345 210.358 245.233 210.239 245.131C210.119 245.029 209.95 244.931 209.733 244.836C209.518 244.737 209.244 244.637 208.91 244.535C208.545 244.423 208.207 244.298 207.898 244.161C207.592 244.02 207.325 243.859 207.097 243.676C206.868 243.49 206.691 243.277 206.564 243.038C206.438 242.796 206.374 242.516 206.374 242.2C206.374 241.887 206.439 241.602 206.569 241.346C206.703 241.089 206.891 240.868 207.133 240.682C207.379 240.492 207.669 240.346 208.003 240.244C208.337 240.139 208.706 240.086 209.11 240.086C209.68 240.086 210.17 240.191 210.581 240.402C210.996 240.613 211.314 240.896 211.535 241.251C211.76 241.606 211.873 241.998 211.873 242.427H210.56C210.56 242.174 210.506 241.95 210.397 241.757C210.291 241.56 210.13 241.406 209.912 241.293C209.697 241.181 209.425 241.124 209.095 241.124C208.782 241.124 208.522 241.172 208.314 241.267C208.107 241.362 207.952 241.49 207.85 241.652C207.749 241.813 207.698 241.996 207.698 242.2C207.698 242.344 207.731 242.476 207.798 242.595C207.865 242.711 207.966 242.82 208.103 242.922C208.241 243.021 208.413 243.114 208.62 243.202C208.827 243.289 209.072 243.374 209.353 243.455C209.778 243.581 210.149 243.722 210.465 243.876C210.782 244.028 211.045 244.2 211.256 244.393C211.467 244.586 211.625 244.806 211.731 245.052C211.836 245.295 211.889 245.57 211.889 245.88C211.889 246.203 211.824 246.495 211.694 246.755C211.564 247.011 211.377 247.231 211.135 247.414C210.896 247.593 210.608 247.732 210.27 247.83C209.936 247.925 209.564 247.973 209.153 247.973C208.784 247.973 208.42 247.923 208.061 247.825C207.706 247.727 207.383 247.577 207.091 247.377C206.8 247.173 206.568 246.92 206.395 246.618C206.223 246.312 206.137 245.955 206.137 245.548H207.46C207.46 245.797 207.503 246.01 207.587 246.185C207.675 246.361 207.796 246.505 207.951 246.618C208.105 246.727 208.284 246.808 208.488 246.86C208.696 246.913 208.917 246.939 209.153 246.939C209.462 246.939 209.72 246.895 209.928 246.808C210.138 246.72 210.297 246.597 210.402 246.439C210.507 246.28 210.56 246.098 210.56 245.89ZM215.339 247.973C214.917 247.973 214.536 247.904 214.195 247.767C213.858 247.626 213.57 247.431 213.331 247.182C213.095 246.932 212.914 246.639 212.788 246.301C212.661 245.964 212.598 245.6 212.598 245.21V244.999C212.598 244.553 212.663 244.149 212.793 243.787C212.923 243.425 213.104 243.115 213.336 242.859C213.568 242.599 213.842 242.4 214.158 242.263C214.475 242.126 214.817 242.058 215.186 242.058C215.594 242.058 215.951 242.126 216.257 242.263C216.562 242.4 216.815 242.594 217.016 242.843C217.22 243.089 217.371 243.383 217.469 243.723C217.571 244.064 217.622 244.44 217.622 244.852V245.395H213.215V244.483H216.367V244.382C216.36 244.154 216.315 243.94 216.23 243.739C216.149 243.539 216.025 243.377 215.856 243.254C215.687 243.131 215.462 243.07 215.181 243.07C214.97 243.07 214.782 243.115 214.617 243.207C214.455 243.295 214.32 243.423 214.211 243.592C214.102 243.76 214.018 243.964 213.958 244.203C213.902 244.439 213.874 244.704 213.874 244.999V245.21C213.874 245.46 213.907 245.692 213.974 245.906C214.044 246.117 214.146 246.301 214.28 246.46C214.413 246.618 214.575 246.743 214.765 246.834C214.954 246.922 215.171 246.966 215.413 246.966C215.719 246.966 215.991 246.904 216.23 246.781C216.469 246.658 216.677 246.484 216.852 246.259L217.522 246.908C217.399 247.087 217.239 247.259 217.042 247.424C216.845 247.586 216.604 247.718 216.32 247.82C216.039 247.922 215.712 247.973 215.339 247.973ZM219.765 243.381V247.867H218.495V242.163H219.691L219.765 243.381ZM219.538 244.804L219.127 244.799C219.131 244.395 219.187 244.024 219.296 243.687C219.408 243.349 219.563 243.059 219.76 242.817C219.96 242.574 220.199 242.388 220.477 242.258C220.754 242.124 221.064 242.058 221.405 242.058C221.679 242.058 221.927 242.096 222.148 242.174C222.373 242.247 222.564 242.369 222.723 242.537C222.884 242.706 223.007 242.926 223.092 243.196C223.176 243.463 223.218 243.792 223.218 244.182V247.867H221.942V244.177C221.942 243.903 221.902 243.687 221.821 243.528C221.744 243.367 221.63 243.253 221.478 243.186C221.331 243.115 221.146 243.08 220.925 243.08C220.707 243.08 220.512 243.126 220.34 243.217C220.168 243.309 220.022 243.434 219.902 243.592C219.786 243.75 219.697 243.933 219.633 244.14C219.57 244.347 219.538 244.569 219.538 244.804ZM227.887 246.686V239.77H229.162V247.867H228.008L227.887 246.686ZM224.175 245.078V244.968C224.175 244.535 224.226 244.142 224.328 243.787C224.43 243.428 224.578 243.121 224.771 242.864C224.964 242.604 225.2 242.406 225.477 242.268C225.755 242.128 226.068 242.058 226.416 242.058C226.76 242.058 227.062 242.124 227.322 242.258C227.582 242.391 227.804 242.583 227.987 242.833C228.169 243.079 228.315 243.374 228.424 243.718C228.533 244.059 228.611 244.439 228.656 244.857V245.21C228.611 245.618 228.533 245.99 228.424 246.328C228.315 246.665 228.169 246.957 227.987 247.203C227.804 247.449 227.581 247.639 227.317 247.772C227.057 247.906 226.753 247.973 226.405 247.973C226.061 247.973 225.75 247.901 225.472 247.756C225.198 247.612 224.964 247.41 224.771 247.15C224.578 246.89 224.43 246.584 224.328 246.233C224.226 245.878 224.175 245.493 224.175 245.078ZM225.446 244.968V245.078C225.446 245.338 225.468 245.581 225.514 245.806C225.563 246.031 225.639 246.229 225.741 246.402C225.843 246.57 225.975 246.704 226.136 246.802C226.301 246.897 226.498 246.945 226.727 246.945C227.015 246.945 227.252 246.881 227.438 246.755C227.625 246.628 227.771 246.458 227.876 246.243C227.985 246.026 228.059 245.783 228.097 245.516V244.562C228.076 244.354 228.032 244.161 227.966 243.982C227.902 243.803 227.816 243.646 227.707 243.513C227.598 243.376 227.463 243.27 227.301 243.196C227.143 243.119 226.955 243.08 226.737 243.08C226.505 243.08 226.308 243.13 226.147 243.228C225.985 243.326 225.852 243.462 225.746 243.634C225.644 243.806 225.569 244.006 225.519 244.235C225.47 244.463 225.446 244.708 225.446 244.968ZM235.478 247.973C235.056 247.973 234.675 247.904 234.334 247.767C233.997 247.626 233.709 247.431 233.47 247.182C233.234 246.932 233.053 246.639 232.927 246.301C232.8 245.964 232.737 245.6 232.737 245.21V244.999C232.737 244.553 232.802 244.149 232.932 243.787C233.062 243.425 233.243 243.115 233.475 242.859C233.707 242.599 233.981 242.4 234.297 242.263C234.614 242.126 234.956 242.058 235.325 242.058C235.733 242.058 236.09 242.126 236.396 242.263C236.701 242.4 236.954 242.594 237.155 242.843C237.359 243.089 237.51 243.383 237.608 243.723C237.71 244.064 237.761 244.44 237.761 244.852V245.395H233.354V244.483H236.506V244.382C236.499 244.154 236.453 243.94 236.369 243.739C236.288 243.539 236.164 243.377 235.995 243.254C235.826 243.131 235.601 243.07 235.32 243.07C235.109 243.07 234.921 243.115 234.756 243.207C234.594 243.295 234.459 243.423 234.35 243.592C234.241 243.76 234.157 243.964 234.097 244.203C234.041 244.439 234.013 244.704 234.013 244.999V245.21C234.013 245.46 234.046 245.692 234.113 245.906C234.183 246.117 234.285 246.301 234.419 246.46C234.552 246.618 234.714 246.743 234.904 246.834C235.093 246.922 235.31 246.966 235.552 246.966C235.858 246.966 236.13 246.904 236.369 246.781C236.608 246.658 236.815 246.484 236.991 246.259L237.661 246.908C237.538 247.087 237.378 247.259 237.181 247.424C236.984 247.586 236.743 247.718 236.459 247.82C236.178 247.922 235.851 247.973 235.478 247.973ZM239.915 243.323V247.867H238.644V242.163H239.841L239.915 243.323ZM239.709 244.804L239.277 244.799C239.277 244.405 239.326 244.042 239.424 243.708C239.523 243.374 239.667 243.084 239.857 242.838C240.046 242.588 240.282 242.397 240.563 242.263C240.848 242.126 241.176 242.058 241.549 242.058C241.809 242.058 242.046 242.096 242.261 242.174C242.478 242.247 242.667 242.365 242.825 242.527C242.986 242.688 243.109 242.896 243.194 243.149C243.282 243.402 243.325 243.708 243.325 244.066V247.867H242.055V244.177C242.055 243.899 242.013 243.681 241.928 243.523C241.848 243.365 241.73 243.253 241.575 243.186C241.424 243.115 241.243 243.08 241.032 243.08C240.793 243.08 240.589 243.126 240.421 243.217C240.255 243.309 240.12 243.434 240.015 243.592C239.909 243.75 239.832 243.933 239.783 244.14C239.734 244.347 239.709 244.569 239.709 244.804ZM243.246 244.467L242.651 244.599C242.651 244.254 242.698 243.929 242.793 243.623C242.891 243.314 243.034 243.043 243.22 242.811C243.41 242.576 243.644 242.391 243.921 242.258C244.199 242.124 244.517 242.058 244.875 242.058C245.167 242.058 245.427 242.098 245.656 242.179C245.888 242.256 246.084 242.379 246.246 242.548C246.408 242.717 246.531 242.936 246.615 243.207C246.699 243.474 246.742 243.797 246.742 244.177V247.867H245.466V244.172C245.466 243.883 245.424 243.66 245.339 243.502C245.259 243.344 245.143 243.235 244.991 243.175C244.84 243.112 244.659 243.08 244.448 243.08C244.252 243.08 244.078 243.117 243.926 243.191C243.779 243.261 243.654 243.361 243.552 243.492C243.45 243.618 243.373 243.764 243.32 243.929C243.271 244.094 243.246 244.274 243.246 244.467ZM251.157 246.723V244.003C251.157 243.799 251.12 243.623 251.046 243.476C250.972 243.328 250.86 243.214 250.709 243.133C250.561 243.052 250.375 243.012 250.15 243.012C249.943 243.012 249.763 243.047 249.612 243.117C249.461 243.188 249.343 243.282 249.259 243.402C249.175 243.521 249.133 243.657 249.133 243.808H247.867C247.867 243.583 247.922 243.365 248.031 243.154C248.14 242.943 248.298 242.755 248.505 242.59C248.713 242.425 248.96 242.295 249.249 242.2C249.537 242.105 249.86 242.058 250.219 242.058C250.647 242.058 251.027 242.13 251.357 242.274C251.691 242.418 251.953 242.636 252.143 242.927C252.336 243.216 252.433 243.578 252.433 244.013V246.549C252.433 246.809 252.45 247.043 252.485 247.25C252.524 247.454 252.579 247.632 252.649 247.783V247.867H251.347C251.287 247.73 251.24 247.556 251.204 247.345C251.173 247.131 251.157 246.924 251.157 246.723ZM251.341 244.398L251.352 245.184H250.44C250.205 245.184 249.997 245.207 249.818 245.252C249.639 245.295 249.489 245.358 249.37 245.442C249.25 245.526 249.161 245.628 249.101 245.748C249.041 245.867 249.011 246.003 249.011 246.154C249.011 246.305 249.046 246.444 249.117 246.57C249.187 246.693 249.289 246.79 249.423 246.86C249.56 246.931 249.725 246.966 249.918 246.966C250.178 246.966 250.405 246.913 250.598 246.808C250.795 246.699 250.95 246.567 251.062 246.412C251.175 246.254 251.234 246.105 251.241 245.964L251.653 246.528C251.61 246.672 251.538 246.827 251.436 246.992C251.334 247.157 251.201 247.315 251.036 247.467C250.874 247.614 250.679 247.735 250.451 247.83C250.226 247.925 249.966 247.973 249.67 247.973C249.298 247.973 248.966 247.899 248.674 247.751C248.382 247.6 248.154 247.398 247.989 247.145C247.823 246.888 247.741 246.598 247.741 246.275C247.741 245.973 247.797 245.706 247.909 245.474C248.025 245.238 248.194 245.041 248.416 244.883C248.641 244.725 248.915 244.606 249.238 244.525C249.561 244.44 249.93 244.398 250.345 244.398H251.341ZM255.013 242.163V247.867H253.738V242.163H255.013ZM253.653 240.666C253.653 240.473 253.717 240.313 253.843 240.186C253.973 240.056 254.152 239.991 254.381 239.991C254.606 239.991 254.783 240.056 254.913 240.186C255.043 240.313 255.108 240.473 255.108 240.666C255.108 240.856 255.043 241.014 254.913 241.14C254.783 241.267 254.606 241.33 254.381 241.33C254.152 241.33 253.973 241.267 253.843 241.14C253.717 241.014 253.653 240.856 253.653 240.666ZM257.657 239.77V247.867H256.382V239.77H257.657Z" fill="#1BB644"/>
<path d="M184.876 271.337V272.105H181.102V271.337H184.876ZM181.293 264.978V272.105H180.348V264.978H181.293ZM184.377 268.042V268.811H181.102V268.042H184.377ZM184.828 264.978V265.751H181.102V264.978H184.828ZM186.81 267.861V272.105H185.9V266.809H186.761L186.81 267.861ZM186.624 269.256L186.203 269.242C186.206 268.879 186.254 268.545 186.345 268.238C186.436 267.928 186.572 267.659 186.751 267.43C186.931 267.202 187.154 267.026 187.422 266.902C187.69 266.774 188 266.711 188.352 266.711C188.6 266.711 188.829 266.747 189.037 266.819C189.246 266.887 189.427 266.996 189.581 267.147C189.734 267.297 189.853 267.489 189.938 267.724C190.023 267.959 190.065 268.243 190.065 268.576V272.105H189.16V268.62C189.16 268.343 189.113 268.121 189.018 267.954C188.927 267.788 188.796 267.667 188.626 267.592C188.457 267.514 188.257 267.475 188.029 267.475C187.761 267.475 187.538 267.522 187.358 267.616C187.179 267.711 187.035 267.842 186.928 268.008C186.82 268.175 186.742 268.365 186.693 268.581C186.647 268.793 186.624 269.018 186.624 269.256ZM190.056 268.757L189.449 268.943C189.452 268.653 189.499 268.374 189.591 268.106C189.685 267.838 189.821 267.6 189.997 267.391C190.176 267.182 190.397 267.018 190.658 266.897C190.919 266.773 191.218 266.711 191.554 266.711C191.838 266.711 192.089 266.748 192.308 266.823C192.529 266.898 192.715 267.014 192.866 267.171C193.019 267.324 193.135 267.522 193.213 267.763C193.291 268.005 193.331 268.292 193.331 268.625V272.105H192.42V268.615C192.42 268.318 192.373 268.088 192.278 267.925C192.187 267.758 192.056 267.643 191.887 267.577C191.72 267.509 191.521 267.475 191.289 267.475C191.09 267.475 190.914 267.509 190.761 267.577C190.607 267.646 190.478 267.74 190.374 267.861C190.269 267.979 190.19 268.114 190.134 268.268C190.082 268.421 190.056 268.584 190.056 268.757ZM197.825 271.2V268.473C197.825 268.264 197.782 268.083 197.697 267.93C197.616 267.773 197.492 267.652 197.325 267.568C197.159 267.483 196.953 267.44 196.708 267.44C196.48 267.44 196.279 267.479 196.106 267.558C195.937 267.636 195.803 267.739 195.705 267.866C195.61 267.993 195.563 268.13 195.563 268.277H194.657C194.657 268.088 194.706 267.9 194.804 267.714C194.902 267.528 195.042 267.36 195.225 267.21C195.411 267.057 195.633 266.936 195.891 266.848C196.152 266.757 196.442 266.711 196.762 266.711C197.147 266.711 197.487 266.776 197.78 266.907C198.077 267.037 198.309 267.235 198.476 267.499C198.645 267.76 198.73 268.088 198.73 268.483V270.95C198.73 271.126 198.745 271.314 198.774 271.513C198.807 271.712 198.854 271.884 198.916 272.027V272.105H197.971C197.926 272.001 197.89 271.862 197.864 271.689C197.838 271.513 197.825 271.35 197.825 271.2ZM197.981 268.894L197.991 269.531H197.076C196.818 269.531 196.588 269.552 196.385 269.594C196.183 269.633 196.013 269.694 195.876 269.775C195.739 269.857 195.635 269.96 195.563 270.084C195.491 270.204 195.455 270.346 195.455 270.51C195.455 270.676 195.493 270.828 195.568 270.965C195.643 271.102 195.755 271.211 195.906 271.293C196.059 271.371 196.247 271.41 196.469 271.41C196.746 271.41 196.991 271.352 197.203 271.234C197.415 271.117 197.583 270.973 197.707 270.803C197.834 270.634 197.903 270.469 197.913 270.309L198.299 270.745C198.277 270.882 198.215 271.033 198.113 271.2C198.012 271.366 197.877 271.526 197.707 271.68C197.541 271.83 197.342 271.955 197.11 272.057C196.881 272.154 196.624 272.203 196.336 272.203C195.977 272.203 195.662 272.133 195.392 271.993C195.124 271.853 194.915 271.665 194.765 271.43C194.618 271.192 194.545 270.926 194.545 270.632C194.545 270.348 194.6 270.098 194.711 269.883C194.822 269.664 194.982 269.483 195.191 269.34C195.4 269.193 195.651 269.082 195.945 269.007C196.238 268.932 196.566 268.894 196.929 268.894H197.981ZM201.139 266.809V272.105H200.228V266.809H201.139ZM200.16 265.404C200.16 265.257 200.204 265.133 200.292 265.032C200.383 264.931 200.517 264.88 200.693 264.88C200.866 264.88 200.998 264.931 201.09 265.032C201.184 265.133 201.232 265.257 201.232 265.404C201.232 265.544 201.184 265.665 201.09 265.766C200.998 265.864 200.866 265.913 200.693 265.913C200.517 265.913 200.383 265.864 200.292 265.766C200.204 265.665 200.16 265.544 200.16 265.404ZM203.577 264.586V272.105H202.666V264.586H203.577ZM208.418 267.861V272.105H207.507V266.809H208.369L208.418 267.861ZM208.232 269.256L207.811 269.242C207.814 268.879 207.862 268.545 207.953 268.238C208.044 267.928 208.18 267.659 208.359 267.43C208.539 267.202 208.762 267.026 209.03 266.902C209.298 266.774 209.608 266.711 209.96 266.711C210.208 266.711 210.436 266.747 210.645 266.819C210.854 266.887 211.035 266.996 211.189 267.147C211.342 267.297 211.461 267.489 211.546 267.724C211.631 267.959 211.673 268.243 211.673 268.576V272.105H210.768V268.62C210.768 268.343 210.72 268.121 210.626 267.954C210.534 267.788 210.404 267.667 210.234 267.592C210.064 267.514 209.865 267.475 209.637 267.475C209.369 267.475 209.146 267.522 208.966 267.616C208.787 267.711 208.643 267.842 208.535 268.008C208.428 268.175 208.349 268.365 208.301 268.581C208.255 268.793 208.232 269.018 208.232 269.256ZM211.664 268.757L211.057 268.943C211.06 268.653 211.107 268.374 211.199 268.106C211.293 267.838 211.429 267.6 211.605 267.391C211.784 267.182 212.005 267.018 212.266 266.897C212.527 266.773 212.825 266.711 213.162 266.711C213.445 266.711 213.697 266.748 213.915 266.823C214.137 266.898 214.323 267.014 214.473 267.171C214.627 267.324 214.743 267.522 214.821 267.763C214.899 268.005 214.939 268.292 214.939 268.625V272.105H214.028V268.615C214.028 268.318 213.981 268.088 213.886 267.925C213.795 267.758 213.664 267.643 213.494 267.577C213.328 267.509 213.129 267.475 212.897 267.475C212.698 267.475 212.522 267.509 212.369 267.577C212.215 267.646 212.086 267.74 211.982 267.861C211.877 267.979 211.797 268.114 211.742 268.268C211.69 268.421 211.664 268.584 211.664 268.757ZM218.507 272.203C218.138 272.203 217.804 272.141 217.504 272.017C217.207 271.89 216.951 271.712 216.735 271.484C216.523 271.255 216.36 270.984 216.246 270.671C216.131 270.358 216.074 270.015 216.074 269.643V269.438C216.074 269.007 216.138 268.623 216.265 268.287C216.392 267.948 216.565 267.661 216.784 267.426C217.003 267.191 217.251 267.013 217.528 266.892C217.806 266.771 218.093 266.711 218.39 266.711C218.768 266.711 219.095 266.776 219.369 266.907C219.646 267.037 219.873 267.22 220.049 267.455C220.225 267.687 220.356 267.961 220.441 268.277C220.526 268.591 220.568 268.933 220.568 269.305V269.712H216.613V268.972H219.663V268.904C219.649 268.669 219.601 268.441 219.516 268.219C219.434 267.997 219.304 267.814 219.124 267.67C218.945 267.527 218.7 267.455 218.39 267.455C218.184 267.455 217.995 267.499 217.822 267.587C217.649 267.672 217.5 267.799 217.376 267.969C217.252 268.139 217.156 268.346 217.088 268.591C217.019 268.835 216.985 269.118 216.985 269.438V269.643C216.985 269.894 217.019 270.131 217.088 270.353C217.159 270.572 217.262 270.764 217.396 270.931C217.533 271.097 217.698 271.228 217.89 271.322C218.086 271.417 218.308 271.464 218.556 271.464C218.876 271.464 219.147 271.399 219.369 271.268C219.591 271.138 219.785 270.963 219.951 270.745L220.5 271.18C220.385 271.353 220.24 271.518 220.064 271.675C219.888 271.831 219.671 271.959 219.413 272.057C219.158 272.154 218.856 272.203 218.507 272.203ZM224.71 270.701C224.71 270.57 224.68 270.449 224.621 270.338C224.566 270.224 224.45 270.121 224.274 270.03C224.101 269.935 223.84 269.854 223.491 269.785C223.197 269.723 222.931 269.65 222.693 269.565C222.458 269.48 222.257 269.377 222.091 269.256C221.927 269.136 221.802 268.994 221.714 268.831C221.626 268.667 221.581 268.476 221.581 268.258C221.581 268.049 221.627 267.851 221.719 267.665C221.813 267.479 221.945 267.315 222.115 267.171C222.288 267.027 222.495 266.915 222.737 266.833C222.978 266.752 223.248 266.711 223.544 266.711C223.969 266.711 224.331 266.786 224.631 266.936C224.932 267.086 225.162 267.287 225.321 267.538C225.481 267.786 225.561 268.062 225.561 268.365H224.656C224.656 268.219 224.612 268.077 224.524 267.94C224.439 267.799 224.313 267.683 224.147 267.592C223.983 267.501 223.783 267.455 223.544 267.455C223.293 267.455 223.089 267.494 222.933 267.572C222.779 267.647 222.667 267.744 222.595 267.861C222.526 267.979 222.492 268.103 222.492 268.233C222.492 268.331 222.508 268.419 222.541 268.498C222.577 268.573 222.639 268.643 222.727 268.708C222.815 268.77 222.939 268.829 223.099 268.884C223.259 268.94 223.463 268.995 223.711 269.051C224.145 269.149 224.502 269.266 224.783 269.403C225.064 269.54 225.273 269.708 225.41 269.907C225.547 270.107 225.615 270.348 225.615 270.632C225.615 270.864 225.566 271.076 225.468 271.268C225.374 271.461 225.235 271.627 225.052 271.768C224.873 271.905 224.657 272.012 224.406 272.091C224.158 272.166 223.879 272.203 223.569 272.203C223.102 272.203 222.707 272.12 222.384 271.954C222.061 271.787 221.816 271.572 221.65 271.308C221.484 271.043 221.4 270.764 221.4 270.47H222.311C222.324 270.718 222.396 270.916 222.526 271.063C222.657 271.206 222.817 271.309 223.006 271.371C223.195 271.43 223.383 271.459 223.569 271.459C223.817 271.459 224.024 271.427 224.191 271.361C224.36 271.296 224.489 271.206 224.577 271.092C224.666 270.978 224.71 270.847 224.71 270.701ZM229.889 270.701C229.889 270.57 229.859 270.449 229.801 270.338C229.745 270.224 229.629 270.121 229.453 270.03C229.28 269.935 229.019 269.854 228.67 269.785C228.376 269.723 228.11 269.65 227.872 269.565C227.637 269.48 227.436 269.377 227.27 269.256C227.107 269.136 226.981 268.994 226.893 268.831C226.805 268.667 226.761 268.476 226.761 268.258C226.761 268.049 226.806 267.851 226.898 267.665C226.992 267.479 227.125 267.315 227.294 267.171C227.467 267.027 227.675 266.915 227.916 266.833C228.158 266.752 228.427 266.711 228.724 266.711C229.148 266.711 229.51 266.786 229.81 266.936C230.111 267.086 230.341 267.287 230.501 267.538C230.661 267.786 230.741 268.062 230.741 268.365H229.835C229.835 268.219 229.791 268.077 229.703 267.94C229.618 267.799 229.492 267.683 229.326 267.592C229.163 267.501 228.962 267.455 228.724 267.455C228.472 267.455 228.268 267.494 228.112 267.572C227.958 267.647 227.846 267.744 227.774 267.861C227.706 267.979 227.671 268.103 227.671 268.233C227.671 268.331 227.688 268.419 227.72 268.498C227.756 268.573 227.818 268.643 227.906 268.708C227.994 268.77 228.118 268.829 228.278 268.884C228.438 268.94 228.642 268.995 228.89 269.051C229.324 269.149 229.682 269.266 229.962 269.403C230.243 269.54 230.452 269.708 230.589 269.907C230.726 270.107 230.794 270.348 230.794 270.632C230.794 270.864 230.745 271.076 230.648 271.268C230.553 271.461 230.414 271.627 230.231 271.768C230.052 271.905 229.837 272.012 229.585 272.091C229.337 272.166 229.058 272.203 228.748 272.203C228.282 272.203 227.887 272.12 227.564 271.954C227.24 271.787 226.996 271.572 226.829 271.308C226.663 271.043 226.58 270.764 226.58 270.47H227.49C227.503 270.718 227.575 270.916 227.706 271.063C227.836 271.206 227.996 271.309 228.185 271.371C228.375 271.43 228.562 271.459 228.748 271.459C228.996 271.459 229.203 271.427 229.37 271.361C229.54 271.296 229.669 271.206 229.757 271.092C229.845 270.978 229.889 270.847 229.889 270.701ZM235.107 271.2V268.473C235.107 268.264 235.065 268.083 234.98 267.93C234.898 267.773 234.774 267.652 234.608 267.568C234.441 267.483 234.236 267.44 233.991 267.44C233.763 267.44 233.562 267.479 233.389 267.558C233.219 267.636 233.085 267.739 232.988 267.866C232.893 267.993 232.846 268.13 232.846 268.277H231.94C231.94 268.088 231.989 267.9 232.087 267.714C232.185 267.528 232.325 267.36 232.508 267.21C232.694 267.057 232.916 266.936 233.174 266.848C233.435 266.757 233.725 266.711 234.045 266.711C234.43 266.711 234.769 266.776 235.063 266.907C235.36 267.037 235.592 267.235 235.758 267.499C235.928 267.76 236.013 268.088 236.013 268.483V270.95C236.013 271.126 236.028 271.314 236.057 271.513C236.09 271.712 236.137 271.884 236.199 272.027V272.105H235.254C235.208 272.001 235.172 271.862 235.146 271.689C235.12 271.513 235.107 271.35 235.107 271.2ZM235.264 268.894L235.274 269.531H234.358C234.1 269.531 233.87 269.552 233.668 269.594C233.466 269.633 233.296 269.694 233.159 269.775C233.022 269.857 232.917 269.96 232.846 270.084C232.774 270.204 232.738 270.346 232.738 270.51C232.738 270.676 232.775 270.828 232.85 270.965C232.926 271.102 233.038 271.211 233.188 271.293C233.342 271.371 233.529 271.41 233.751 271.41C234.029 271.41 234.273 271.352 234.486 271.234C234.698 271.117 234.866 270.973 234.99 270.803C235.117 270.634 235.186 270.469 235.195 270.309L235.582 270.745C235.559 270.882 235.497 271.033 235.396 271.2C235.295 271.366 235.159 271.526 234.99 271.68C234.823 271.83 234.624 271.955 234.392 272.057C234.164 272.154 233.906 272.203 233.619 272.203C233.26 272.203 232.945 272.133 232.674 271.993C232.407 271.853 232.198 271.665 232.048 271.43C231.901 271.192 231.827 270.926 231.827 270.632C231.827 270.348 231.883 270.098 231.994 269.883C232.105 269.664 232.265 269.483 232.474 269.34C232.682 269.193 232.934 269.082 233.227 269.007C233.521 268.932 233.849 268.894 234.211 268.894H235.264ZM240.869 266.809H241.691V271.993C241.691 272.46 241.597 272.858 241.407 273.187C241.218 273.517 240.954 273.767 240.614 273.936C240.278 274.109 239.89 274.196 239.449 274.196C239.267 274.196 239.051 274.166 238.803 274.108C238.558 274.052 238.317 273.956 238.079 273.819C237.844 273.685 237.646 273.504 237.486 273.275L237.961 272.737C238.183 273.005 238.415 273.191 238.656 273.295C238.901 273.399 239.143 273.452 239.381 273.452C239.668 273.452 239.916 273.398 240.125 273.29C240.334 273.182 240.495 273.023 240.61 272.81C240.727 272.602 240.786 272.344 240.786 272.037V267.974L240.869 266.809ZM237.222 269.516V269.413C237.222 269.008 237.269 268.641 237.364 268.312C237.462 267.979 237.601 267.693 237.78 267.455C237.963 267.217 238.183 267.034 238.441 266.907C238.699 266.776 238.989 266.711 239.312 266.711C239.645 266.711 239.936 266.77 240.184 266.887C240.435 267.001 240.647 267.169 240.82 267.391C240.996 267.61 241.135 267.874 241.236 268.184C241.337 268.494 241.407 268.845 241.447 269.237V269.687C241.411 270.076 241.341 270.425 241.236 270.735C241.135 271.045 240.996 271.309 240.82 271.528C240.647 271.746 240.435 271.915 240.184 272.032C239.932 272.146 239.639 272.203 239.302 272.203C238.986 272.203 238.699 272.136 238.441 272.003C238.186 271.869 237.968 271.681 237.785 271.44C237.602 271.198 237.462 270.914 237.364 270.588C237.269 270.258 237.222 269.901 237.222 269.516ZM238.128 269.413V269.516C238.128 269.78 238.154 270.028 238.206 270.26C238.261 270.492 238.345 270.696 238.456 270.872C238.57 271.048 238.715 271.187 238.891 271.288C239.068 271.386 239.278 271.435 239.523 271.435C239.823 271.435 240.071 271.371 240.267 271.244C240.463 271.117 240.618 270.949 240.732 270.74C240.849 270.531 240.941 270.304 241.006 270.059V268.879C240.97 268.7 240.915 268.527 240.84 268.361C240.768 268.191 240.673 268.041 240.556 267.91C240.441 267.776 240.3 267.67 240.13 267.592C239.96 267.514 239.761 267.475 239.533 267.475C239.285 267.475 239.071 267.527 238.891 267.631C238.715 267.732 238.57 267.873 238.456 268.052C238.345 268.228 238.261 268.434 238.206 268.669C238.154 268.901 238.128 269.149 238.128 269.413ZM245.265 272.203C244.896 272.203 244.562 272.141 244.261 272.017C243.964 271.89 243.708 271.712 243.493 271.484C243.281 271.255 243.118 270.984 243.003 270.671C242.889 270.358 242.832 270.015 242.832 269.643V269.438C242.832 269.007 242.896 268.623 243.023 268.287C243.15 267.948 243.323 267.661 243.542 267.426C243.76 267.191 244.009 267.013 244.286 266.892C244.563 266.771 244.851 266.711 245.147 266.711C245.526 266.711 245.852 266.776 246.127 266.907C246.404 267.037 246.631 267.22 246.807 267.455C246.983 267.687 247.114 267.961 247.199 268.277C247.283 268.591 247.326 268.933 247.326 269.305V269.712H243.37V268.972H246.42V268.904C246.407 268.669 246.358 268.441 246.273 268.219C246.192 267.997 246.061 267.814 245.882 267.67C245.702 267.527 245.458 267.455 245.147 267.455C244.942 267.455 244.753 267.499 244.58 267.587C244.407 267.672 244.258 267.799 244.134 267.969C244.01 268.139 243.914 268.346 243.845 268.591C243.777 268.835 243.743 269.118 243.743 269.438V269.643C243.743 269.894 243.777 270.131 243.845 270.353C243.917 270.572 244.02 270.764 244.154 270.931C244.291 271.097 244.456 271.228 244.648 271.322C244.844 271.417 245.066 271.464 245.314 271.464C245.634 271.464 245.905 271.399 246.127 271.268C246.348 271.138 246.543 270.963 246.709 270.745L247.257 271.18C247.143 271.353 246.998 271.518 246.822 271.675C246.645 271.831 246.428 271.959 246.171 272.057C245.916 272.154 245.614 272.203 245.265 272.203Z" fill="#6E7F9D"/>
<path d="M183.178 280.656V287.783H181.959V280.656H183.178ZM185.415 280.656V281.635H179.741V280.656H185.415ZM187.402 280.264V287.783H186.228V280.264H187.402ZM187.197 284.939L186.815 284.934C186.818 284.569 186.869 284.231 186.967 283.921C187.068 283.611 187.208 283.342 187.388 283.113C187.571 282.881 187.789 282.704 188.044 282.579C188.298 282.452 188.581 282.389 188.891 282.389C189.152 282.389 189.387 282.424 189.596 282.496C189.808 282.568 189.99 282.684 190.144 282.844C190.297 283 190.413 283.206 190.491 283.461C190.573 283.712 190.614 284.019 190.614 284.381V287.783H189.429V284.371C189.429 284.117 189.392 283.914 189.317 283.764C189.245 283.614 189.139 283.506 188.998 283.441C188.858 283.373 188.687 283.338 188.484 283.338C188.272 283.338 188.085 283.381 187.921 283.466C187.761 283.55 187.628 283.666 187.52 283.813C187.412 283.96 187.331 284.13 187.275 284.322C187.223 284.515 187.197 284.72 187.197 284.939ZM194.794 286.721V284.195C194.794 284.006 194.76 283.842 194.692 283.705C194.623 283.568 194.519 283.462 194.378 283.387C194.241 283.312 194.068 283.275 193.859 283.275C193.667 283.275 193.5 283.307 193.36 283.373C193.22 283.438 193.11 283.526 193.032 283.637C192.954 283.748 192.915 283.873 192.915 284.014H191.74C191.74 283.805 191.79 283.603 191.891 283.407C191.993 283.211 192.139 283.036 192.332 282.883C192.525 282.73 192.755 282.609 193.022 282.521C193.29 282.433 193.59 282.389 193.923 282.389C194.321 282.389 194.674 282.455 194.98 282.589C195.29 282.723 195.534 282.925 195.71 283.196C195.889 283.464 195.979 283.8 195.979 284.205V286.559C195.979 286.801 195.995 287.018 196.028 287.21C196.064 287.4 196.114 287.565 196.18 287.705V287.783H194.971C194.915 287.656 194.871 287.494 194.838 287.299C194.809 287.099 194.794 286.907 194.794 286.721ZM194.966 284.562L194.975 285.291H194.129C193.91 285.291 193.717 285.313 193.551 285.355C193.385 285.394 193.246 285.453 193.135 285.531C193.024 285.61 192.941 285.704 192.885 285.815C192.83 285.926 192.802 286.052 192.802 286.192C192.802 286.333 192.835 286.461 192.9 286.579C192.965 286.693 193.06 286.783 193.184 286.848C193.311 286.913 193.464 286.946 193.644 286.946C193.885 286.946 194.096 286.897 194.275 286.799C194.458 286.698 194.602 286.576 194.706 286.432C194.811 286.285 194.866 286.147 194.873 286.016L195.255 286.54C195.215 286.674 195.148 286.817 195.054 286.971C194.959 287.124 194.835 287.271 194.682 287.411C194.532 287.548 194.351 287.661 194.138 287.749C193.93 287.837 193.688 287.881 193.414 287.881C193.068 287.881 192.76 287.813 192.489 287.676C192.218 287.535 192.006 287.348 191.852 287.113C191.699 286.874 191.622 286.605 191.622 286.305C191.622 286.024 191.674 285.776 191.779 285.561C191.887 285.342 192.043 285.159 192.249 285.012C192.458 284.866 192.712 284.755 193.012 284.68C193.313 284.601 193.655 284.562 194.04 284.562H194.966ZM198.383 283.617V287.783H197.203V282.486H198.314L198.383 283.617ZM198.172 284.939L197.79 284.934C197.794 284.559 197.846 284.215 197.947 283.901C198.051 283.588 198.195 283.319 198.378 283.093C198.564 282.868 198.786 282.695 199.043 282.575C199.301 282.451 199.588 282.389 199.905 282.389C200.16 282.389 200.39 282.424 200.595 282.496C200.804 282.565 200.982 282.677 201.129 282.834C201.279 282.991 201.393 283.195 201.472 283.446C201.55 283.694 201.589 283.999 201.589 284.361V287.783H200.404V284.356C200.404 284.102 200.367 283.901 200.292 283.754C200.22 283.604 200.114 283.498 199.974 283.436C199.837 283.371 199.665 283.338 199.46 283.338C199.257 283.338 199.076 283.381 198.916 283.466C198.756 283.55 198.621 283.666 198.51 283.813C198.402 283.96 198.319 284.13 198.26 284.322C198.201 284.515 198.172 284.72 198.172 284.939ZM203.983 280.264V287.783H202.798V280.264H203.983ZM207.272 282.486L204.967 285.042L203.704 286.334L203.395 285.336L204.35 284.156L205.848 282.486H207.272ZM206.103 287.783L204.384 285.296L205.128 284.469L207.468 287.783H206.103ZM209.559 287.206L210.998 282.486H212.261L210.136 288.591C210.087 288.721 210.024 288.863 209.945 289.017C209.867 289.17 209.764 289.315 209.637 289.453C209.513 289.593 209.358 289.705 209.172 289.79C208.986 289.878 208.761 289.922 208.496 289.922C208.392 289.922 208.291 289.913 208.193 289.893C208.098 289.877 208.008 289.859 207.924 289.839L207.919 288.938C207.951 288.942 207.99 288.945 208.036 288.948C208.085 288.952 208.124 288.953 208.154 288.953C208.349 288.953 208.513 288.929 208.643 288.88C208.774 288.834 208.88 288.759 208.961 288.655C209.046 288.55 209.118 288.41 209.177 288.234L209.559 287.206ZM208.746 282.486L210.004 286.452L210.215 287.695L209.397 287.906L207.473 282.486H208.746ZM212.633 285.194V285.081C212.633 284.699 212.688 284.345 212.799 284.019C212.91 283.689 213.07 283.404 213.279 283.162C213.491 282.917 213.749 282.728 214.052 282.594C214.359 282.457 214.705 282.389 215.09 282.389C215.479 282.389 215.825 282.457 216.128 282.594C216.435 282.728 216.694 282.917 216.906 283.162C217.119 283.404 217.28 283.689 217.391 284.019C217.502 284.345 217.558 284.699 217.558 285.081V285.194C217.558 285.575 217.502 285.93 217.391 286.256C217.28 286.582 217.119 286.868 216.906 287.113C216.694 287.354 216.437 287.543 216.133 287.68C215.829 287.814 215.485 287.881 215.1 287.881C214.712 287.881 214.364 287.814 214.057 287.68C213.754 287.543 213.496 287.354 213.284 287.113C213.072 286.868 212.91 286.582 212.799 286.256C212.688 285.93 212.633 285.575 212.633 285.194ZM213.813 285.081V285.194C213.813 285.432 213.837 285.657 213.886 285.869C213.935 286.081 214.012 286.267 214.116 286.427C214.221 286.587 214.354 286.713 214.518 286.804C214.681 286.896 214.875 286.941 215.1 286.941C215.319 286.941 215.508 286.896 215.668 286.804C215.831 286.713 215.965 286.587 216.069 286.427C216.174 286.267 216.25 286.081 216.299 285.869C216.352 285.657 216.378 285.432 216.378 285.194V285.081C216.378 284.846 216.352 284.624 216.299 284.415C216.25 284.203 216.172 284.015 216.064 283.852C215.96 283.689 215.826 283.562 215.663 283.47C215.503 283.376 215.312 283.328 215.09 283.328C214.868 283.328 214.676 283.376 214.513 283.47C214.353 283.562 214.221 283.689 214.116 283.852C214.012 284.015 213.935 284.203 213.886 284.415C213.837 284.624 213.813 284.846 213.813 285.081ZM221.733 286.535V282.486H222.918V287.783H221.802L221.733 286.535ZM221.9 285.433L222.296 285.424C222.296 285.779 222.257 286.107 222.179 286.408C222.1 286.705 221.98 286.964 221.816 287.186C221.653 287.405 221.444 287.576 221.19 287.7C220.935 287.821 220.63 287.881 220.274 287.881C220.017 287.881 219.78 287.844 219.565 287.769C219.349 287.693 219.163 287.578 219.007 287.421C218.853 287.264 218.734 287.06 218.649 286.809C218.564 286.558 218.522 286.257 218.522 285.908V282.486H219.702V285.918C219.702 286.111 219.725 286.272 219.77 286.403C219.816 286.53 219.878 286.633 219.956 286.711C220.035 286.789 220.126 286.845 220.23 286.878C220.335 286.91 220.446 286.927 220.563 286.927C220.899 286.927 221.164 286.861 221.356 286.731C221.552 286.597 221.691 286.417 221.772 286.192C221.857 285.967 221.9 285.714 221.9 285.433ZM228.22 287.783H227.04V281.977C227.04 281.582 227.113 281.251 227.26 280.984C227.41 280.713 227.624 280.509 227.901 280.372C228.179 280.231 228.507 280.161 228.885 280.161C229.003 280.161 229.119 280.169 229.233 280.186C229.347 280.199 229.458 280.22 229.566 280.249L229.536 281.16C229.471 281.144 229.399 281.132 229.321 281.126C229.246 281.119 229.164 281.116 229.076 281.116C228.897 281.116 228.742 281.15 228.611 281.219C228.484 281.284 228.386 281.38 228.317 281.507C228.252 281.635 228.22 281.791 228.22 281.977V287.783ZM229.311 282.486V283.348H226.227V282.486H229.311ZM229.943 285.194V285.081C229.943 284.699 229.998 284.345 230.109 284.019C230.22 283.689 230.38 283.404 230.589 283.162C230.801 282.917 231.059 282.728 231.362 282.594C231.669 282.457 232.015 282.389 232.4 282.389C232.788 282.389 233.134 282.457 233.438 282.594C233.745 282.728 234.004 282.917 234.216 283.162C234.428 283.404 234.59 283.689 234.701 284.019C234.812 284.345 234.867 284.699 234.867 285.081V285.194C234.867 285.575 234.812 285.93 234.701 286.256C234.59 286.582 234.428 286.868 234.216 287.113C234.004 287.354 233.746 287.543 233.443 287.68C233.139 287.814 232.795 287.881 232.41 287.881C232.022 287.881 231.674 287.814 231.367 287.68C231.064 287.543 230.806 287.354 230.594 287.113C230.382 286.868 230.22 286.582 230.109 286.256C229.998 285.93 229.943 285.575 229.943 285.194ZM231.122 285.081V285.194C231.122 285.432 231.147 285.657 231.196 285.869C231.245 286.081 231.322 286.267 231.426 286.427C231.53 286.587 231.664 286.713 231.827 286.804C231.991 286.896 232.185 286.941 232.41 286.941C232.629 286.941 232.818 286.896 232.978 286.804C233.141 286.713 233.275 286.587 233.379 286.427C233.484 286.267 233.56 286.081 233.609 285.869C233.661 285.657 233.688 285.432 233.688 285.194V285.081C233.688 284.846 233.661 284.624 233.609 284.415C233.56 284.203 233.482 284.015 233.374 283.852C233.27 283.689 233.136 283.562 232.973 283.47C232.813 283.376 232.622 283.328 232.4 283.328C232.178 283.328 231.986 283.376 231.822 283.47C231.663 283.562 231.53 283.689 231.426 283.852C231.322 284.015 231.245 284.203 231.196 284.415C231.147 284.624 231.122 284.846 231.122 285.081ZM237.041 283.495V287.783H235.861V282.486H236.987L237.041 283.495ZM238.661 282.452L238.651 283.549C238.58 283.536 238.501 283.526 238.416 283.519C238.335 283.513 238.253 283.51 238.172 283.51C237.969 283.51 237.791 283.539 237.638 283.598C237.485 283.653 237.356 283.735 237.251 283.842C237.15 283.947 237.072 284.074 237.016 284.224C236.961 284.374 236.928 284.543 236.918 284.729L236.649 284.748C236.649 284.415 236.682 284.107 236.747 283.823C236.812 283.539 236.91 283.289 237.041 283.074C237.175 282.859 237.341 282.69 237.54 282.57C237.743 282.449 237.976 282.389 238.24 282.389C238.312 282.389 238.389 282.395 238.47 282.408C238.555 282.421 238.619 282.436 238.661 282.452ZM244.868 286.349C244.868 286.231 244.839 286.125 244.78 286.031C244.722 285.933 244.609 285.845 244.443 285.766C244.279 285.688 244.038 285.616 243.718 285.551C243.437 285.489 243.18 285.416 242.945 285.331C242.713 285.243 242.514 285.136 242.347 285.012C242.181 284.888 242.052 284.742 241.961 284.572C241.869 284.402 241.824 284.206 241.824 283.984C241.824 283.769 241.871 283.565 241.966 283.373C242.06 283.18 242.196 283.01 242.372 282.863C242.548 282.717 242.762 282.601 243.013 282.516C243.268 282.431 243.552 282.389 243.865 282.389C244.309 282.389 244.689 282.464 245.006 282.614C245.325 282.761 245.57 282.961 245.74 283.216C245.91 283.467 245.994 283.751 245.994 284.068H244.815C244.815 283.927 244.779 283.797 244.707 283.676C244.638 283.552 244.534 283.452 244.394 283.377C244.253 283.299 244.077 283.26 243.865 283.26C243.663 283.26 243.495 283.293 243.361 283.358C243.23 283.42 243.132 283.501 243.067 283.603C243.005 283.704 242.974 283.815 242.974 283.935C242.974 284.024 242.99 284.104 243.023 284.175C243.059 284.244 243.118 284.308 243.199 284.366C243.281 284.422 243.392 284.474 243.532 284.523C243.676 284.572 243.855 284.619 244.071 284.665C244.475 284.75 244.823 284.859 245.113 284.993C245.407 285.123 245.632 285.293 245.789 285.502C245.945 285.708 246.024 285.969 246.024 286.285C246.024 286.52 245.973 286.736 245.872 286.931C245.774 287.124 245.63 287.292 245.441 287.436C245.252 287.576 245.025 287.685 244.761 287.764C244.5 287.842 244.206 287.881 243.88 287.881C243.4 287.881 242.994 287.796 242.661 287.627C242.328 287.454 242.075 287.233 241.902 286.966C241.732 286.695 241.647 286.414 241.647 286.124H242.788C242.801 286.342 242.861 286.517 242.969 286.647C243.08 286.775 243.217 286.868 243.38 286.927C243.547 286.982 243.718 287.01 243.894 287.01C244.106 287.01 244.284 286.982 244.428 286.927C244.571 286.868 244.681 286.789 244.756 286.692C244.831 286.59 244.868 286.476 244.868 286.349ZM248.222 280.264V287.783H247.047V280.264H248.222ZM248.016 284.939L247.634 284.934C247.638 284.569 247.688 284.231 247.786 283.921C247.887 283.611 248.028 283.342 248.207 283.113C248.39 282.881 248.608 282.704 248.863 282.579C249.118 282.452 249.4 282.389 249.71 282.389C249.971 282.389 250.206 282.424 250.415 282.496C250.627 282.568 250.81 282.684 250.963 282.844C251.116 283 251.232 283.206 251.311 283.461C251.392 283.712 251.433 284.019 251.433 284.381V287.783H250.248V284.371C250.248 284.117 250.211 283.914 250.136 283.764C250.064 283.614 249.958 283.506 249.818 283.441C249.677 283.373 249.506 283.338 249.304 283.338C249.091 283.338 248.904 283.381 248.741 283.466C248.581 283.55 248.447 283.666 248.339 283.813C248.232 283.96 248.15 284.13 248.094 284.322C248.042 284.515 248.016 284.72 248.016 284.939ZM252.402 285.194V285.081C252.402 284.699 252.458 284.345 252.569 284.019C252.68 283.689 252.84 283.404 253.049 283.162C253.261 282.917 253.518 282.728 253.822 282.594C254.129 282.457 254.475 282.389 254.86 282.389C255.248 282.389 255.594 282.457 255.898 282.594C256.204 282.728 256.464 282.917 256.676 283.162C256.888 283.404 257.05 283.689 257.161 284.019C257.272 284.345 257.327 284.699 257.327 285.081V285.194C257.327 285.575 257.272 285.93 257.161 286.256C257.05 286.582 256.888 286.868 256.676 287.113C256.464 287.354 256.206 287.543 255.902 287.68C255.599 287.814 255.255 287.881 254.87 287.881C254.481 287.881 254.134 287.814 253.827 287.68C253.523 287.543 253.266 287.354 253.053 287.113C252.841 286.868 252.68 286.582 252.569 286.256C252.458 285.93 252.402 285.575 252.402 285.194ZM253.582 285.081V285.194C253.582 285.432 253.607 285.657 253.656 285.869C253.704 286.081 253.781 286.267 253.886 286.427C253.99 286.587 254.124 286.713 254.287 286.804C254.45 286.896 254.644 286.941 254.87 286.941C255.088 286.941 255.278 286.896 255.437 286.804C255.601 286.713 255.734 286.587 255.839 286.427C255.943 286.267 256.02 286.081 256.069 285.869C256.121 285.657 256.147 285.432 256.147 285.194V285.081C256.147 284.846 256.121 284.624 256.069 284.415C256.02 284.203 255.942 284.015 255.834 283.852C255.73 283.689 255.596 283.562 255.433 283.47C255.273 283.376 255.082 283.328 254.86 283.328C254.638 283.328 254.445 283.376 254.282 283.47C254.122 283.562 253.99 283.689 253.886 283.852C253.781 284.015 253.704 284.203 253.656 284.415C253.607 284.624 253.582 284.846 253.582 285.081ZM259.501 283.505V289.82H258.321V282.486H259.408L259.501 283.505ZM262.952 285.086V285.189C262.952 285.574 262.906 285.931 262.815 286.261C262.727 286.587 262.594 286.873 262.418 287.117C262.245 287.359 262.031 287.547 261.777 287.68C261.522 287.814 261.229 287.881 260.896 287.881C260.566 287.881 260.277 287.821 260.029 287.7C259.784 287.576 259.577 287.401 259.408 287.176C259.238 286.951 259.101 286.687 258.996 286.383C258.895 286.076 258.823 285.74 258.781 285.375V284.978C258.823 284.59 258.895 284.237 258.996 283.921C259.101 283.604 259.238 283.332 259.408 283.103C259.577 282.875 259.784 282.699 260.029 282.575C260.274 282.451 260.56 282.389 260.886 282.389C261.219 282.389 261.514 282.454 261.772 282.584C262.03 282.712 262.247 282.894 262.423 283.133C262.599 283.368 262.731 283.652 262.82 283.984C262.908 284.314 262.952 284.681 262.952 285.086ZM261.772 285.189V285.086C261.772 284.841 261.749 284.614 261.703 284.405C261.658 284.193 261.586 284.007 261.488 283.847C261.39 283.687 261.264 283.563 261.111 283.475C260.961 283.384 260.78 283.338 260.568 283.338C260.359 283.338 260.179 283.374 260.029 283.446C259.879 283.514 259.753 283.611 259.652 283.735C259.551 283.859 259.473 284.004 259.417 284.17C259.362 284.334 259.323 284.512 259.3 284.704V285.654C259.339 285.889 259.406 286.104 259.501 286.3C259.595 286.496 259.729 286.652 259.902 286.77C260.078 286.884 260.303 286.941 260.577 286.941C260.79 286.941 260.971 286.896 261.121 286.804C261.271 286.713 261.393 286.587 261.488 286.427C261.586 286.264 261.658 286.076 261.703 285.864C261.749 285.652 261.772 285.427 261.772 285.189ZM265.14 283.505V289.82H263.96V282.486H265.047L265.14 283.505ZM268.591 285.086V285.189C268.591 285.574 268.545 285.931 268.454 286.261C268.366 286.587 268.234 286.873 268.058 287.117C267.885 287.359 267.671 287.547 267.416 287.68C267.162 287.814 266.868 287.881 266.535 287.881C266.205 287.881 265.917 287.821 265.669 287.7C265.424 287.576 265.217 287.401 265.047 287.176C264.877 286.951 264.74 286.687 264.636 286.383C264.535 286.076 264.463 285.74 264.42 285.375V284.978C264.463 284.59 264.535 284.237 264.636 283.921C264.74 283.604 264.877 283.332 265.047 283.103C265.217 282.875 265.424 282.699 265.669 282.575C265.913 282.451 266.199 282.389 266.525 282.389C266.858 282.389 267.154 282.454 267.411 282.584C267.669 282.712 267.886 282.894 268.062 283.133C268.239 283.368 268.371 283.652 268.459 283.984C268.547 284.314 268.591 284.681 268.591 285.086ZM267.411 285.189V285.086C267.411 284.841 267.389 284.614 267.343 284.405C267.297 284.193 267.225 284.007 267.127 283.847C267.03 283.687 266.904 283.563 266.75 283.475C266.6 283.384 266.419 283.338 266.207 283.338C265.998 283.338 265.819 283.374 265.669 283.446C265.518 283.514 265.393 283.611 265.292 283.735C265.191 283.859 265.112 284.004 265.057 284.17C265.001 284.334 264.962 284.512 264.939 284.704V285.654C264.978 285.889 265.045 286.104 265.14 286.3C265.235 286.496 265.368 286.652 265.541 286.77C265.718 286.884 265.943 286.941 266.217 286.941C266.429 286.941 266.61 286.896 266.76 286.804C266.91 286.713 267.033 286.587 267.127 286.427C267.225 286.264 267.297 286.076 267.343 285.864C267.389 285.652 267.411 285.427 267.411 285.189ZM270.858 282.486V287.783H269.673V282.486H270.858ZM269.595 281.096C269.595 280.917 269.653 280.768 269.771 280.651C269.892 280.53 270.058 280.47 270.27 280.47C270.479 280.47 270.644 280.53 270.765 280.651C270.885 280.768 270.946 280.917 270.946 281.096C270.946 281.272 270.885 281.419 270.765 281.537C270.644 281.654 270.479 281.713 270.27 281.713C270.058 281.713 269.892 281.654 269.771 281.537C269.653 281.419 269.595 281.272 269.595 281.096ZM273.32 283.617V287.783H272.14V282.486H273.251L273.32 283.617ZM273.109 284.939L272.728 284.934C272.731 284.559 272.783 284.215 272.884 283.901C272.989 283.588 273.132 283.319 273.315 283.093C273.501 282.868 273.723 282.695 273.981 282.575C274.239 282.451 274.526 282.389 274.842 282.389C275.097 282.389 275.327 282.424 275.533 282.496C275.742 282.565 275.919 282.677 276.066 282.834C276.216 282.991 276.331 283.195 276.409 283.446C276.487 283.694 276.526 283.999 276.526 284.361V287.783H275.342V284.356C275.342 284.102 275.304 283.901 275.229 283.754C275.157 283.604 275.051 283.498 274.911 283.436C274.774 283.371 274.603 283.338 274.397 283.338C274.195 283.338 274.013 283.381 273.854 283.466C273.694 283.55 273.558 283.666 273.447 283.813C273.34 283.96 273.256 284.13 273.198 284.322C273.139 284.515 273.109 284.72 273.109 284.939ZM281.123 282.486H282.195V287.636C282.195 288.113 282.094 288.517 281.892 288.85C281.689 289.183 281.407 289.436 281.045 289.609C280.683 289.785 280.263 289.873 279.787 289.873C279.584 289.873 279.359 289.844 279.111 289.785C278.866 289.727 278.628 289.632 278.396 289.501C278.168 289.374 277.977 289.206 277.824 288.997L278.377 288.302C278.566 288.527 278.775 288.692 279.003 288.797C279.232 288.901 279.472 288.953 279.723 288.953C279.994 288.953 280.224 288.903 280.413 288.801C280.606 288.704 280.754 288.558 280.859 288.366C280.963 288.173 281.015 287.938 281.015 287.661V283.686L281.123 282.486ZM277.525 285.194V285.091C277.525 284.689 277.574 284.324 277.672 283.994C277.77 283.661 277.91 283.376 278.093 283.138C278.276 282.896 278.498 282.712 278.759 282.584C279.02 282.454 279.315 282.389 279.645 282.389C279.987 282.389 280.279 282.451 280.521 282.575C280.766 282.699 280.97 282.876 281.133 283.108C281.296 283.337 281.423 283.611 281.515 283.931C281.609 284.247 281.68 284.6 281.725 284.988V285.316C281.683 285.695 281.611 286.04 281.51 286.354C281.409 286.667 281.275 286.938 281.108 287.166C280.942 287.395 280.736 287.571 280.492 287.695C280.25 287.819 279.965 287.881 279.635 287.881C279.312 287.881 279.02 287.814 278.759 287.68C278.501 287.547 278.279 287.359 278.093 287.117C277.91 286.876 277.77 286.592 277.672 286.266C277.574 285.936 277.525 285.579 277.525 285.194ZM278.705 285.091V285.194C278.705 285.435 278.728 285.66 278.773 285.869C278.822 286.078 278.896 286.262 278.994 286.422C279.095 286.579 279.222 286.703 279.375 286.794C279.532 286.882 279.717 286.927 279.929 286.927C280.206 286.927 280.433 286.868 280.609 286.75C280.789 286.633 280.926 286.475 281.02 286.275C281.118 286.073 281.187 285.848 281.226 285.6V284.714C281.206 284.521 281.166 284.342 281.104 284.175C281.045 284.009 280.965 283.864 280.864 283.74C280.762 283.612 280.635 283.514 280.482 283.446C280.328 283.374 280.147 283.338 279.938 283.338C279.726 283.338 279.542 283.384 279.385 283.475C279.229 283.567 279.1 283.692 278.999 283.852C278.901 284.012 278.827 284.198 278.778 284.41C278.729 284.622 278.705 284.849 278.705 285.091ZM284.78 280.656L284.662 285.683H283.654L283.532 280.656H284.78ZM283.497 287.225C283.497 287.046 283.556 286.896 283.674 286.775C283.794 286.651 283.961 286.589 284.173 286.589C284.382 286.589 284.547 286.651 284.667 286.775C284.788 286.896 284.848 287.046 284.848 287.225C284.848 287.398 284.788 287.547 284.667 287.671C284.547 287.791 284.382 287.852 284.173 287.852C283.961 287.852 283.794 287.791 283.674 287.671C283.556 287.547 283.497 287.398 283.497 287.225Z" fill="#4D8CFF"/>
<g filter="url(#filter1_d_17414_10036)">
<circle cx="379.785" cy="222.773" r="7.71199" fill="white"/>
</g>
<path fill-rule="evenodd" clip-rule="evenodd" d="M382.877 226.291L376.932 220.24L377.472 219.689L383.417 225.741L382.877 226.291Z" fill="#999999"/>
<path fill-rule="evenodd" clip-rule="evenodd" d="M383.186 220.356L377.241 226.408L376.701 225.857L382.646 219.806L383.186 220.356Z" fill="#999999"/>
<path d="M277.538 176.269C277.538 178.386 275.814 180.108 273.682 180.108C271.549 180.108 269.826 178.386 269.826 176.269C269.826 174.153 271.549 172.431 273.682 172.431C275.814 172.431 277.538 174.153 277.538 176.269Z" fill="white" stroke="#95A1AC" stroke-width="1.5424"/>
<path d="M273.682 180.879V218.573" stroke="#95A1AC" stroke-width="0.771199"/>
<path d="M277.538 223.182C277.538 225.299 275.814 227.02 273.682 227.02C271.549 227.02 269.826 225.299 269.826 223.182C269.826 221.065 271.549 219.343 273.682 219.343C275.814 219.343 277.538 221.065 277.538 223.182Z" fill="#1BB644" stroke="white" stroke-width="1.5424"/>
<defs>
<filter id="filter0_d_17414_10036" x="365.904" y="99.9015" width="27.763" height="27.763" filterUnits="userSpaceOnUse" color-interpolation-filters="sRGB">
<feFlood flood-opacity="0" result="BackgroundImageFix"/>
<feColorMatrix in="SourceAlpha" type="matrix" values="0 0 0 0 0 0 0 0 0 0 0 0 0 0 0 0 0 0 127 0" result="hardAlpha"/>
<feOffset dy="3.0848"/>
<feGaussianBlur stdDeviation="3.0848"/>
<feComposite in2="hardAlpha" operator="out"/>
<feColorMatrix type="matrix" values="0 0 0 0 0 0 0 0 0 0 0 0 0 0 0 0 0 0 0.1 0"/>
<feBlend mode="normal" in2="BackgroundImageFix" result="effect1_dropShadow_17414_10036"/>
<feBlend mode="normal" in="SourceGraphic" in2="effect1_dropShadow_17414_10036" result="shape"/>
</filter>
<filter id="filter1_d_17414_10036" x="365.904" y="211.976" width="27.763" height="27.763" filterUnits="userSpaceOnUse" color-interpolation-filters="sRGB">
<feFlood flood-opacity="0" result="BackgroundImageFix"/>
<feColorMatrix in="SourceAlpha" type="matrix" values="0 0 0 0 0 0 0 0 0 0 0 0 0 0 0 0 0 0 127 0" result="hardAlpha"/>
<feOffset dy="3.0848"/>
<feGaussianBlur stdDeviation="3.0848"/>
<feComposite in2="hardAlpha" operator="out"/>
<feColorMatrix type="matrix" values="0 0 0 0 0 0 0 0 0 0 0 0 0 0 0 0 0 0 0.1 0"/>
<feBlend mode="normal" in2="BackgroundImageFix" result="effect1_dropShadow_17414_10036"/>
<feBlend mode="normal" in="SourceGraphic" in2="effect1_dropShadow_17414_10036" result="shape"/>
</filter>
</defs>
</svg>
