<svg width="548" height="416" viewBox="0 0 548 416" fill="none" xmlns="http://www.w3.org/2000/svg">
<rect x="0.681641" y="1.08984" width="546" height="414" rx="11.5" fill="#FAFCFF" stroke="#EAEBED"/>
<rect x="173.682" y="53.7734" width="200" height="60.3911" rx="6.29922" fill="white"/>
<rect x="173.682" y="53.7734" width="200" height="60.3911" rx="6.29922" stroke="#E0E0E0" stroke-width="0.787402"/>
<rect x="185.268" y="64.6348" width="18.8274" height="18.8274" rx="4.34479" fill="#1A73E8"/>
<path d="M200.178 70.2067C199.945 69.9429 199.609 69.7913 199.256 69.7907C198.234 69.7887 197.195 69.7892 196.19 69.7894C195.774 69.7894 195.358 69.7898 194.942 69.7898H194.245C193.395 69.7894 192.517 69.7892 191.652 69.7924C191.589 69.7928 191.585 69.7889 191.571 69.7263C191.511 69.4477 191.444 69.166 191.38 68.8936C191.361 68.8131 191.341 68.7325 191.322 68.6519C191.26 68.3852 191.098 68.2551 190.827 68.2547C190.297 68.2536 189.822 68.2536 189.373 68.2547C189.23 68.2551 189.102 68.3053 189.013 68.3958C188.931 68.4794 188.885 68.5932 188.886 68.7167C188.888 68.9802 189.094 69.1721 189.378 69.1729C189.455 69.1731 189.531 69.1738 189.608 69.1742C189.869 69.1757 190.139 69.1772 190.405 69.1701C190.498 69.1677 190.513 69.1788 190.533 69.2688C190.769 70.2983 191.014 71.3437 191.25 72.3548C191.326 72.6788 191.402 73.0025 191.478 73.3265C191.56 73.6784 191.642 74.0303 191.725 74.3866L191.821 74.8011C191.815 74.8022 191.81 74.8031 191.804 74.8042C191.481 74.8588 191.2 75.0383 191.011 75.3098C190.823 75.5787 190.753 75.9023 190.811 76.2211C190.923 76.8263 191.419 77.2333 192.044 77.2337C193.002 77.2341 193.96 77.2341 194.918 77.2341H198.443H198.46C198.479 77.2341 198.499 77.2343 198.52 77.2328C198.748 77.2179 198.933 77.0365 198.951 76.8112C198.969 76.5823 198.814 76.3738 198.591 76.3265C198.536 76.3148 198.483 76.3151 198.431 76.3155H198.409C196.786 76.3151 195.162 76.3151 193.538 76.3151H192.117C192.105 76.3151 192.093 76.3151 192.081 76.3151C192.05 76.3155 192.02 76.3159 191.992 76.3138C191.843 76.3025 191.721 76.1831 191.707 76.0358C191.693 75.8865 191.783 75.7546 191.924 75.7148C191.976 75.7003 192.035 75.6993 192.092 75.699C193.237 75.6986 194.383 75.6986 195.528 75.6986C196.488 75.6984 197.448 75.6984 198.408 75.6982C199.037 75.6982 199.499 75.3325 199.643 74.7204C199.83 73.9287 200.034 73.0585 200.285 71.9813C200.302 71.907 200.321 71.8314 200.339 71.7584C200.391 71.5547 200.443 71.3439 200.469 71.1311C200.508 70.7979 200.402 70.4607 200.178 70.2065V70.2067ZM199.539 71.1651C199.261 72.3517 198.988 73.5155 198.757 74.4972C198.71 74.6977 198.61 74.7793 198.41 74.7793C197.653 74.7795 196.897 74.7798 196.14 74.7798C195.026 74.7798 193.912 74.78 192.799 74.7806C192.789 74.7804 192.764 74.7806 192.756 74.7778C192.755 74.7757 192.751 74.7687 192.747 74.7532C192.506 73.7145 192.259 72.6589 192.02 71.6381L191.802 70.7093V70.7087H199.174C199.326 70.7087 199.438 70.7495 199.499 70.8268C199.575 70.9231 199.563 71.064 199.539 71.1651Z" fill="white"/>
<path d="M193.158 77.543C192.522 77.544 192.011 78.0624 192.013 78.7046C192.015 79.3306 192.531 79.8461 193.155 79.8455C193.787 79.8448 194.299 79.3308 194.3 78.696C194.301 78.0611 193.787 77.5421 193.158 77.543ZM193.167 79.0772C192.954 79.0828 192.776 78.9091 192.776 78.6953C192.775 78.4862 192.944 78.3139 193.152 78.3111C193.359 78.3082 193.534 78.4797 193.537 78.6871C193.54 78.8968 193.374 79.072 193.167 79.0772Z" fill="white"/>
<path d="M197.36 77.543C196.727 77.541 196.213 78.0514 196.208 78.686C196.202 79.3193 196.716 79.8438 197.343 79.8455C197.976 79.8474 198.492 79.336 198.495 78.7027C198.498 78.0663 197.988 77.5449 197.36 77.543ZM197.352 79.0774C197.139 79.0776 196.966 78.8999 196.971 78.6858C196.975 78.4772 197.148 78.3089 197.357 78.3111C197.563 78.313 197.734 78.489 197.732 78.6966C197.73 78.9063 197.56 79.077 197.352 79.0774Z" fill="white"/>
<path fill-rule="evenodd" clip-rule="evenodd" d="M195.551 70.9922C195.798 70.9922 195.997 71.192 195.997 71.4384V74.0464C195.997 74.2929 195.798 74.4927 195.551 74.4927C195.305 74.4927 195.105 74.2929 195.105 74.0464V71.4384C195.105 71.192 195.305 70.9922 195.551 70.9922Z" fill="white"/>
<path fill-rule="evenodd" clip-rule="evenodd" d="M197.3 72.7431C197.3 72.9896 197.101 73.1894 196.854 73.1894L194.246 73.1894C194 73.1894 193.8 72.9896 193.8 72.7431C193.8 72.4967 194 72.2969 194.246 72.2969L196.854 72.2969C197.101 72.2969 197.3 72.4967 197.3 72.7431Z" fill="white"/>
<path d="M213.586 69.8415V77.0488H212.353V69.8415H213.586ZM215.848 69.8415V70.8315H210.111V69.8415H215.848ZM217.42 72.7125V77.0488H216.227V71.6928H217.365L217.42 72.7125ZM219.058 71.6582L219.048 72.767C218.976 72.7538 218.897 72.7439 218.811 72.7373C218.728 72.7307 218.646 72.7274 218.563 72.7274C218.359 72.7274 218.179 72.7571 218.024 72.8165C217.869 72.8726 217.738 72.9551 217.633 73.064C217.53 73.1696 217.451 73.2983 217.395 73.4501C217.339 73.6019 217.306 73.7719 217.296 73.96L217.024 73.9798C217.024 73.6431 217.057 73.3313 217.123 73.0442C217.189 72.7571 217.288 72.5046 217.42 72.2868C217.555 72.069 217.723 71.8991 217.925 71.777C218.129 71.6549 218.365 71.5938 218.633 71.5938C218.705 71.5938 218.783 71.6004 218.865 71.6136C218.951 71.6268 219.015 71.6417 219.058 71.6582ZM220.982 71.6928V77.0488H219.784V71.6928H220.982ZM219.704 70.287C219.704 70.1055 219.764 69.9553 219.883 69.8365C220.005 69.7144 220.173 69.6534 220.388 69.6534C220.599 69.6534 220.765 69.7144 220.888 69.8365C221.01 69.9553 221.071 70.1055 221.071 70.287C221.071 70.4652 221.01 70.6137 220.888 70.7325C220.765 70.8513 220.599 70.9107 220.388 70.9107C220.173 70.9107 220.005 70.8513 219.883 70.7325C219.764 70.6137 219.704 70.4652 219.704 70.287ZM225.617 71.6928H226.702V76.9003C226.702 77.3821 226.599 77.7913 226.395 78.128C226.19 78.4646 225.905 78.7203 225.538 78.8952C225.172 79.0734 224.748 79.1625 224.266 79.1625C224.061 79.1625 223.834 79.1328 223.583 79.0734C223.335 79.014 223.095 78.9183 222.86 78.7863C222.629 78.6576 222.436 78.4877 222.281 78.2765L222.84 77.5735C223.032 77.8012 223.243 77.9679 223.474 78.0735C223.705 78.1791 223.948 78.2319 224.202 78.2319C224.476 78.2319 224.708 78.1808 224.9 78.0785C225.094 77.9794 225.245 77.8326 225.35 77.6379C225.456 77.4432 225.509 77.2056 225.509 76.9251V72.9056L225.617 71.6928ZM221.979 74.4302V74.3263C221.979 73.9204 222.029 73.5507 222.128 73.2174C222.227 72.8808 222.369 72.5921 222.553 72.3512C222.738 72.107 222.963 71.9205 223.227 71.7918C223.491 71.6598 223.789 71.5938 224.123 71.5938C224.469 71.5938 224.764 71.6565 225.009 71.7819C225.256 71.9073 225.462 72.0872 225.627 72.3215C225.792 72.5525 225.921 72.8297 226.013 73.1531C226.109 73.4732 226.18 73.8296 226.226 74.2223V74.554C226.183 74.9368 226.111 75.2866 226.009 75.6034C225.906 75.9202 225.771 76.1941 225.603 76.4251C225.434 76.6561 225.226 76.8343 224.979 76.9597C224.735 77.0851 224.446 77.1478 224.113 77.1478C223.786 77.1478 223.491 77.0802 223.227 76.9449C222.966 76.8096 222.741 76.6198 222.553 76.3756C222.369 76.1314 222.227 75.8443 222.128 75.5143C222.029 75.181 221.979 74.8196 221.979 74.4302ZM223.172 74.3263V74.4302C223.172 74.6744 223.195 74.9021 223.241 75.1133C223.291 75.3245 223.365 75.511 223.464 75.6727C223.566 75.8311 223.695 75.9565 223.85 76.0489C224.009 76.138 224.195 76.1826 224.41 76.1826C224.69 76.1826 224.92 76.1232 225.098 76.0044C225.279 75.8856 225.418 75.7255 225.514 75.5242C225.613 75.3196 225.682 75.0919 225.721 74.8411V73.9451C225.702 73.7504 225.66 73.5689 225.598 73.4006C225.538 73.2323 225.457 73.0854 225.355 72.96C225.253 72.8313 225.124 72.7323 224.969 72.663C224.814 72.5904 224.631 72.5541 224.42 72.5541C224.205 72.5541 224.019 72.6003 223.86 72.6927C223.702 72.7851 223.571 72.9122 223.469 73.0739C223.37 73.2356 223.296 73.4237 223.246 73.6382C223.197 73.8527 223.172 74.0821 223.172 74.3263ZM231.268 71.6928H232.352V76.9003C232.352 77.3821 232.25 77.7913 232.045 78.128C231.841 78.4646 231.555 78.7203 231.189 78.8952C230.823 79.0734 230.399 79.1625 229.917 79.1625C229.712 79.1625 229.484 79.1328 229.234 79.0734C228.986 79.014 228.745 78.9183 228.511 78.7863C228.28 78.6576 228.087 78.4877 227.932 78.2765L228.491 77.5735C228.683 77.8012 228.894 77.9679 229.125 78.0735C229.356 78.1791 229.598 78.2319 229.852 78.2319C230.126 78.2319 230.359 78.1808 230.55 78.0785C230.745 77.9794 230.895 77.8326 231.001 77.6379C231.106 77.4432 231.159 77.2056 231.159 76.9251V72.9056L231.268 71.6928ZM227.63 74.4302V74.3263C227.63 73.9204 227.679 73.5507 227.778 73.2174C227.877 72.8808 228.019 72.5921 228.204 72.3512C228.389 72.107 228.613 71.9205 228.877 71.7918C229.141 71.6598 229.44 71.5938 229.773 71.5938C230.12 71.5938 230.415 71.6565 230.659 71.7819C230.907 71.9073 231.113 72.0872 231.278 72.3215C231.443 72.5525 231.572 72.8297 231.664 73.1531C231.76 73.4732 231.831 73.8296 231.877 74.2223V74.554C231.834 74.9368 231.761 75.2866 231.659 75.6034C231.557 75.9202 231.422 76.1941 231.253 76.4251C231.085 76.6561 230.877 76.8343 230.63 76.9597C230.385 77.0851 230.097 77.1478 229.763 77.1478C229.437 77.1478 229.141 77.0802 228.877 76.9449C228.617 76.8096 228.392 76.6198 228.204 76.3756C228.019 76.1314 227.877 75.8443 227.778 75.5143C227.679 75.181 227.63 74.8196 227.63 74.4302ZM228.823 74.3263V74.4302C228.823 74.6744 228.846 74.9021 228.892 75.1133C228.942 75.3245 229.016 75.511 229.115 75.6727C229.217 75.8311 229.346 75.9565 229.501 76.0489C229.659 76.138 229.846 76.1826 230.06 76.1826C230.341 76.1826 230.57 76.1232 230.748 76.0044C230.93 75.8856 231.068 75.7255 231.164 75.5242C231.263 75.3196 231.332 75.0919 231.372 74.8411V73.9451C231.352 73.7504 231.311 73.5689 231.248 73.4006C231.189 73.2323 231.108 73.0854 231.006 72.96C230.903 72.8313 230.775 72.7323 230.62 72.663C230.465 72.5904 230.281 72.5541 230.07 72.5541C229.856 72.5541 229.669 72.6003 229.511 72.6927C229.352 72.7851 229.222 72.9122 229.12 73.0739C229.021 73.2356 228.947 73.4237 228.897 73.6382C228.848 73.8527 228.823 74.0821 228.823 74.3263ZM235.85 77.1478C235.454 77.1478 235.095 77.0835 234.775 76.9548C234.459 76.8228 234.188 76.6396 233.964 76.4053C233.742 76.171 233.573 75.8955 233.454 75.5786C233.335 75.2618 233.275 74.9203 233.275 74.554V74.356C233.275 73.9369 233.337 73.5573 233.459 73.2174C233.581 72.8775 233.751 72.5871 233.969 72.3462C234.186 72.102 234.444 71.9156 234.741 71.7869C235.038 71.6582 235.359 71.5938 235.706 71.5938C236.089 71.5938 236.424 71.6582 236.711 71.7869C236.998 71.9156 237.236 72.0971 237.424 72.3314C237.615 72.5624 237.757 72.8379 237.849 73.158C237.945 73.4781 237.993 73.8313 237.993 74.2174V74.7272H233.855V73.8709H236.815V73.7768C236.808 73.5623 236.765 73.361 236.686 73.1729C236.61 72.9848 236.493 72.833 236.335 72.7175C236.176 72.602 235.965 72.5442 235.701 72.5442C235.503 72.5442 235.326 72.5871 235.171 72.6729C235.02 72.7554 234.893 72.8759 234.79 73.0343C234.688 73.1927 234.609 73.3841 234.553 73.6085C234.5 73.8296 234.473 74.0788 234.473 74.356V74.554C234.473 74.7883 234.505 75.0061 234.567 75.2074C234.633 75.4054 234.729 75.5786 234.855 75.7271C234.98 75.8757 235.132 75.9928 235.31 76.0786C235.488 76.1611 235.691 76.2024 235.919 76.2024C236.206 76.2024 236.462 76.1446 236.686 76.0291C236.911 75.9136 237.105 75.7502 237.27 75.539L237.899 76.1479C237.783 76.3162 237.633 76.4779 237.448 76.633C237.264 76.7848 237.038 76.9086 236.77 77.0043C236.506 77.1 236.199 77.1478 235.85 77.1478ZM240.02 72.7125V77.0488H238.827V71.6928H239.966L240.02 72.7125ZM241.659 71.6582L241.649 72.767C241.576 72.7538 241.497 72.7439 241.411 72.7373C241.329 72.7307 241.246 72.7274 241.164 72.7274C240.959 72.7274 240.779 72.7571 240.624 72.8165C240.469 72.8726 240.339 72.9551 240.233 73.064C240.131 73.1696 240.051 73.2983 239.995 73.4501C239.939 73.6019 239.906 73.7719 239.896 73.96L239.624 73.9798C239.624 73.6431 239.657 73.3313 239.723 73.0442C239.789 72.7571 239.888 72.5046 240.02 72.2868C240.155 72.069 240.324 71.8991 240.525 71.777C240.73 71.6549 240.966 71.5938 241.233 71.5938C241.306 71.5938 241.383 71.6004 241.466 71.6136C241.551 71.6268 241.616 71.6417 241.659 71.6582Z" fill="#1A73E8"/>
<path d="M191.747 95.9014V96.2974C191.747 96.842 191.676 97.3304 191.534 97.7627C191.393 98.195 191.19 98.5629 190.926 98.8666C190.665 99.1702 190.351 99.4028 189.985 99.5645C189.619 99.7229 189.213 99.8021 188.767 99.8021C188.325 99.8021 187.921 99.7229 187.555 99.5645C187.192 99.4028 186.876 99.1702 186.609 98.8666C186.342 98.5629 186.134 98.195 185.985 97.7627C185.84 97.3304 185.768 96.842 185.768 96.2974V95.9014C185.768 95.3569 185.84 94.8702 185.985 94.4412C186.131 94.0088 186.335 93.6409 186.599 93.3373C186.866 93.0304 187.182 92.7977 187.545 92.6393C187.911 92.4776 188.315 92.3968 188.757 92.3968C189.203 92.3968 189.609 92.4776 189.975 92.6393C190.341 92.7977 190.657 93.0304 190.921 93.3373C191.185 93.6409 191.388 94.0088 191.529 94.4412C191.675 94.8702 191.747 95.3569 191.747 95.9014ZM190.505 96.2974V95.8915C190.505 95.4889 190.465 95.1342 190.386 94.8273C190.31 94.5171 190.196 94.258 190.044 94.0501C189.896 93.8389 189.713 93.6805 189.495 93.5749C189.277 93.466 189.031 93.4115 188.757 93.4115C188.484 93.4115 188.239 93.466 188.025 93.5749C187.81 93.6805 187.627 93.8389 187.475 94.0501C187.327 94.258 187.213 94.5171 187.134 94.8273C187.055 95.1342 187.015 95.4889 187.015 95.8915V96.2974C187.015 96.7001 187.055 97.0565 187.134 97.3667C187.213 97.6769 187.328 97.9392 187.48 98.1537C187.635 98.3649 187.82 98.525 188.035 98.6339C188.249 98.7395 188.493 98.7923 188.767 98.7923C189.045 98.7923 189.29 98.7395 189.505 98.6339C189.719 98.525 189.901 98.3649 190.049 98.1537C190.198 97.9392 190.31 97.6769 190.386 97.3667C190.465 97.0565 190.505 96.7001 190.505 96.2974ZM193.968 95.3668V99.7031H192.775V94.3471H193.913L193.968 95.3668ZM195.606 94.3125L195.596 95.4213C195.523 95.4081 195.444 95.3982 195.358 95.3916C195.276 95.385 195.193 95.3817 195.111 95.3817C194.906 95.3817 194.727 95.4114 194.571 95.4708C194.416 95.5269 194.286 95.6094 194.18 95.7183C194.078 95.8239 193.999 95.9526 193.943 96.1044C193.887 96.2562 193.854 96.4261 193.844 96.6143L193.571 96.6341C193.571 96.2974 193.604 95.9856 193.67 95.6985C193.736 95.4114 193.835 95.1589 193.968 94.9411C194.103 94.7233 194.271 94.5534 194.472 94.4313C194.677 94.3092 194.913 94.2481 195.18 94.2481C195.253 94.2481 195.33 94.2547 195.413 94.2679C195.499 94.2811 195.563 94.296 195.606 94.3125ZM199.42 98.5943V92.0997H200.618V99.7031H199.534L199.42 98.5943ZM195.935 97.0845V96.9806C195.935 96.5747 195.983 96.205 196.079 95.8717C196.175 95.5351 196.313 95.2464 196.495 95.0055C196.676 94.7613 196.897 94.5748 197.158 94.4461C197.419 94.3141 197.712 94.2481 198.039 94.2481C198.362 94.2481 198.646 94.3108 198.89 94.4362C199.135 94.5616 199.343 94.7415 199.514 94.9758C199.686 95.2068 199.823 95.484 199.925 95.8074C200.027 96.1275 200.1 96.4839 200.143 96.8766V97.2083C200.1 97.5911 200.027 97.9409 199.925 98.2577C199.823 98.5745 199.686 98.8484 199.514 99.0794C199.343 99.3104 199.133 99.4886 198.886 99.614C198.641 99.7394 198.356 99.8021 198.029 99.8021C197.706 99.8021 197.414 99.7345 197.153 99.5992C196.896 99.4639 196.676 99.2741 196.495 99.0299C196.313 98.7857 196.175 98.4986 196.079 98.1686C195.983 97.8353 195.935 97.4739 195.935 97.0845ZM197.128 96.9806V97.0845C197.128 97.3287 197.15 97.5564 197.193 97.7676C197.239 97.9788 197.31 98.1653 197.405 98.327C197.501 98.4854 197.625 98.6108 197.777 98.7032C197.932 98.7923 198.117 98.8369 198.331 98.8369C198.602 98.8369 198.824 98.7775 198.999 98.6587C199.174 98.5398 199.311 98.3798 199.41 98.1785C199.513 97.9739 199.582 97.7462 199.618 97.4954V96.5994C199.598 96.4047 199.557 96.2232 199.494 96.0549C199.435 95.8866 199.354 95.7397 199.252 95.6143C199.15 95.4856 199.022 95.3866 198.871 95.3173C198.722 95.2447 198.546 95.2084 198.341 95.2084C198.123 95.2084 197.938 95.2546 197.787 95.347C197.635 95.4394 197.509 95.5665 197.41 95.7282C197.315 95.8899 197.244 96.078 197.198 96.2925C197.151 96.507 197.128 96.7364 197.128 96.9806ZM204.125 99.8021C203.729 99.8021 203.371 99.7378 203.051 99.6091C202.734 99.4771 202.464 99.2939 202.239 99.0596C202.018 98.8253 201.848 98.5497 201.729 98.2329C201.611 97.9161 201.551 97.5746 201.551 97.2083V97.0103C201.551 96.5912 201.612 96.2116 201.734 95.8717C201.857 95.5318 202.026 95.2414 202.244 95.0005C202.462 94.7563 202.72 94.5699 203.017 94.4412C203.314 94.3125 203.635 94.2481 203.982 94.2481C204.365 94.2481 204.7 94.3125 204.987 94.4412C205.274 94.5699 205.511 94.7514 205.699 94.9857C205.891 95.2167 206.033 95.4922 206.125 95.8123C206.221 96.1324 206.269 96.4856 206.269 96.8717V97.3815H202.13V96.5252H205.091V96.4311C205.084 96.2166 205.041 96.0153 204.962 95.8272C204.886 95.6391 204.769 95.4873 204.61 95.3718C204.452 95.2563 204.241 95.1985 203.977 95.1985C203.779 95.1985 203.602 95.2414 203.447 95.3272C203.295 95.4097 203.168 95.5302 203.066 95.6886C202.964 95.847 202.885 96.0384 202.828 96.2628C202.776 96.4839 202.749 96.7331 202.749 97.0103V97.2083C202.749 97.4426 202.781 97.6604 202.843 97.8617C202.909 98.0597 203.005 98.2329 203.13 98.3814C203.256 98.5299 203.408 98.6471 203.586 98.7329C203.764 98.8154 203.967 98.8567 204.195 98.8567C204.482 98.8567 204.737 98.7989 204.962 98.6834C205.186 98.5679 205.381 98.4045 205.546 98.1933L206.175 98.8022C206.059 98.9705 205.909 99.1322 205.724 99.2873C205.539 99.4391 205.313 99.5629 205.046 99.6586C204.782 99.7543 204.475 99.8021 204.125 99.8021ZM208.296 95.3668V99.7031H207.103V94.3471H208.241L208.296 95.3668ZM209.934 94.3125L209.924 95.4213C209.852 95.4081 209.773 95.3982 209.687 95.3916C209.604 95.385 209.522 95.3817 209.439 95.3817C209.235 95.3817 209.055 95.4114 208.9 95.4708C208.745 95.5269 208.614 95.6094 208.509 95.7183C208.406 95.8239 208.327 95.9526 208.271 96.1044C208.215 96.2562 208.182 96.4261 208.172 96.6143L207.9 96.6341C207.9 96.2974 207.933 95.9856 207.999 95.6985C208.065 95.4114 208.164 95.1589 208.296 94.9411C208.431 94.7233 208.6 94.5534 208.801 94.4313C209.005 94.3092 209.241 94.2481 209.509 94.2481C209.581 94.2481 209.659 94.2547 209.741 94.2679C209.827 94.2811 209.891 94.296 209.934 94.3125ZM214.617 99.7031H213.424V93.8323C213.424 93.433 213.499 93.098 213.647 92.8274C213.799 92.5535 214.015 92.3473 214.296 92.2087C214.576 92.0667 214.908 91.9958 215.291 91.9958C215.409 91.9958 215.527 92.004 215.642 92.0205C215.758 92.0337 215.87 92.0552 215.979 92.0849L215.949 93.0056C215.883 92.9891 215.81 92.9776 215.731 92.971C215.655 92.9644 215.573 92.9611 215.484 92.9611C215.302 92.9611 215.145 92.9957 215.013 93.065C214.885 93.131 214.786 93.2284 214.716 93.3571C214.65 93.4858 214.617 93.6442 214.617 93.8323V99.7031ZM215.721 94.3471V95.2183H212.603V94.3471H215.721ZM219.709 98.4408V94.3471H220.907V99.7031H219.778L219.709 98.4408ZM219.877 97.3271L220.278 97.3172C220.278 97.6769 220.238 98.0085 220.159 98.3121C220.08 98.6124 219.958 98.8748 219.793 99.0992C219.628 99.3203 219.417 99.4936 219.159 99.619C218.902 99.7411 218.593 99.8021 218.234 99.8021C217.973 99.8021 217.734 99.7642 217.516 99.6883C217.298 99.6124 217.11 99.4952 216.951 99.3368C216.796 99.1784 216.676 98.9722 216.59 98.7181C216.504 98.4639 216.461 98.1603 216.461 97.8072V94.3471H217.654V97.8171C217.654 98.0118 217.677 98.1752 217.724 98.3072C217.77 98.4359 217.833 98.5398 217.912 98.6191C217.991 98.6983 218.083 98.7544 218.189 98.7874C218.295 98.8204 218.407 98.8369 218.526 98.8369C218.866 98.8369 219.133 98.7709 219.328 98.6389C219.526 98.5035 219.666 98.322 219.748 98.0943C219.834 97.8666 219.877 97.6109 219.877 97.3271ZM223.305 92.0997V99.7031H222.107V92.0997H223.305ZM226.045 99.7031H224.847V94.0006C224.847 93.5683 224.933 93.2036 225.105 92.9066C225.279 92.6096 225.529 92.3836 225.852 92.2285C226.179 92.0733 226.566 91.9958 227.015 91.9958C227.279 91.9958 227.533 92.0238 227.778 92.0799C228.025 92.1361 228.281 92.207 228.545 92.2928L228.362 93.263C228.193 93.2069 228.007 93.1541 227.802 93.1046C227.598 93.0518 227.362 93.0254 227.094 93.0254C226.735 93.0254 226.469 93.1079 226.297 93.2729C226.129 93.4346 226.045 93.6772 226.045 94.0006V99.7031ZM227.119 94.3471V95.2183H224.025V94.3471H227.119ZM229.109 94.3471V99.7031H227.916V94.3471H229.109ZM231.616 92.0997V99.7031H230.419V92.0997H231.616ZM234.099 92.0997V99.7031H232.901V92.0997H234.099ZM236.497 95.4361V99.7031H235.305V94.3471H236.428L236.497 95.4361ZM236.304 96.8271L235.899 96.8222C235.899 96.4526 235.945 96.111 236.037 95.7975C236.13 95.484 236.265 95.2117 236.443 94.9807C236.621 94.7464 236.842 94.5666 237.106 94.4412C237.374 94.3125 237.682 94.2481 238.032 94.2481C238.276 94.2481 238.499 94.2844 238.7 94.357C238.905 94.4263 239.081 94.5369 239.23 94.6887C239.382 94.8405 239.497 95.0352 239.576 95.2728C239.659 95.5104 239.7 95.7975 239.7 96.1341V99.7031H238.507V96.238C238.507 95.9773 238.468 95.7727 238.388 95.6242C238.313 95.4757 238.202 95.3701 238.057 95.3074C237.915 95.2414 237.745 95.2084 237.547 95.2084C237.323 95.2084 237.131 95.2513 236.973 95.3371C236.818 95.4229 236.691 95.5401 236.592 95.6886C236.493 95.8371 236.42 96.0087 236.374 96.2034C236.328 96.3981 236.304 96.606 236.304 96.8271ZM239.626 96.5103L239.067 96.6341C239.067 96.3106 239.111 96.0054 239.2 95.7183C239.293 95.4279 239.426 95.1738 239.601 94.956C239.779 94.7349 239.999 94.5616 240.26 94.4362C240.52 94.3108 240.819 94.2481 241.156 94.2481C241.429 94.2481 241.674 94.2861 241.888 94.362C242.106 94.4346 242.291 94.5501 242.443 94.7085C242.594 94.8669 242.71 95.0731 242.789 95.3272C242.868 95.578 242.908 95.8816 242.908 96.238V99.7031H241.71V96.2331C241.71 95.9625 241.67 95.7529 241.591 95.6044C241.515 95.4559 241.406 95.3536 241.264 95.2975C241.123 95.2381 240.953 95.2084 240.755 95.2084C240.57 95.2084 240.406 95.2431 240.265 95.3124C240.126 95.3784 240.009 95.4724 239.913 95.5945C239.817 95.7133 239.745 95.8503 239.695 96.0054C239.649 96.1605 239.626 96.3288 239.626 96.5103ZM246.395 99.8021C245.999 99.8021 245.641 99.7378 245.321 99.6091C245.004 99.4771 244.734 99.2939 244.509 99.0596C244.288 98.8253 244.118 98.5497 243.999 98.2329C243.881 97.9161 243.821 97.5746 243.821 97.2083V97.0103C243.821 96.5912 243.882 96.2116 244.004 95.8717C244.127 95.5318 244.297 95.2414 244.514 95.0005C244.732 94.7563 244.99 94.5699 245.287 94.4412C245.584 94.3125 245.905 94.2481 246.252 94.2481C246.635 94.2481 246.97 94.3125 247.257 94.4412C247.544 94.5699 247.781 94.7514 247.969 94.9857C248.161 95.2167 248.303 95.4922 248.395 95.8123C248.491 96.1324 248.539 96.4856 248.539 96.8717V97.3815H244.4V96.5252H247.361V96.4311C247.354 96.2166 247.311 96.0153 247.232 95.8272C247.156 95.6391 247.039 95.4873 246.88 95.3718C246.722 95.2563 246.511 95.1985 246.247 95.1985C246.049 95.1985 245.872 95.2414 245.717 95.3272C245.565 95.4097 245.438 95.5302 245.336 95.6886C245.234 95.847 245.155 96.0384 245.098 96.2628C245.046 96.4839 245.019 96.7331 245.019 97.0103V97.2083C245.019 97.4426 245.051 97.6604 245.113 97.8617C245.179 98.0597 245.275 98.2329 245.4 98.3814C245.526 98.5299 245.678 98.6471 245.856 98.7329C246.034 98.8154 246.237 98.8567 246.465 98.8567C246.752 98.8567 247.008 98.7989 247.232 98.6834C247.456 98.5679 247.651 98.4045 247.816 98.1933L248.445 98.8022C248.329 98.9705 248.179 99.1322 247.994 99.2873C247.809 99.4391 247.583 99.5629 247.316 99.6586C247.052 99.7543 246.745 99.8021 246.395 99.8021ZM250.551 95.4906V99.7031H249.358V94.3471H250.482L250.551 95.4906ZM250.338 96.8271L249.952 96.8222C249.955 96.4426 250.008 96.0945 250.111 95.7777C250.216 95.4609 250.361 95.1886 250.546 94.9609C250.734 94.7332 250.959 94.5583 251.219 94.4362C251.48 94.3108 251.77 94.2481 252.091 94.2481C252.348 94.2481 252.581 94.2844 252.789 94.357C253 94.4263 253.18 94.5402 253.328 94.6986C253.48 94.857 253.595 95.0632 253.675 95.3173C253.754 95.5681 253.793 95.8767 253.793 96.243V99.7031H252.595V96.238C252.595 95.9806 252.558 95.7777 252.482 95.6292C252.409 95.4774 252.302 95.3701 252.16 95.3074C252.021 95.2414 251.848 95.2084 251.64 95.2084C251.435 95.2084 251.252 95.2513 251.091 95.3371C250.929 95.4229 250.792 95.5401 250.68 95.6886C250.571 95.8371 250.487 96.0087 250.427 96.2034C250.368 96.3981 250.338 96.606 250.338 96.8271ZM257.365 94.3471V95.2183H254.345V94.3471H257.365ZM255.217 93.0353H256.41V98.223C256.41 98.388 256.433 98.5151 256.479 98.6042C256.528 98.69 256.596 98.7478 256.682 98.7775C256.768 98.8072 256.868 98.822 256.984 98.822C257.066 98.822 257.146 98.8171 257.221 98.8072C257.297 98.7973 257.358 98.7874 257.405 98.7775L257.41 99.6883C257.311 99.718 257.195 99.7444 257.063 99.7675C256.934 99.7906 256.786 99.8021 256.618 99.8021C256.344 99.8021 256.101 99.7543 255.89 99.6586C255.679 99.5596 255.514 99.3995 255.395 99.1784C255.276 98.9573 255.217 98.6636 255.217 98.2973V93.0353Z" fill="#4A566B"/>
<g filter="url(#filter0_d_17408_9628)">
<ellipse cx="373.31" cy="53.7745" rx="7.24131" ry="7.24132" fill="white"/>
</g>
<path fill-rule="evenodd" clip-rule="evenodd" d="M376.211 57.0777L370.629 51.3955L371.136 50.8789L376.718 56.5611L376.211 57.0777Z" fill="#999999"/>
<path fill-rule="evenodd" clip-rule="evenodd" d="M376.502 51.5043L370.92 57.1865L370.412 56.6699L375.994 50.9877L376.502 51.5043Z" fill="#999999"/>
<rect x="173.682" y="160.57" width="200" height="77.714" rx="6.29922" fill="white"/>
<rect x="173.682" y="160.57" width="200" height="77.714" rx="6.29922" stroke="#E0E0E0" stroke-width="0.787402"/>
<rect x="185.268" y="171.432" width="18.8274" height="18.8274" rx="4.34479" fill="#1BB644"/>
<path d="M199.165 177.542C198.315 176.437 197.206 175.736 195.869 175.457C194.179 175.105 192.625 175.453 191.252 176.493C190.156 177.324 189.449 178.437 189.153 179.803C189.117 179.967 189.096 180.135 189.076 180.297C189.066 180.373 189.056 180.45 189.046 180.526C189.042 180.551 189.037 180.576 189.033 180.601C189.03 180.613 189.028 180.626 189.026 180.638L189.024 180.648V181.307L189.025 181.322C189.034 181.388 189.042 181.454 189.05 181.52C189.068 181.663 189.085 181.811 189.113 181.956C189.426 183.635 190.329 184.942 191.796 185.841C192.535 186.294 193.366 186.556 194.266 186.62C194.275 186.621 194.288 186.624 194.303 186.628C194.313 186.631 194.323 186.633 194.334 186.636L194.345 186.638H195.015L195.022 186.637C195.088 186.628 195.154 186.62 195.22 186.612C195.363 186.594 195.511 186.576 195.657 186.55C196.952 186.32 198.053 185.701 198.929 184.71C199.73 183.804 200.195 182.74 200.31 181.547C200.452 180.062 200.067 178.714 199.165 177.542ZM197.912 184.223C197.048 185.085 195.905 185.559 194.692 185.559H194.676C192.149 185.551 190.098 183.495 190.104 180.978C190.109 178.456 192.161 176.405 194.68 176.405H194.683C197.206 176.406 199.259 178.459 199.261 180.981C199.261 182.204 198.783 183.356 197.912 184.223Z" fill="white"/>
<path d="M196.92 182.443C196.87 182.619 196.747 182.753 196.581 182.811C196.524 182.832 196.465 182.841 196.406 182.841C196.291 182.841 196.176 182.804 196.076 182.731C195.883 182.592 195.691 182.447 195.505 182.306C195.426 182.246 195.347 182.186 195.267 182.127C195.181 182.062 195.095 181.997 195.008 181.932C194.813 181.784 194.611 181.632 194.41 181.486C194.227 181.353 194.139 181.176 194.141 180.944C194.144 180.656 194.143 180.362 194.143 180.079C194.143 179.959 194.142 179.84 194.142 179.72C194.142 179.593 194.142 179.466 194.142 179.339C194.141 179.052 194.141 178.755 194.143 178.463C194.145 178.266 194.233 178.093 194.384 177.989C194.527 177.892 194.705 177.872 194.873 177.935C195.095 178.018 195.222 178.218 195.222 178.483V178.633C195.223 179.305 195.224 179.999 195.22 180.682C195.22 180.735 195.231 180.756 195.276 180.789C195.756 181.145 196.242 181.511 196.698 181.855C196.901 182.008 196.982 182.223 196.92 182.443Z" fill="white"/>
<path d="M212.715 183.846H211.175L211.185 182.861H212.715C213.16 182.861 213.533 182.763 213.833 182.569C214.137 182.374 214.365 182.095 214.517 181.732C214.672 181.369 214.749 180.937 214.749 180.435V180.044C214.749 179.655 214.705 179.31 214.616 179.009C214.53 178.709 214.401 178.457 214.229 178.252C214.061 178.047 213.853 177.892 213.606 177.787C213.362 177.681 213.079 177.628 212.759 177.628H211.146V176.638H212.759C213.238 176.638 213.675 176.719 214.071 176.881C214.467 177.039 214.809 177.269 215.096 177.569C215.386 177.869 215.609 178.229 215.764 178.648C215.919 179.067 215.997 179.536 215.997 180.054V180.435C215.997 180.953 215.919 181.422 215.764 181.841C215.609 182.26 215.386 182.62 215.096 182.92C214.805 183.217 214.459 183.446 214.056 183.608C213.657 183.767 213.21 183.846 212.715 183.846ZM211.863 176.638V183.846H210.621V176.638H211.863ZM219.385 183.945C218.989 183.945 218.631 183.88 218.311 183.752C217.994 183.62 217.723 183.436 217.499 183.202C217.278 182.968 217.108 182.692 216.989 182.376C216.87 182.059 216.811 181.717 216.811 181.351V181.153C216.811 180.734 216.872 180.354 216.994 180.014C217.116 179.674 217.286 179.384 217.504 179.143C217.722 178.899 217.979 178.712 218.276 178.584C218.573 178.455 218.895 178.391 219.242 178.391C219.624 178.391 219.959 178.455 220.246 178.584C220.534 178.712 220.771 178.894 220.959 179.128C221.151 179.359 221.293 179.635 221.385 179.955C221.481 180.275 221.528 180.628 221.528 181.014V181.524H217.39V180.668H220.35V180.574C220.344 180.359 220.301 180.158 220.222 179.97C220.146 179.782 220.029 179.63 219.87 179.514C219.712 179.399 219.501 179.341 219.237 179.341C219.039 179.341 218.862 179.384 218.707 179.47C218.555 179.552 218.428 179.673 218.326 179.831C218.223 179.99 218.144 180.181 218.088 180.405C218.035 180.626 218.009 180.876 218.009 181.153V181.351C218.009 181.585 218.04 181.803 218.103 182.004C218.169 182.202 218.265 182.376 218.39 182.524C218.516 182.673 218.667 182.79 218.846 182.875C219.024 182.958 219.227 182.999 219.454 182.999C219.741 182.999 219.997 182.941 220.222 182.826C220.446 182.71 220.641 182.547 220.806 182.336L221.434 182.945C221.319 183.113 221.169 183.275 220.984 183.43C220.799 183.582 220.573 183.705 220.306 183.801C220.042 183.897 219.735 183.945 219.385 183.945ZM223.635 176.242V183.846H222.437V176.242H223.635ZM227.86 182.772V180.217C227.86 180.026 227.825 179.861 227.756 179.722C227.687 179.584 227.581 179.476 227.439 179.401C227.301 179.325 227.126 179.287 226.914 179.287C226.72 179.287 226.551 179.32 226.409 179.386C226.268 179.452 226.157 179.541 226.078 179.653C225.999 179.765 225.959 179.892 225.959 180.034H224.771C224.771 179.823 224.822 179.618 224.924 179.42C225.027 179.222 225.175 179.046 225.37 178.891C225.565 178.736 225.797 178.613 226.068 178.524C226.339 178.435 226.642 178.391 226.979 178.391C227.381 178.391 227.738 178.458 228.048 178.594C228.361 178.729 228.607 178.934 228.786 179.207C228.967 179.478 229.058 179.818 229.058 180.227V182.608C229.058 182.852 229.074 183.072 229.107 183.267C229.144 183.458 229.195 183.625 229.261 183.767V183.846H228.038C227.982 183.717 227.937 183.554 227.904 183.356C227.875 183.154 227.86 182.96 227.86 182.772ZM228.033 180.589L228.043 181.326H227.187C226.966 181.326 226.771 181.348 226.603 181.39C226.434 181.43 226.294 181.489 226.182 181.569C226.07 181.648 225.985 181.744 225.929 181.856C225.873 181.968 225.845 182.095 225.845 182.237C225.845 182.379 225.878 182.509 225.944 182.628C226.01 182.743 226.106 182.834 226.231 182.9C226.36 182.966 226.515 182.999 226.697 182.999C226.941 182.999 227.154 182.95 227.335 182.851C227.52 182.748 227.665 182.625 227.771 182.479C227.876 182.331 227.932 182.191 227.939 182.059L228.325 182.588C228.286 182.724 228.218 182.869 228.122 183.024C228.027 183.179 227.901 183.328 227.746 183.469C227.594 183.608 227.411 183.722 227.197 183.811C226.985 183.9 226.741 183.945 226.464 183.945C226.114 183.945 225.802 183.875 225.528 183.737C225.254 183.595 225.04 183.405 224.885 183.168C224.73 182.927 224.652 182.654 224.652 182.351C224.652 182.067 224.705 181.816 224.811 181.598C224.92 181.377 225.078 181.192 225.286 181.044C225.497 180.895 225.754 180.783 226.058 180.707C226.362 180.628 226.708 180.589 227.098 180.589H228.033ZM231.679 183.262L233.134 178.49H234.411L232.263 184.662C232.214 184.794 232.149 184.938 232.07 185.093C231.991 185.248 231.887 185.395 231.758 185.534C231.633 185.676 231.476 185.789 231.288 185.875C231.1 185.964 230.872 186.009 230.605 186.009C230.499 186.009 230.397 185.999 230.298 185.979C230.202 185.963 230.111 185.945 230.026 185.925L230.021 185.014C230.054 185.017 230.093 185.021 230.139 185.024C230.189 185.027 230.229 185.029 230.258 185.029C230.456 185.029 230.621 185.004 230.753 184.955C230.885 184.908 230.993 184.832 231.075 184.727C231.161 184.621 231.233 184.479 231.293 184.301L231.679 183.262ZM230.857 178.49L232.129 182.499L232.342 183.757L231.516 183.969L229.57 178.49H230.857Z" fill="#1BB644"/>
<path d="M187.805 205.478L189.133 200.807H189.777L189.404 202.623L187.975 207.5H187.336L187.805 205.478ZM186.431 200.807L187.488 205.386L187.805 207.5H187.171L185.548 200.807H186.431ZM191.496 205.381L192.53 200.807H193.417L191.799 207.5H191.165L191.496 205.381ZM189.873 200.807L191.165 205.478L191.634 207.5H190.995L189.616 202.623L189.239 200.807H189.873ZM197.048 206.65V204.089C197.048 203.893 197.009 203.723 196.929 203.579C196.852 203.432 196.736 203.319 196.58 203.239C196.423 203.159 196.23 203.12 196 203.12C195.786 203.12 195.598 203.156 195.435 203.23C195.276 203.303 195.15 203.4 195.058 203.519C194.969 203.639 194.925 203.768 194.925 203.906H194.075C194.075 203.728 194.121 203.552 194.212 203.377C194.304 203.202 194.436 203.044 194.608 202.903C194.782 202.759 194.991 202.646 195.233 202.563C195.478 202.478 195.751 202.435 196.051 202.435C196.413 202.435 196.731 202.496 197.007 202.618C197.286 202.741 197.504 202.926 197.66 203.175C197.819 203.42 197.899 203.728 197.899 204.099V206.415C197.899 206.581 197.913 206.757 197.94 206.944C197.971 207.131 198.015 207.292 198.074 207.426V207.5H197.186C197.143 207.402 197.11 207.272 197.085 207.109C197.061 206.944 197.048 206.791 197.048 206.65ZM197.196 204.485L197.205 205.082H196.345C196.103 205.082 195.887 205.102 195.697 205.142C195.507 205.179 195.348 205.235 195.219 205.312C195.09 205.389 194.992 205.485 194.925 205.602C194.857 205.715 194.824 205.848 194.824 206.002C194.824 206.158 194.859 206.3 194.929 206.429C195 206.558 195.106 206.66 195.247 206.737C195.391 206.811 195.567 206.847 195.775 206.847C196.036 206.847 196.266 206.792 196.465 206.682C196.664 206.571 196.822 206.437 196.938 206.277C197.058 206.118 197.122 205.963 197.131 205.813L197.494 206.222C197.473 206.351 197.415 206.493 197.32 206.65C197.225 206.806 197.098 206.956 196.938 207.1C196.782 207.241 196.595 207.359 196.377 207.454C196.163 207.546 195.921 207.592 195.651 207.592C195.314 207.592 195.018 207.526 194.764 207.394C194.513 207.263 194.317 207.086 194.176 206.866C194.038 206.642 193.969 206.392 193.969 206.116C193.969 205.85 194.021 205.615 194.125 205.413C194.229 205.208 194.379 205.038 194.576 204.903C194.772 204.765 195.008 204.661 195.283 204.59C195.559 204.52 195.867 204.485 196.207 204.485H197.196ZM200.16 202.527V207.5H199.305V202.527H200.16ZM199.241 201.207C199.241 201.069 199.282 200.953 199.365 200.858C199.451 200.763 199.577 200.716 199.742 200.716C199.904 200.716 200.029 200.763 200.114 200.858C200.203 200.953 200.248 201.069 200.248 201.207C200.248 201.339 200.203 201.452 200.114 201.547C200.029 201.639 199.904 201.685 199.742 201.685C199.577 201.685 199.451 201.639 199.365 201.547C199.282 201.452 199.241 201.339 199.241 201.207ZM203.608 202.527V203.179H200.919V202.527H203.608ZM201.829 201.318H202.679V206.268C202.679 206.437 202.705 206.564 202.757 206.65C202.809 206.735 202.877 206.792 202.96 206.82C203.042 206.847 203.131 206.861 203.226 206.861C203.297 206.861 203.37 206.855 203.447 206.843C203.527 206.827 203.586 206.815 203.626 206.806L203.631 207.5C203.563 207.521 203.474 207.541 203.364 207.56C203.257 207.581 203.127 207.592 202.973 207.592C202.765 207.592 202.574 207.551 202.399 207.468C202.224 207.385 202.085 207.247 201.981 207.054C201.879 206.858 201.829 206.594 201.829 206.264V201.318Z" fill="#6E7F9D"/>
<path d="M190.218 216.382V216.988L187.543 223.074H186.375L189.046 217.264H185.58V216.382H190.218ZM195.587 223.074H194.157L194.166 222.16H195.587C196 222.16 196.347 222.069 196.626 221.888C196.908 221.708 197.119 221.449 197.26 221.111C197.404 220.774 197.476 220.373 197.476 219.907V219.544C197.476 219.182 197.435 218.862 197.352 218.583C197.272 218.305 197.153 218.07 196.993 217.88C196.837 217.69 196.644 217.546 196.414 217.448C196.187 217.35 195.925 217.301 195.628 217.301H194.13V216.382H195.628C196.073 216.382 196.479 216.457 196.846 216.607C197.214 216.754 197.531 216.967 197.798 217.246C198.067 217.525 198.274 217.859 198.418 218.248C198.562 218.637 198.634 219.072 198.634 219.553V219.907C198.634 220.388 198.562 220.823 198.418 221.213C198.274 221.602 198.067 221.936 197.798 222.215C197.528 222.49 197.206 222.703 196.832 222.854C196.462 223.001 196.046 223.074 195.587 223.074ZM194.796 216.382V223.074H193.642V216.382H194.796ZM202.486 222.077V219.705C202.486 219.527 202.454 219.374 202.39 219.245C202.325 219.117 202.227 219.017 202.095 218.947C201.967 218.876 201.804 218.841 201.608 218.841C201.427 218.841 201.271 218.871 201.139 218.933C201.008 218.994 200.905 219.077 200.831 219.181C200.758 219.285 200.721 219.403 200.721 219.535H199.618C199.618 219.339 199.665 219.149 199.76 218.965C199.855 218.781 199.993 218.617 200.174 218.473C200.355 218.329 200.571 218.216 200.822 218.133C201.074 218.05 201.355 218.009 201.668 218.009C202.042 218.009 202.373 218.072 202.661 218.197C202.952 218.323 203.18 218.513 203.346 218.767C203.514 219.019 203.599 219.334 203.599 219.714V221.925C203.599 222.152 203.614 222.356 203.645 222.536C203.678 222.714 203.726 222.869 203.787 223.001V223.074H202.652C202.6 222.955 202.558 222.803 202.528 222.619C202.5 222.432 202.486 222.251 202.486 222.077ZM202.647 220.05L202.656 220.735H201.861C201.656 220.735 201.475 220.755 201.319 220.794C201.162 220.831 201.032 220.886 200.928 220.96C200.824 221.033 200.746 221.122 200.694 221.226C200.641 221.331 200.615 221.449 200.615 221.58C200.615 221.712 200.646 221.833 200.707 221.943C200.769 222.051 200.857 222.135 200.974 222.196C201.093 222.258 201.237 222.288 201.406 222.288C201.633 222.288 201.83 222.242 201.999 222.15C202.171 222.055 202.305 221.94 202.403 221.806C202.502 221.668 202.554 221.537 202.56 221.415L202.918 221.907C202.882 222.032 202.819 222.167 202.73 222.311C202.641 222.455 202.525 222.593 202.38 222.725C202.24 222.854 202.069 222.959 201.87 223.042C201.674 223.125 201.447 223.166 201.19 223.166C200.865 223.166 200.576 223.102 200.321 222.973C200.067 222.841 199.868 222.665 199.724 222.444C199.58 222.221 199.508 221.968 199.508 221.686C199.508 221.423 199.557 221.19 199.655 220.987C199.756 220.782 199.903 220.61 200.096 220.473C200.292 220.335 200.531 220.23 200.813 220.16C201.095 220.086 201.417 220.05 201.778 220.05H202.647ZM206.127 222.532L207.478 218.101H208.664L206.669 223.833C206.623 223.955 206.563 224.089 206.49 224.233C206.416 224.377 206.32 224.513 206.2 224.642C206.084 224.773 205.938 224.879 205.764 224.959C205.589 225.042 205.377 225.083 205.129 225.083C205.031 225.083 204.936 225.074 204.844 225.055C204.755 225.04 204.671 225.023 204.591 225.005L204.587 224.159C204.617 224.162 204.654 224.165 204.697 224.168C204.743 224.171 204.78 224.173 204.807 224.173C204.991 224.173 205.145 224.15 205.267 224.104C205.39 224.061 205.489 223.99 205.566 223.892C205.646 223.794 205.713 223.663 205.768 223.497L206.127 222.532ZM205.364 218.101L206.545 221.824L206.743 222.991L205.975 223.189L204.169 218.101H205.364ZM212.088 221.727C212.088 221.617 212.061 221.518 212.006 221.429C211.95 221.337 211.845 221.254 211.688 221.18C211.535 221.107 211.308 221.039 211.008 220.978C210.745 220.92 210.503 220.851 210.282 220.771C210.064 220.689 209.877 220.589 209.721 220.473C209.565 220.356 209.444 220.218 209.358 220.059C209.272 219.9 209.229 219.716 209.229 219.507C209.229 219.305 209.274 219.114 209.363 218.933C209.451 218.752 209.579 218.593 209.744 218.455C209.91 218.317 210.11 218.208 210.346 218.128C210.585 218.049 210.852 218.009 211.146 218.009C211.563 218.009 211.92 218.079 212.217 218.22C212.517 218.358 212.747 218.547 212.907 218.786C213.066 219.022 213.146 219.288 213.146 219.585H212.038C212.038 219.454 212.004 219.331 211.937 219.218C211.872 219.101 211.774 219.008 211.642 218.937C211.511 218.864 211.345 218.827 211.146 218.827C210.956 218.827 210.798 218.858 210.673 218.919C210.55 218.977 210.458 219.054 210.397 219.149C210.339 219.244 210.31 219.348 210.31 219.461C210.31 219.544 210.325 219.619 210.355 219.687C210.389 219.751 210.444 219.811 210.521 219.866C210.598 219.918 210.702 219.967 210.834 220.013C210.968 220.059 211.137 220.103 211.339 220.146C211.719 220.226 212.045 220.329 212.318 220.454C212.594 220.577 212.805 220.736 212.953 220.932C213.1 221.125 213.173 221.37 213.173 221.668C213.173 221.888 213.126 222.091 213.031 222.274C212.939 222.455 212.804 222.613 212.626 222.748C212.448 222.88 212.235 222.982 211.987 223.056C211.742 223.129 211.466 223.166 211.16 223.166C210.709 223.166 210.328 223.086 210.015 222.927C209.703 222.765 209.465 222.558 209.303 222.307C209.144 222.052 209.064 221.789 209.064 221.516H210.135C210.147 221.721 210.204 221.885 210.305 222.008C210.409 222.127 210.538 222.215 210.691 222.27C210.847 222.322 211.008 222.348 211.174 222.348C211.373 222.348 211.54 222.322 211.675 222.27C211.81 222.215 211.912 222.141 211.983 222.049C212.053 221.954 212.088 221.847 212.088 221.727Z" fill="#333333"/>
<g filter="url(#filter1_d_17408_9628)">
<ellipse cx="373.31" cy="160.571" rx="7.24131" ry="7.24132" fill="white"/>
</g>
<path fill-rule="evenodd" clip-rule="evenodd" d="M376.211 163.875L370.629 158.192L371.136 157.676L376.718 163.358L376.211 163.875Z" fill="#999999"/>
<path fill-rule="evenodd" clip-rule="evenodd" d="M376.502 158.301L370.92 163.983L370.412 163.467L375.994 157.785L376.502 158.301Z" fill="#999999"/>
<rect x="173.682" y="284.691" width="200" height="77.714" rx="6.29922" fill="white"/>
<rect x="173.682" y="284.691" width="200" height="77.714" rx="6.29922" stroke="#E0E0E0" stroke-width="0.787402"/>
<rect x="185.268" y="295.553" width="18.8274" height="18.8274" rx="4.34479" fill="#1BB644"/>
<path d="M200.076 304.344C200.075 304.482 200.025 304.606 199.935 304.694C199.853 304.773 199.744 304.816 199.627 304.813C199.376 304.807 199.199 304.614 199.198 304.344C199.198 304.166 199.198 303.988 199.198 303.809V303.666C199.198 303.45 199.198 303.233 199.197 303.017C199.194 302.122 198.603 301.41 197.728 301.243C197.629 301.225 197.518 301.216 197.389 301.216C195.533 301.214 193.629 301.214 191.57 301.215C190.553 301.215 189.779 301.977 189.771 302.987C189.761 304.144 189.761 305.322 189.771 306.488C189.779 307.497 190.552 308.259 191.569 308.261C192.241 308.262 192.913 308.262 193.584 308.262H193.985C194.398 308.262 194.812 308.262 195.226 308.262C195.299 308.262 195.378 308.265 195.454 308.289C195.633 308.345 195.758 308.523 195.751 308.713C195.743 308.904 195.612 309.071 195.432 309.119C195.377 309.134 195.315 309.141 195.242 309.141L194.534 309.142C194.026 309.143 193.509 309.143 192.99 309.143C192.518 309.143 192.044 309.143 191.573 309.141C190.952 309.14 190.374 308.944 189.901 308.574C189.428 308.205 189.104 307.695 188.965 307.101C188.919 306.907 188.895 306.689 188.894 306.453C188.888 305.414 188.888 304.324 188.892 303.02C188.896 301.646 189.848 300.551 191.205 300.357C191.337 300.338 191.473 300.338 191.594 300.338H191.6C192.22 300.337 192.841 300.337 193.461 300.337H194.48C194.779 300.337 195.078 300.337 195.377 300.336C196.027 300.336 196.721 300.335 197.396 300.337C198.702 300.342 199.757 301.196 200.022 302.463C200.054 302.617 200.071 302.783 200.074 302.956C200.081 303.435 200.079 303.927 200.076 304.344Z" fill="white"/>
<path d="M198.18 304.914H198.17C197.549 304.914 196.966 305.153 196.529 305.587C196.092 306.021 195.851 306.602 195.849 307.221C195.846 308.496 196.88 309.538 198.155 309.542H198.163C198.778 309.542 199.357 309.303 199.793 308.869C200.231 308.433 200.473 307.853 200.474 307.234C200.478 305.96 199.448 304.919 198.18 304.914ZM199.174 308.242C198.901 308.514 198.542 308.665 198.163 308.665H198.157C197.368 308.661 196.727 308.015 196.729 307.225C196.73 306.436 197.372 305.795 198.161 305.795C198.95 305.795 199.594 306.436 199.597 307.225C199.599 307.606 199.448 307.967 199.174 308.242Z" fill="white"/>
<path d="M198.135 303.498C197.915 303.589 197.69 303.678 197.472 303.765L197.453 303.772C197.374 303.804 197.295 303.835 197.216 303.867C197.03 303.941 196.843 304.016 196.657 304.091L196.613 304.109C196.103 304.313 195.576 304.525 195.055 304.727C194.931 304.775 194.803 304.806 194.678 304.835L194.669 304.837C194.618 304.849 194.565 304.862 194.515 304.875L194.492 304.881L194.469 304.876C194.417 304.863 194.366 304.853 194.317 304.843L194.304 304.841C194.19 304.817 194.082 304.796 193.977 304.754C193.027 304.379 192.063 303.992 191.13 303.618L190.843 303.502C190.617 303.411 190.504 303.201 190.563 302.98C190.597 302.854 190.675 302.754 190.783 302.699C190.898 302.64 191.036 302.637 191.172 302.689C191.401 302.778 191.633 302.871 191.85 302.958L191.908 302.982C191.966 303.005 192.024 303.028 192.081 303.051L192.604 303.259C193.133 303.47 193.697 303.695 194.251 303.919C194.408 303.983 194.55 303.985 194.7 303.925C195.681 303.53 196.701 303.123 197.734 302.714C197.844 302.67 197.943 302.651 198.028 302.656C198.222 302.669 198.383 302.824 198.41 303.024C198.439 303.234 198.334 303.416 198.135 303.498Z" fill="white"/>
<path d="M199.075 307.249C198.913 307.383 198.746 307.517 198.585 307.647L198.48 307.731C198.437 307.766 198.394 307.801 198.35 307.836C198.338 307.845 198.326 307.855 198.314 307.865L198.292 307.883C198.247 307.92 198.2 307.959 198.149 307.995C198.066 308.054 197.973 308.086 197.88 308.086C197.754 308.086 197.637 308.029 197.55 307.926C197.414 307.764 197.286 307.601 197.17 307.441C197.032 307.249 197.07 306.984 197.256 306.839C197.437 306.698 197.702 306.726 197.859 306.902C197.893 306.941 197.924 306.98 197.957 307.021C197.989 306.995 198.021 306.969 198.053 306.943L198.056 306.941C198.205 306.82 198.346 306.705 198.494 306.592C198.573 306.532 198.663 306.49 198.747 306.475C198.932 306.441 199.118 306.545 199.199 306.727C199.282 306.916 199.235 307.116 199.075 307.249Z" fill="white"/>
<path d="M214.413 306.111C214.413 305.962 214.389 305.83 214.343 305.714C214.3 305.599 214.223 305.493 214.111 305.398C213.998 305.302 213.84 305.21 213.635 305.12C213.434 305.028 213.177 304.934 212.863 304.838C212.52 304.733 212.203 304.616 211.913 304.487C211.626 304.355 211.375 304.203 211.16 304.031C210.946 303.857 210.779 303.657 210.66 303.432C210.542 303.205 210.482 302.942 210.482 302.645C210.482 302.352 210.543 302.084 210.665 301.844C210.791 301.603 210.967 301.395 211.195 301.22C211.426 301.042 211.698 300.905 212.012 300.809C212.325 300.71 212.672 300.66 213.051 300.66C213.586 300.66 214.046 300.759 214.432 300.957C214.822 301.155 215.12 301.421 215.328 301.754C215.54 302.088 215.645 302.456 215.645 302.858H214.413C214.413 302.621 214.361 302.411 214.259 302.23C214.16 302.045 214.008 301.9 213.804 301.794C213.602 301.688 213.347 301.636 213.036 301.636C212.743 301.636 212.499 301.68 212.304 301.769C212.109 301.858 211.964 301.979 211.868 302.131C211.773 302.282 211.725 302.454 211.725 302.645C211.725 302.781 211.756 302.904 211.819 303.017C211.881 303.126 211.977 303.228 212.106 303.324C212.235 303.416 212.396 303.503 212.591 303.586C212.786 303.668 213.015 303.748 213.279 303.824C213.678 303.942 214.026 304.074 214.323 304.22C214.62 304.361 214.868 304.523 215.066 304.705C215.264 304.886 215.413 305.092 215.512 305.323C215.611 305.551 215.66 305.81 215.66 306.101C215.66 306.404 215.599 306.678 215.477 306.922C215.355 307.163 215.18 307.369 214.952 307.541C214.728 307.709 214.457 307.84 214.14 307.932C213.827 308.021 213.477 308.066 213.091 308.066C212.744 308.066 212.403 308.02 212.066 307.927C211.733 307.835 211.429 307.695 211.155 307.506C210.882 307.315 210.664 307.077 210.502 306.794C210.34 306.507 210.259 306.172 210.259 305.789H211.502C211.502 306.023 211.542 306.223 211.621 306.388C211.703 306.553 211.817 306.688 211.962 306.794C212.107 306.896 212.276 306.972 212.467 307.021C212.662 307.071 212.87 307.096 213.091 307.096C213.381 307.096 213.624 307.054 213.819 306.972C214.017 306.889 214.165 306.774 214.264 306.625C214.363 306.477 214.413 306.305 214.413 306.111ZM218.9 308.066C218.504 308.066 218.146 308.001 217.826 307.873C217.509 307.741 217.238 307.558 217.014 307.323C216.793 307.089 216.623 306.813 216.504 306.497C216.385 306.18 216.326 305.838 216.326 305.472V305.274C216.326 304.855 216.387 304.475 216.509 304.135C216.631 303.796 216.801 303.505 217.019 303.264C217.237 303.02 217.494 302.834 217.791 302.705C218.088 302.576 218.41 302.512 218.756 302.512C219.139 302.512 219.474 302.576 219.761 302.705C220.048 302.834 220.286 303.015 220.474 303.249C220.666 303.48 220.807 303.756 220.9 304.076C220.996 304.396 221.043 304.749 221.043 305.135V305.645H216.905V304.789H219.865V304.695C219.859 304.48 219.816 304.279 219.737 304.091C219.661 303.903 219.543 303.751 219.385 303.635C219.227 303.52 219.015 303.462 218.751 303.462C218.553 303.462 218.377 303.505 218.222 303.591C218.07 303.673 217.943 303.794 217.841 303.952C217.738 304.111 217.659 304.302 217.603 304.526C217.55 304.748 217.524 304.997 217.524 305.274V305.472C217.524 305.706 217.555 305.924 217.618 306.125C217.684 306.323 217.78 306.497 217.905 306.645C218.03 306.794 218.182 306.911 218.36 306.997C218.539 307.079 218.742 307.12 218.969 307.12C219.256 307.12 219.512 307.063 219.737 306.947C219.961 306.832 220.156 306.668 220.321 306.457L220.949 307.066C220.834 307.234 220.684 307.396 220.499 307.551C220.314 307.703 220.088 307.827 219.821 307.922C219.557 308.018 219.25 308.066 218.9 308.066ZM223.056 303.754V307.967H221.863V302.611H222.986L223.056 303.754ZM222.843 305.091L222.457 305.086C222.46 304.706 222.513 304.358 222.615 304.041C222.721 303.725 222.866 303.452 223.051 303.225C223.239 302.997 223.463 302.822 223.724 302.7C223.985 302.574 224.275 302.512 224.595 302.512C224.853 302.512 225.085 302.548 225.293 302.621C225.504 302.69 225.684 302.804 225.833 302.962C225.985 303.121 226.1 303.327 226.179 303.581C226.258 303.832 226.298 304.14 226.298 304.507V307.967H225.1V304.502C225.1 304.244 225.062 304.041 224.986 303.893C224.914 303.741 224.806 303.634 224.664 303.571C224.526 303.505 224.353 303.472 224.145 303.472C223.94 303.472 223.757 303.515 223.595 303.601C223.434 303.687 223.297 303.804 223.184 303.952C223.075 304.101 222.991 304.272 222.932 304.467C222.873 304.662 222.843 304.87 222.843 305.091ZM230.681 306.858V300.363H231.879V307.967H230.795L230.681 306.858ZM227.197 305.348V305.244C227.197 304.838 227.244 304.469 227.34 304.135C227.436 303.799 227.574 303.51 227.756 303.269C227.937 303.025 228.159 302.838 228.419 302.71C228.68 302.578 228.974 302.512 229.3 302.512C229.624 302.512 229.908 302.574 230.152 302.7C230.396 302.825 230.604 303.005 230.775 303.239C230.947 303.47 231.084 303.748 231.186 304.071C231.289 304.391 231.361 304.748 231.404 305.14V305.472C231.361 305.855 231.289 306.205 231.186 306.521C231.084 306.838 230.947 307.112 230.775 307.343C230.604 307.574 230.394 307.752 230.147 307.878C229.903 308.003 229.617 308.066 229.29 308.066C228.967 308.066 228.675 307.998 228.414 307.863C228.157 307.728 227.937 307.538 227.756 307.294C227.574 307.049 227.436 306.762 227.34 306.432C227.244 306.099 227.197 305.738 227.197 305.348ZM228.39 305.244V305.348C228.39 305.592 228.411 305.82 228.454 306.031C228.5 306.243 228.571 306.429 228.667 306.591C228.762 306.749 228.886 306.874 229.038 306.967C229.193 307.056 229.378 307.101 229.592 307.101C229.863 307.101 230.086 307.041 230.261 306.922C230.436 306.804 230.573 306.643 230.672 306.442C230.774 306.238 230.843 306.01 230.879 305.759V304.863C230.86 304.668 230.818 304.487 230.756 304.319C230.696 304.15 230.615 304.003 230.513 303.878C230.411 303.749 230.284 303.65 230.132 303.581C229.983 303.508 229.807 303.472 229.602 303.472C229.385 303.472 229.2 303.518 229.048 303.611C228.896 303.703 228.771 303.83 228.672 303.992C228.576 304.154 228.505 304.342 228.459 304.556C228.413 304.771 228.39 305 228.39 305.244ZM237.81 308.066C237.414 308.066 237.056 308.001 236.736 307.873C236.419 307.741 236.148 307.558 235.924 307.323C235.703 307.089 235.533 306.813 235.414 306.497C235.295 306.18 235.236 305.838 235.236 305.472V305.274C235.236 304.855 235.297 304.475 235.419 304.135C235.541 303.796 235.711 303.505 235.929 303.264C236.147 303.02 236.404 302.834 236.701 302.705C236.998 302.576 237.32 302.512 237.666 302.512C238.049 302.512 238.384 302.576 238.671 302.705C238.958 302.834 239.196 303.015 239.384 303.249C239.575 303.48 239.717 303.756 239.81 304.076C239.905 304.396 239.953 304.749 239.953 305.135V305.645H235.815V304.789H238.775V304.695C238.768 304.48 238.726 304.279 238.646 304.091C238.57 303.903 238.453 303.751 238.295 303.635C238.137 303.52 237.925 303.462 237.661 303.462C237.463 303.462 237.287 303.505 237.132 303.591C236.98 303.673 236.853 303.794 236.75 303.952C236.648 304.111 236.569 304.302 236.513 304.526C236.46 304.748 236.434 304.997 236.434 305.274V305.472C236.434 305.706 236.465 305.924 236.528 306.125C236.594 306.323 236.689 306.497 236.815 306.645C236.94 306.794 237.092 306.911 237.27 306.997C237.448 307.079 237.651 307.12 237.879 307.12C238.166 307.12 238.422 307.063 238.646 306.947C238.871 306.832 239.065 306.668 239.23 306.457L239.859 307.066C239.744 307.234 239.593 307.396 239.409 307.551C239.224 307.703 238.998 307.827 238.731 307.922C238.467 308.018 238.16 308.066 237.81 308.066ZM241.975 303.7V307.967H240.782V302.611H241.906L241.975 303.7ZM241.782 305.091L241.376 305.086C241.376 304.716 241.423 304.375 241.515 304.061C241.607 303.748 241.743 303.475 241.921 303.244C242.099 303.01 242.32 302.83 242.584 302.705C242.852 302.576 243.16 302.512 243.51 302.512C243.754 302.512 243.977 302.548 244.178 302.621C244.383 302.69 244.559 302.801 244.708 302.952C244.86 303.104 244.975 303.299 245.054 303.536C245.137 303.774 245.178 304.061 245.178 304.398V307.967H243.985V304.502C243.985 304.241 243.946 304.036 243.866 303.888C243.79 303.739 243.68 303.634 243.535 303.571C243.393 303.505 243.223 303.472 243.025 303.472C242.8 303.472 242.609 303.515 242.451 303.601C242.296 303.687 242.168 303.804 242.069 303.952C241.97 304.101 241.898 304.272 241.852 304.467C241.805 304.662 241.782 304.87 241.782 305.091ZM245.104 304.774L244.545 304.898C244.545 304.574 244.589 304.269 244.678 303.982C244.771 303.692 244.904 303.437 245.079 303.22C245.257 302.999 245.477 302.825 245.738 302.7C245.998 302.574 246.297 302.512 246.633 302.512C246.907 302.512 247.152 302.55 247.366 302.626C247.584 302.698 247.769 302.814 247.921 302.972C248.072 303.131 248.188 303.337 248.267 303.591C248.346 303.842 248.386 304.145 248.386 304.502V307.967H247.188V304.497C247.188 304.226 247.148 304.017 247.069 303.868C246.993 303.72 246.884 303.617 246.742 303.561C246.6 303.502 246.431 303.472 246.233 303.472C246.048 303.472 245.884 303.507 245.742 303.576C245.604 303.642 245.487 303.736 245.391 303.858C245.295 303.977 245.223 304.114 245.173 304.269C245.127 304.424 245.104 304.592 245.104 304.774ZM252.532 306.893V304.338C252.532 304.147 252.497 303.982 252.428 303.843C252.358 303.705 252.253 303.597 252.111 303.522C251.972 303.446 251.797 303.408 251.586 303.408C251.391 303.408 251.223 303.441 251.081 303.507C250.939 303.573 250.829 303.662 250.75 303.774C250.67 303.886 250.631 304.013 250.631 304.155H249.443C249.443 303.944 249.494 303.739 249.596 303.541C249.699 303.343 249.847 303.167 250.042 303.012C250.236 302.857 250.469 302.735 250.74 302.645C251.01 302.556 251.314 302.512 251.651 302.512C252.053 302.512 252.41 302.579 252.72 302.715C253.033 302.85 253.279 303.055 253.457 303.329C253.639 303.599 253.73 303.939 253.73 304.348V306.729C253.73 306.973 253.746 307.193 253.779 307.388C253.815 307.579 253.867 307.746 253.933 307.888V307.967H252.71C252.654 307.838 252.609 307.675 252.576 307.477C252.546 307.275 252.532 307.081 252.532 306.893ZM252.705 304.71L252.715 305.447H251.858C251.637 305.447 251.443 305.469 251.274 305.512C251.106 305.551 250.966 305.611 250.854 305.69C250.741 305.769 250.657 305.865 250.601 305.977C250.545 306.089 250.517 306.216 250.517 306.358C250.517 306.5 250.55 306.63 250.616 306.749C250.682 306.865 250.778 306.955 250.903 307.021C251.032 307.087 251.187 307.12 251.368 307.12C251.613 307.12 251.825 307.071 252.007 306.972C252.192 306.87 252.337 306.746 252.443 306.601C252.548 306.452 252.604 306.312 252.611 306.18L252.997 306.709C252.957 306.845 252.89 306.99 252.794 307.145C252.698 307.3 252.573 307.449 252.418 307.591C252.266 307.729 252.083 307.843 251.868 307.932C251.657 308.021 251.413 308.066 251.136 308.066C250.786 308.066 250.474 307.996 250.2 307.858C249.926 307.716 249.712 307.526 249.557 307.289C249.402 307.048 249.324 306.775 249.324 306.472C249.324 306.188 249.377 305.937 249.482 305.719C249.591 305.498 249.75 305.314 249.958 305.165C250.169 305.017 250.426 304.904 250.73 304.828C251.033 304.749 251.38 304.71 251.769 304.71H252.705ZM256.153 302.611V307.967H254.955V302.611H256.153ZM254.876 301.205C254.876 301.023 254.935 300.873 255.054 300.754C255.176 300.632 255.344 300.571 255.559 300.571C255.77 300.571 255.937 300.632 256.059 300.754C256.181 300.873 256.242 301.023 256.242 301.205C256.242 301.383 256.181 301.532 256.059 301.65C255.937 301.769 255.77 301.829 255.559 301.829C255.344 301.829 255.176 301.769 255.054 301.65C254.935 301.532 254.876 301.383 254.876 301.205ZM258.635 300.363V307.967H257.437V300.363H258.635Z" fill="#1BB644"/>
<path d="M190.296 330.899V331.621H186.752V330.899H190.296ZM186.932 324.929V331.621H186.044V324.929H186.932ZM189.827 327.806V328.528H186.752V327.806H189.827ZM190.25 324.929V325.655H186.752V324.929H190.25ZM192.112 327.636V331.621H191.257V326.648H192.066L192.112 327.636ZM191.937 328.946L191.542 328.932C191.545 328.592 191.589 328.278 191.675 327.99C191.761 327.699 191.888 327.446 192.057 327.231C192.225 327.017 192.435 326.851 192.686 326.735C192.938 326.615 193.229 326.556 193.56 326.556C193.793 326.556 194.007 326.589 194.203 326.657C194.399 326.721 194.569 326.824 194.713 326.965C194.857 327.106 194.969 327.287 195.049 327.507C195.129 327.728 195.169 327.994 195.169 328.307V331.621H194.318V328.348C194.318 328.088 194.274 327.88 194.185 327.723C194.099 327.567 193.976 327.454 193.817 327.383C193.658 327.31 193.471 327.273 193.256 327.273C193.005 327.273 192.795 327.317 192.627 327.406C192.458 327.495 192.323 327.618 192.222 327.774C192.121 327.93 192.047 328.109 192.002 328.312C191.959 328.511 191.937 328.722 191.937 328.946ZM195.159 328.477L194.589 328.652C194.592 328.379 194.637 328.117 194.723 327.866C194.812 327.614 194.939 327.391 195.104 327.195C195.273 326.999 195.48 326.844 195.725 326.73C195.97 326.614 196.25 326.556 196.566 326.556C196.832 326.556 197.068 326.591 197.274 326.661C197.482 326.732 197.657 326.841 197.798 326.988C197.942 327.132 198.051 327.317 198.124 327.544C198.198 327.771 198.234 328.04 198.234 328.353V331.621H197.379V328.344C197.379 328.065 197.335 327.849 197.246 327.696C197.16 327.539 197.038 327.431 196.878 327.369C196.722 327.305 196.535 327.273 196.318 327.273C196.131 327.273 195.965 327.305 195.821 327.369C195.677 327.434 195.556 327.523 195.458 327.636C195.36 327.746 195.285 327.873 195.233 328.017C195.184 328.161 195.159 328.315 195.159 328.477ZM202.454 330.771V328.21C202.454 328.014 202.414 327.844 202.335 327.7C202.258 327.553 202.141 327.44 201.985 327.36C201.829 327.28 201.636 327.241 201.406 327.241C201.192 327.241 201.003 327.277 200.841 327.351C200.681 327.424 200.556 327.521 200.464 327.64C200.375 327.76 200.33 327.889 200.33 328.027H199.48C199.48 327.849 199.526 327.673 199.618 327.498C199.71 327.323 199.842 327.166 200.013 327.025C200.188 326.881 200.396 326.767 200.638 326.684C200.884 326.599 201.156 326.556 201.457 326.556C201.818 326.556 202.137 326.617 202.413 326.74C202.692 326.862 202.909 327.048 203.065 327.296C203.225 327.541 203.304 327.849 203.304 328.22V330.536C203.304 330.702 203.318 330.878 203.346 331.065C203.376 331.252 203.421 331.413 203.479 331.548V331.621H202.592C202.549 331.523 202.515 331.393 202.491 331.23C202.466 331.065 202.454 330.912 202.454 330.771ZM202.601 328.606L202.61 329.203H201.751C201.509 329.203 201.293 329.223 201.103 329.263C200.913 329.3 200.753 329.357 200.625 329.433C200.496 329.51 200.398 329.606 200.33 329.723C200.263 329.836 200.229 329.969 200.229 330.123C200.229 330.279 200.265 330.421 200.335 330.55C200.406 330.679 200.511 330.781 200.652 330.858C200.796 330.932 200.972 330.968 201.181 330.968C201.441 330.968 201.671 330.913 201.87 330.803C202.069 330.693 202.227 330.558 202.344 330.398C202.463 330.239 202.528 330.084 202.537 329.934L202.9 330.343C202.878 330.472 202.82 330.614 202.725 330.771C202.63 330.927 202.503 331.077 202.344 331.221C202.187 331.362 202 331.48 201.783 331.575C201.568 331.667 201.326 331.713 201.057 331.713C200.72 331.713 200.424 331.647 200.17 331.515C199.918 331.384 199.722 331.207 199.581 330.987C199.443 330.763 199.374 330.513 199.374 330.238C199.374 329.971 199.426 329.737 199.531 329.534C199.635 329.329 199.785 329.159 199.981 329.024C200.177 328.886 200.413 328.782 200.689 328.711C200.965 328.641 201.273 328.606 201.613 328.606H202.601ZM205.566 326.648V331.621H204.711V326.648H205.566ZM204.647 325.328C204.647 325.191 204.688 325.074 204.771 324.979C204.856 324.884 204.982 324.837 205.148 324.837C205.31 324.837 205.434 324.884 205.52 324.979C205.609 325.074 205.653 325.191 205.653 325.328C205.653 325.46 205.609 325.574 205.52 325.669C205.434 325.761 205.31 325.806 205.148 325.806C204.982 325.806 204.856 325.761 204.771 325.669C204.688 325.574 204.647 325.46 204.647 325.328ZM207.855 324.561V331.621H207V324.561H207.855ZM212.401 327.636V331.621H211.546V326.648H212.355L212.401 327.636ZM212.226 328.946L211.831 328.932C211.834 328.592 211.878 328.278 211.964 327.99C212.05 327.699 212.177 327.446 212.346 327.231C212.514 327.017 212.724 326.851 212.975 326.735C213.227 326.615 213.518 326.556 213.849 326.556C214.082 326.556 214.296 326.589 214.492 326.657C214.688 326.721 214.859 326.824 215.003 326.965C215.147 327.106 215.258 327.287 215.338 327.507C215.418 327.728 215.458 327.994 215.458 328.307V331.621H214.607V328.348C214.607 328.088 214.563 327.88 214.474 327.723C214.388 327.567 214.266 327.454 214.106 327.383C213.947 327.31 213.76 327.273 213.545 327.273C213.294 327.273 213.084 327.317 212.916 327.406C212.747 327.495 212.612 327.618 212.511 327.774C212.41 327.93 212.337 328.109 212.291 328.312C212.248 328.511 212.226 328.722 212.226 328.946ZM215.448 328.477L214.878 328.652C214.882 328.379 214.926 328.117 215.012 327.866C215.101 327.614 215.228 327.391 215.393 327.195C215.562 326.999 215.769 326.844 216.014 326.73C216.259 326.614 216.539 326.556 216.855 326.556C217.122 326.556 217.358 326.591 217.563 326.661C217.771 326.732 217.946 326.841 218.087 326.988C218.231 327.132 218.34 327.317 218.413 327.544C218.487 327.771 218.524 328.04 218.524 328.353V331.621H217.669V328.344C217.669 328.065 217.624 327.849 217.535 327.696C217.449 327.539 217.327 327.431 217.168 327.369C217.011 327.305 216.824 327.273 216.607 327.273C216.42 327.273 216.254 327.305 216.11 327.369C215.966 327.434 215.845 327.523 215.747 327.636C215.649 327.746 215.574 327.873 215.522 328.017C215.473 328.161 215.448 328.315 215.448 328.477ZM221.874 331.713C221.528 331.713 221.214 331.655 220.932 331.538C220.653 331.419 220.413 331.252 220.21 331.037C220.011 330.823 219.858 330.568 219.751 330.274C219.644 329.98 219.59 329.658 219.59 329.309V329.116C219.59 328.711 219.65 328.351 219.769 328.036C219.889 327.717 220.051 327.447 220.256 327.227C220.462 327.006 220.695 326.839 220.955 326.726C221.216 326.612 221.485 326.556 221.764 326.556C222.12 326.556 222.426 326.617 222.683 326.74C222.944 326.862 223.157 327.034 223.322 327.254C223.488 327.472 223.61 327.729 223.69 328.027C223.77 328.321 223.81 328.643 223.81 328.992V329.373H220.096V328.679H222.959V328.615C222.947 328.394 222.901 328.18 222.821 327.971C222.745 327.763 222.622 327.591 222.454 327.457C222.285 327.322 222.055 327.254 221.764 327.254C221.571 327.254 221.393 327.296 221.231 327.378C221.068 327.458 220.929 327.578 220.813 327.737C220.696 327.896 220.606 328.091 220.541 328.321C220.477 328.551 220.445 328.816 220.445 329.116V329.309C220.445 329.545 220.477 329.767 220.541 329.976C220.609 330.181 220.705 330.362 220.831 330.518C220.96 330.674 221.114 330.797 221.295 330.886C221.479 330.975 221.687 331.019 221.92 331.019C222.221 331.019 222.475 330.958 222.683 330.835C222.892 330.713 223.074 330.549 223.23 330.343L223.745 330.752C223.638 330.915 223.502 331.07 223.336 331.217C223.171 331.364 222.967 331.483 222.725 331.575C222.486 331.667 222.202 331.713 221.874 331.713ZM227.698 330.302C227.698 330.179 227.671 330.066 227.615 329.962C227.563 329.854 227.455 329.758 227.289 329.672C227.127 329.583 226.882 329.507 226.554 329.442C226.278 329.384 226.028 329.315 225.804 329.235C225.584 329.156 225.395 329.059 225.239 328.946C225.086 328.833 224.968 328.699 224.885 328.546C224.802 328.393 224.761 328.214 224.761 328.008C224.761 327.812 224.804 327.627 224.89 327.452C224.979 327.277 225.103 327.123 225.262 326.988C225.424 326.853 225.619 326.747 225.846 326.671C226.073 326.594 226.325 326.556 226.604 326.556C227.003 326.556 227.343 326.626 227.625 326.767C227.907 326.908 228.123 327.097 228.273 327.333C228.423 327.565 228.498 327.824 228.498 328.109H227.648C227.648 327.971 227.606 327.838 227.524 327.709C227.444 327.578 227.326 327.469 227.17 327.383C227.016 327.297 226.828 327.254 226.604 327.254C226.368 327.254 226.177 327.291 226.03 327.365C225.886 327.435 225.78 327.526 225.712 327.636C225.648 327.746 225.616 327.863 225.616 327.985C225.616 328.077 225.631 328.16 225.662 328.233C225.696 328.304 225.754 328.37 225.837 328.431C225.919 328.489 226.036 328.544 226.186 328.597C226.336 328.649 226.528 328.701 226.761 328.753C227.168 328.845 227.504 328.955 227.767 329.084C228.031 329.213 228.227 329.37 228.356 329.557C228.484 329.744 228.549 329.971 228.549 330.238C228.549 330.455 228.503 330.654 228.411 330.835C228.322 331.016 228.192 331.172 228.02 331.304C227.851 331.433 227.649 331.534 227.413 331.607C227.18 331.678 226.918 331.713 226.627 331.713C226.189 331.713 225.818 331.635 225.515 331.479C225.211 331.322 224.982 331.12 224.825 330.872C224.669 330.624 224.591 330.362 224.591 330.086H225.446C225.458 330.319 225.526 330.504 225.648 330.642C225.771 330.777 225.921 330.873 226.099 330.932C226.276 330.987 226.453 331.014 226.627 331.014C226.86 331.014 227.055 330.984 227.211 330.922C227.37 330.861 227.491 330.777 227.574 330.67C227.657 330.562 227.698 330.44 227.698 330.302ZM232.561 330.302C232.561 330.179 232.534 330.066 232.479 329.962C232.426 329.854 232.318 329.758 232.152 329.672C231.99 329.583 231.745 329.507 231.417 329.442C231.141 329.384 230.891 329.315 230.668 329.235C230.447 329.156 230.258 329.059 230.102 328.946C229.949 328.833 229.831 328.699 229.748 328.546C229.666 328.393 229.624 328.214 229.624 328.008C229.624 327.812 229.667 327.627 229.753 327.452C229.842 327.277 229.966 327.123 230.125 326.988C230.288 326.853 230.482 326.747 230.709 326.671C230.936 326.594 231.188 326.556 231.467 326.556C231.866 326.556 232.206 326.626 232.488 326.767C232.77 326.908 232.986 327.097 233.136 327.333C233.286 327.565 233.361 327.824 233.361 328.109H232.511C232.511 327.971 232.469 327.838 232.387 327.709C232.307 327.578 232.189 327.469 232.033 327.383C231.88 327.297 231.691 327.254 231.467 327.254C231.231 327.254 231.04 327.291 230.893 327.365C230.749 327.435 230.643 327.526 230.576 327.636C230.511 327.746 230.479 327.863 230.479 327.985C230.479 328.077 230.494 328.16 230.525 328.233C230.559 328.304 230.617 328.37 230.7 328.431C230.782 328.489 230.899 328.544 231.049 328.597C231.199 328.649 231.391 328.701 231.624 328.753C232.031 328.845 232.367 328.955 232.63 329.084C232.894 329.213 233.09 329.37 233.219 329.557C233.347 329.744 233.412 329.971 233.412 330.238C233.412 330.455 233.366 330.654 233.274 330.835C233.185 331.016 233.055 331.172 232.883 331.304C232.715 331.433 232.512 331.534 232.276 331.607C232.043 331.678 231.781 331.713 231.49 331.713C231.052 331.713 230.681 331.635 230.378 331.479C230.075 331.322 229.845 331.12 229.688 330.872C229.532 330.624 229.454 330.362 229.454 330.086H230.309C230.321 330.319 230.389 330.504 230.511 330.642C230.634 330.777 230.784 330.873 230.962 330.932C231.139 330.987 231.316 331.014 231.49 331.014C231.723 331.014 231.918 330.984 232.074 330.922C232.233 330.861 232.354 330.777 232.437 330.67C232.52 330.562 232.561 330.44 232.561 330.302ZM237.461 330.771V328.21C237.461 328.014 237.421 327.844 237.342 327.7C237.265 327.553 237.149 327.44 236.992 327.36C236.836 327.28 236.643 327.241 236.413 327.241C236.199 327.241 236.01 327.277 235.848 327.351C235.689 327.424 235.563 327.521 235.471 327.64C235.382 327.76 235.338 327.889 235.338 328.027H234.487C234.487 327.849 234.533 327.673 234.625 327.498C234.717 327.323 234.849 327.166 235.02 327.025C235.195 326.881 235.404 326.767 235.646 326.684C235.891 326.599 236.163 326.556 236.464 326.556C236.825 326.556 237.144 326.617 237.42 326.74C237.699 326.862 237.916 327.048 238.073 327.296C238.232 327.541 238.312 327.849 238.312 328.22V330.536C238.312 330.702 238.325 330.878 238.353 331.065C238.384 331.252 238.428 331.413 238.486 331.548V331.621H237.599C237.556 331.523 237.523 331.393 237.498 331.23C237.473 331.065 237.461 330.912 237.461 330.771ZM237.608 328.606L237.618 329.203H236.758C236.516 329.203 236.3 329.223 236.11 329.263C235.92 329.3 235.761 329.357 235.632 329.433C235.503 329.51 235.405 329.606 235.338 329.723C235.27 329.836 235.237 329.969 235.237 330.123C235.237 330.279 235.272 330.421 235.342 330.55C235.413 330.679 235.518 330.781 235.659 330.858C235.803 330.932 235.98 330.968 236.188 330.968C236.448 330.968 236.678 330.913 236.877 330.803C237.077 330.693 237.234 330.558 237.351 330.398C237.47 330.239 237.535 330.084 237.544 329.934L237.907 330.343C237.886 330.472 237.827 330.614 237.732 330.771C237.637 330.927 237.51 331.077 237.351 331.221C237.195 331.362 237.008 331.48 236.79 331.575C236.576 331.667 236.334 331.713 236.064 331.713C235.727 331.713 235.431 331.647 235.177 331.515C234.925 331.384 234.729 331.207 234.588 330.987C234.451 330.763 234.382 330.513 234.382 330.238C234.382 329.971 234.434 329.737 234.538 329.534C234.642 329.329 234.792 329.159 234.988 329.024C235.184 328.886 235.42 328.782 235.696 328.711C235.972 328.641 236.28 328.606 236.62 328.606H237.608ZM242.871 326.648H243.644V331.515C243.644 331.954 243.555 332.327 243.377 332.637C243.199 332.946 242.951 333.181 242.632 333.34C242.317 333.503 241.952 333.584 241.538 333.584C241.367 333.584 241.165 333.556 240.932 333.501C240.702 333.449 240.475 333.359 240.251 333.23C240.031 333.104 239.845 332.934 239.695 332.72L240.141 332.214C240.349 332.465 240.567 332.64 240.794 332.738C241.024 332.836 241.25 332.885 241.474 332.885C241.744 332.885 241.977 332.835 242.173 332.733C242.369 332.632 242.52 332.482 242.628 332.283C242.738 332.087 242.793 331.845 242.793 331.557V327.742L242.871 326.648ZM239.447 329.19V329.093C239.447 328.713 239.491 328.368 239.58 328.059C239.672 327.746 239.802 327.478 239.971 327.254C240.143 327.031 240.349 326.859 240.591 326.74C240.834 326.617 241.106 326.556 241.41 326.556C241.722 326.556 241.995 326.611 242.228 326.721C242.464 326.828 242.663 326.986 242.825 327.195C242.991 327.4 243.121 327.648 243.216 327.939C243.311 328.23 243.377 328.56 243.414 328.928V329.35C243.38 329.715 243.314 330.043 243.216 330.334C243.121 330.625 242.991 330.873 242.825 331.079C242.663 331.284 242.464 331.442 242.228 331.552C241.992 331.659 241.716 331.713 241.4 331.713C241.103 331.713 240.834 331.65 240.591 331.525C240.352 331.399 240.147 331.223 239.976 330.996C239.804 330.769 239.672 330.503 239.58 330.196C239.491 329.887 239.447 329.551 239.447 329.19ZM240.297 329.093V329.19C240.297 329.438 240.322 329.671 240.371 329.888C240.423 330.106 240.501 330.297 240.605 330.463C240.713 330.628 240.849 330.758 241.014 330.853C241.18 330.945 241.377 330.991 241.607 330.991C241.889 330.991 242.122 330.932 242.306 330.812C242.49 330.693 242.635 330.535 242.743 330.339C242.853 330.143 242.939 329.93 243 329.7V328.592C242.966 328.423 242.914 328.261 242.844 328.105C242.776 327.945 242.688 327.804 242.577 327.682C242.47 327.556 242.337 327.457 242.177 327.383C242.018 327.31 241.831 327.273 241.617 327.273C241.384 327.273 241.183 327.322 241.014 327.42C240.849 327.515 240.713 327.647 240.605 327.815C240.501 327.981 240.423 328.174 240.371 328.394C240.322 328.612 240.297 328.845 240.297 329.093ZM246.999 331.713C246.653 331.713 246.339 331.655 246.057 331.538C245.778 331.419 245.537 331.252 245.335 331.037C245.136 330.823 244.983 330.568 244.875 330.274C244.768 329.98 244.715 329.658 244.715 329.309V329.116C244.715 328.711 244.774 328.351 244.894 328.036C245.013 327.717 245.176 327.447 245.381 327.227C245.586 327.006 245.819 326.839 246.08 326.726C246.34 326.612 246.61 326.556 246.889 326.556C247.244 326.556 247.551 326.617 247.808 326.74C248.069 326.862 248.281 327.034 248.447 327.254C248.612 327.472 248.735 327.729 248.815 328.027C248.894 328.321 248.934 328.643 248.934 328.992V329.373H245.22V328.679H248.084V328.615C248.072 328.394 248.026 328.18 247.946 327.971C247.869 327.763 247.747 327.591 247.578 327.457C247.41 327.322 247.18 327.254 246.889 327.254C246.696 327.254 246.518 327.296 246.356 327.378C246.193 327.458 246.054 327.578 245.937 327.737C245.821 327.896 245.73 328.091 245.666 328.321C245.602 328.551 245.57 328.816 245.57 329.116V329.309C245.57 329.545 245.602 329.767 245.666 329.976C245.733 330.181 245.83 330.362 245.956 330.518C246.084 330.674 246.239 330.797 246.42 330.886C246.604 330.975 246.812 331.019 247.045 331.019C247.345 331.019 247.6 330.958 247.808 330.835C248.016 330.713 248.199 330.549 248.355 330.343L248.87 330.752C248.763 330.915 248.626 331.07 248.461 331.217C248.295 331.364 248.091 331.483 247.849 331.575C247.61 331.667 247.327 331.713 246.999 331.713Z" fill="#6E7F9D"/>
<path d="M188.458 344.171H186.752L186.743 343.33H188.232C188.484 343.33 188.697 343.293 188.871 343.219C189.049 343.143 189.184 343.034 189.276 342.893C189.368 342.749 189.414 342.576 189.414 342.374C189.414 342.15 189.371 341.968 189.285 341.827C189.199 341.686 189.067 341.583 188.89 341.519C188.715 341.454 188.491 341.422 188.219 341.422H187.102V347.195H185.948V340.503H188.219C188.586 340.503 188.914 340.538 189.202 340.608C189.493 340.679 189.74 340.789 189.942 340.939C190.148 341.087 190.302 341.273 190.407 341.5C190.514 341.727 190.567 341.997 190.567 342.309C190.567 342.585 190.501 342.838 190.37 343.068C190.238 343.294 190.043 343.48 189.786 343.624C189.529 343.768 189.208 343.854 188.825 343.881L188.458 344.171ZM188.407 347.195H186.389L186.909 346.281H188.407C188.667 346.281 188.885 346.238 189.06 346.152C189.234 346.063 189.365 345.942 189.45 345.789C189.539 345.632 189.584 345.45 189.584 345.242C189.584 345.024 189.545 344.836 189.469 344.676C189.392 344.514 189.271 344.39 189.106 344.304C188.94 344.215 188.724 344.171 188.458 344.171H187.161L187.171 343.33H188.857L189.119 343.647C189.487 343.659 189.789 343.74 190.025 343.89C190.264 344.041 190.442 344.235 190.558 344.474C190.675 344.713 190.733 344.971 190.733 345.246C190.733 345.672 190.639 346.029 190.452 346.317C190.269 346.605 190.004 346.825 189.657 346.975C189.311 347.122 188.894 347.195 188.407 347.195ZM193.978 347.287C193.61 347.287 193.278 347.227 192.981 347.108C192.686 346.985 192.435 346.815 192.227 346.598C192.021 346.38 191.864 346.124 191.753 345.83C191.643 345.536 191.588 345.219 191.588 344.879V344.695C191.588 344.306 191.645 343.953 191.758 343.638C191.871 343.322 192.029 343.052 192.231 342.829C192.434 342.602 192.673 342.429 192.948 342.309C193.224 342.19 193.523 342.13 193.845 342.13C194.2 342.13 194.511 342.19 194.778 342.309C195.044 342.429 195.265 342.597 195.44 342.815C195.617 343.029 195.749 343.285 195.835 343.582C195.924 343.88 195.968 344.208 195.968 344.566V345.04H192.126V344.244H194.874V344.157C194.868 343.958 194.828 343.771 194.755 343.596C194.684 343.422 194.576 343.281 194.428 343.173C194.281 343.066 194.085 343.012 193.84 343.012C193.656 343.012 193.492 343.052 193.348 343.132C193.207 343.209 193.089 343.32 192.994 343.468C192.899 343.615 192.826 343.792 192.774 344.001C192.725 344.206 192.7 344.437 192.7 344.695V344.879C192.7 345.096 192.729 345.298 192.788 345.485C192.849 345.669 192.938 345.83 193.054 345.968C193.171 346.106 193.312 346.215 193.477 346.294C193.642 346.371 193.831 346.409 194.042 346.409C194.309 346.409 194.546 346.356 194.755 346.248C194.963 346.141 195.144 345.989 195.297 345.793L195.881 346.359C195.774 346.515 195.634 346.665 195.463 346.809C195.291 346.95 195.081 347.065 194.833 347.154C194.588 347.243 194.303 347.287 193.978 347.287ZM199.623 345.849C199.623 345.738 199.595 345.639 199.54 345.55C199.485 345.458 199.379 345.375 199.223 345.302C199.069 345.228 198.843 345.161 198.542 345.099C198.279 345.041 198.037 344.972 197.816 344.892C197.599 344.81 197.412 344.71 197.255 344.594C197.099 344.477 196.978 344.339 196.892 344.18C196.806 344.021 196.764 343.837 196.764 343.628C196.764 343.426 196.808 343.235 196.897 343.054C196.986 342.873 197.113 342.714 197.278 342.576C197.444 342.438 197.645 342.329 197.88 342.249C198.119 342.17 198.386 342.13 198.68 342.13C199.097 342.13 199.454 342.2 199.751 342.341C200.052 342.479 200.281 342.668 200.441 342.907C200.6 343.143 200.68 343.409 200.68 343.707H199.572C199.572 343.575 199.538 343.452 199.471 343.339C199.407 343.222 199.308 343.129 199.177 343.058C199.045 342.985 198.879 342.948 198.68 342.948C198.49 342.948 198.332 342.979 198.207 343.04C198.084 343.098 197.992 343.175 197.931 343.27C197.873 343.365 197.844 343.469 197.844 343.582C197.844 343.665 197.859 343.74 197.89 343.808C197.923 343.872 197.979 343.932 198.055 343.987C198.132 344.039 198.236 344.088 198.368 344.134C198.503 344.18 198.671 344.224 198.873 344.267C199.253 344.347 199.58 344.45 199.852 344.575C200.128 344.698 200.34 344.857 200.487 345.053C200.634 345.246 200.707 345.492 200.707 345.789C200.707 346.009 200.66 346.212 200.565 346.396C200.473 346.576 200.338 346.734 200.16 346.869C199.983 347.001 199.77 347.103 199.521 347.177C199.276 347.25 199 347.287 198.694 347.287C198.244 347.287 197.862 347.208 197.55 347.048C197.237 346.886 196.999 346.679 196.837 346.428C196.678 346.173 196.598 345.91 196.598 345.637H197.669C197.681 345.842 197.738 346.006 197.839 346.129C197.943 346.248 198.072 346.336 198.225 346.391C198.381 346.443 198.542 346.469 198.708 346.469C198.907 346.469 199.074 346.443 199.209 346.391C199.344 346.336 199.446 346.262 199.517 346.17C199.587 346.075 199.623 345.968 199.623 345.849ZM203.957 342.222V343.031H201.153V342.222H203.957ZM201.962 341.004H203.07V345.821C203.07 345.974 203.091 346.092 203.134 346.175C203.18 346.255 203.243 346.308 203.323 346.336C203.402 346.363 203.496 346.377 203.603 346.377C203.68 346.377 203.753 346.373 203.824 346.363C203.894 346.354 203.951 346.345 203.994 346.336L203.998 347.182C203.907 347.209 203.799 347.234 203.677 347.255C203.557 347.277 203.419 347.287 203.263 347.287C203.009 347.287 202.783 347.243 202.587 347.154C202.391 347.062 202.238 346.913 202.128 346.708C202.017 346.503 201.962 346.23 201.962 345.89V341.004ZM207.602 345.849C207.602 345.738 207.575 345.639 207.519 345.55C207.464 345.458 207.359 345.375 207.202 345.302C207.049 345.228 206.822 345.161 206.522 345.099C206.258 345.041 206.016 344.972 205.796 344.892C205.578 344.81 205.391 344.71 205.235 344.594C205.079 344.477 204.958 344.339 204.872 344.18C204.786 344.021 204.743 343.837 204.743 343.628C204.743 343.426 204.788 343.235 204.876 343.054C204.965 342.873 205.092 342.714 205.258 342.576C205.423 342.438 205.624 342.329 205.86 342.249C206.099 342.17 206.366 342.13 206.66 342.13C207.077 342.13 207.434 342.2 207.731 342.341C208.031 342.479 208.261 342.668 208.42 342.907C208.58 343.143 208.659 343.409 208.659 343.707H207.552C207.552 343.575 207.518 343.452 207.45 343.339C207.386 343.222 207.288 343.129 207.156 343.058C207.025 342.985 206.859 342.948 206.66 342.948C206.47 342.948 206.312 342.979 206.186 343.04C206.064 343.098 205.972 343.175 205.911 343.27C205.852 343.365 205.823 343.469 205.823 343.582C205.823 343.665 205.839 343.74 205.869 343.808C205.903 343.872 205.958 343.932 206.035 343.987C206.111 344.039 206.216 344.088 206.347 344.134C206.482 344.18 206.651 344.224 206.853 344.267C207.233 344.347 207.559 344.45 207.832 344.575C208.108 344.698 208.319 344.857 208.466 345.053C208.613 345.246 208.687 345.492 208.687 345.789C208.687 346.009 208.639 346.212 208.544 346.396C208.453 346.576 208.318 346.734 208.14 346.869C207.962 347.001 207.749 347.103 207.501 347.177C207.256 347.25 206.98 347.287 206.674 347.287C206.223 347.287 205.842 347.208 205.529 347.048C205.217 346.886 204.979 346.679 204.817 346.428C204.657 346.173 204.578 345.91 204.578 345.637H205.649C205.661 345.842 205.718 346.006 205.819 346.129C205.923 346.248 206.052 346.336 206.205 346.391C206.361 346.443 206.522 346.469 206.687 346.469C206.887 346.469 207.054 346.443 207.188 346.391C207.323 346.336 207.426 346.262 207.496 346.17C207.567 346.075 207.602 345.968 207.602 345.849ZM211.849 347.287C211.482 347.287 211.149 347.227 210.852 347.108C210.558 346.985 210.306 346.815 210.098 346.598C209.893 346.38 209.735 346.124 209.625 345.83C209.514 345.536 209.459 345.219 209.459 344.879V344.695C209.459 344.306 209.516 343.953 209.629 343.638C209.743 343.322 209.9 343.052 210.103 342.829C210.305 342.602 210.544 342.429 210.82 342.309C211.096 342.19 211.394 342.13 211.716 342.13C212.072 342.13 212.383 342.19 212.649 342.309C212.916 342.429 213.136 342.597 213.311 342.815C213.489 343.029 213.621 343.285 213.706 343.582C213.795 343.88 213.84 344.208 213.84 344.566V345.04H209.997V344.244H212.746V344.157C212.74 343.958 212.7 343.771 212.626 343.596C212.556 343.422 212.447 343.281 212.3 343.173C212.153 343.066 211.957 343.012 211.711 343.012C211.528 343.012 211.364 343.052 211.22 343.132C211.079 343.209 210.961 343.32 210.866 343.468C210.771 343.615 210.697 343.792 210.645 344.001C210.596 344.206 210.572 344.437 210.572 344.695V344.879C210.572 345.096 210.601 345.298 210.659 345.485C210.72 345.669 210.809 345.83 210.925 345.968C211.042 346.106 211.183 346.215 211.348 346.294C211.514 346.371 211.702 346.409 211.914 346.409C212.18 346.409 212.418 346.356 212.626 346.248C212.835 346.141 213.015 345.989 213.169 345.793L213.752 346.359C213.645 346.515 213.506 346.665 213.334 346.809C213.162 346.95 212.953 347.065 212.704 347.154C212.459 347.243 212.174 347.287 211.849 347.287ZM215.89 340.135V347.195H214.777V340.135H215.89ZM218.289 340.135V347.195H217.177V340.135H218.289ZM221.695 347.287C221.327 347.287 220.995 347.227 220.698 347.108C220.403 346.985 220.152 346.815 219.944 346.598C219.739 346.38 219.581 346.124 219.47 345.83C219.36 345.536 219.305 345.219 219.305 344.879V344.695C219.305 344.306 219.362 343.953 219.475 343.638C219.588 343.322 219.746 343.052 219.948 342.829C220.151 342.602 220.39 342.429 220.665 342.309C220.941 342.19 221.24 342.13 221.562 342.13C221.917 342.13 222.228 342.19 222.495 342.309C222.762 342.429 222.982 342.597 223.157 342.815C223.335 343.029 223.466 343.285 223.552 343.582C223.641 343.88 223.685 344.208 223.685 344.566V345.04H219.843V344.244H222.591V344.157C222.585 343.958 222.545 343.771 222.472 343.596C222.401 343.422 222.293 343.281 222.146 343.173C221.998 343.066 221.802 343.012 221.557 343.012C221.373 343.012 221.209 343.052 221.065 343.132C220.924 343.209 220.806 343.32 220.711 343.468C220.616 343.615 220.543 343.792 220.491 344.001C220.442 344.206 220.417 344.437 220.417 344.695V344.879C220.417 345.096 220.446 345.298 220.505 345.485C220.566 345.669 220.655 345.83 220.771 345.968C220.888 346.106 221.029 346.215 221.194 346.294C221.36 346.371 221.548 346.409 221.759 346.409C222.026 346.409 222.264 346.356 222.472 346.248C222.68 346.141 222.861 345.989 223.014 345.793L223.598 346.359C223.491 346.515 223.351 346.665 223.18 346.809C223.008 346.95 222.798 347.065 222.55 347.154C222.305 347.243 222.02 347.287 221.695 347.287ZM225.662 343.169V347.195H224.554V342.222H225.611L225.662 343.169ZM227.183 342.19L227.174 343.219C227.107 343.207 227.033 343.198 226.954 343.192C226.877 343.186 226.8 343.183 226.724 343.183C226.534 343.183 226.367 343.21 226.223 343.265C226.079 343.317 225.958 343.394 225.86 343.495C225.765 343.593 225.691 343.713 225.639 343.854C225.587 343.995 225.556 344.152 225.547 344.327L225.294 344.345C225.294 344.033 225.325 343.743 225.386 343.477C225.447 343.21 225.539 342.976 225.662 342.773C225.788 342.571 225.944 342.413 226.131 342.3C226.321 342.187 226.54 342.13 226.788 342.13C226.855 342.13 226.928 342.136 227.004 342.148C227.084 342.161 227.144 342.174 227.183 342.19ZM231.334 343.178V349.107H230.226V342.222H231.247L231.334 343.178ZM234.575 344.663V344.759C234.575 345.121 234.532 345.456 234.446 345.766C234.363 346.072 234.239 346.34 234.074 346.57C233.911 346.797 233.71 346.973 233.471 347.099C233.232 347.224 232.957 347.287 232.644 347.287C232.335 347.287 232.063 347.231 231.83 347.117C231.601 347.001 231.406 346.837 231.247 346.625C231.087 346.414 230.959 346.166 230.861 345.881C230.766 345.593 230.698 345.277 230.658 344.934V344.561C230.698 344.197 230.766 343.866 230.861 343.569C230.959 343.271 231.087 343.016 231.247 342.801C231.406 342.587 231.601 342.421 231.83 342.305C232.06 342.188 232.328 342.13 232.635 342.13C232.947 342.13 233.225 342.191 233.467 342.314C233.709 342.433 233.913 342.605 234.078 342.829C234.244 343.049 234.368 343.316 234.451 343.628C234.533 343.938 234.575 344.283 234.575 344.663ZM233.467 344.759V344.663C233.467 344.433 233.445 344.22 233.402 344.024C233.36 343.825 233.292 343.65 233.2 343.5C233.108 343.35 232.99 343.233 232.846 343.15C232.705 343.065 232.535 343.022 232.336 343.022C232.14 343.022 231.971 343.055 231.83 343.123C231.69 343.187 231.572 343.278 231.477 343.394C231.382 343.51 231.308 343.647 231.256 343.803C231.204 343.956 231.167 344.123 231.146 344.304V345.196C231.182 345.416 231.245 345.619 231.334 345.803C231.423 345.986 231.549 346.134 231.711 346.244C231.876 346.351 232.088 346.405 232.345 346.405C232.544 346.405 232.715 346.362 232.856 346.276C232.996 346.19 233.111 346.072 233.2 345.922C233.292 345.769 233.36 345.593 233.402 345.393C233.445 345.194 233.467 344.983 233.467 344.759ZM236.629 343.169V347.195H235.522V342.222H236.579L236.629 343.169ZM238.151 342.19L238.142 343.219C238.074 343.207 238.001 343.198 237.921 343.192C237.844 343.186 237.768 343.183 237.691 343.183C237.501 343.183 237.334 343.21 237.19 343.265C237.046 343.317 236.925 343.394 236.827 343.495C236.732 343.593 236.658 343.713 236.606 343.854C236.554 343.995 236.524 344.152 236.514 344.327L236.262 344.345C236.262 344.033 236.292 343.743 236.353 343.477C236.415 343.21 236.507 342.976 236.629 342.773C236.755 342.571 236.911 342.413 237.098 342.3C237.288 342.187 237.507 342.13 237.755 342.13C237.823 342.13 237.895 342.136 237.971 342.148C238.051 342.161 238.111 342.174 238.151 342.19ZM238.514 344.764V344.658C238.514 344.299 238.566 343.967 238.67 343.661C238.774 343.351 238.924 343.083 239.121 342.856C239.32 342.626 239.562 342.449 239.847 342.323C240.135 342.194 240.46 342.13 240.821 342.13C241.186 342.13 241.511 342.194 241.796 342.323C242.084 342.449 242.327 342.626 242.527 342.856C242.726 343.083 242.877 343.351 242.982 343.661C243.086 343.967 243.138 344.299 243.138 344.658V344.764C243.138 345.122 243.086 345.455 242.982 345.761C242.877 346.068 242.726 346.336 242.527 346.566C242.327 346.792 242.085 346.97 241.8 347.099C241.515 347.224 241.192 347.287 240.83 347.287C240.466 347.287 240.139 347.224 239.851 347.099C239.566 346.97 239.324 346.792 239.125 346.566C238.926 346.336 238.774 346.068 238.67 345.761C238.566 345.455 238.514 345.122 238.514 344.764ZM239.622 344.658V344.764C239.622 344.987 239.645 345.199 239.691 345.398C239.737 345.597 239.809 345.772 239.907 345.922C240.005 346.072 240.13 346.19 240.284 346.276C240.437 346.362 240.619 346.405 240.83 346.405C241.036 346.405 241.214 346.362 241.364 346.276C241.517 346.19 241.643 346.072 241.741 345.922C241.839 345.772 241.911 345.597 241.957 345.398C242.006 345.199 242.03 344.987 242.03 344.764V344.658C242.03 344.437 242.006 344.229 241.957 344.033C241.911 343.834 241.837 343.658 241.736 343.504C241.638 343.351 241.512 343.232 241.359 343.146C241.209 343.057 241.03 343.012 240.821 343.012C240.613 343.012 240.432 343.057 240.279 343.146C240.129 343.232 240.005 343.351 239.907 343.504C239.809 343.658 239.737 343.834 239.691 344.033C239.645 344.229 239.622 344.437 239.622 344.658ZM247.1 346.166V340.135H248.213V347.195H247.206L247.1 346.166ZM243.864 344.764V344.667C243.864 344.29 243.909 343.947 243.998 343.638C244.086 343.325 244.215 343.057 244.384 342.833C244.552 342.606 244.757 342.433 245 342.314C245.242 342.191 245.514 342.13 245.818 342.13C246.118 342.13 246.382 342.188 246.608 342.305C246.835 342.421 247.028 342.588 247.188 342.806C247.347 343.02 247.474 343.278 247.569 343.578C247.664 343.875 247.731 344.206 247.771 344.571V344.879C247.731 345.234 247.664 345.559 247.569 345.853C247.474 346.147 247.347 346.402 247.188 346.616C247.028 346.831 246.834 346.996 246.604 347.113C246.377 347.229 246.112 347.287 245.809 347.287C245.508 347.287 245.237 347.224 244.995 347.099C244.756 346.973 244.552 346.797 244.384 346.57C244.215 346.343 244.086 346.077 243.998 345.77C243.909 345.461 243.864 345.125 243.864 344.764ZM244.972 344.667V344.764C244.972 344.991 244.992 345.202 245.032 345.398C245.075 345.594 245.141 345.767 245.229 345.917C245.318 346.065 245.433 346.181 245.574 346.267C245.718 346.35 245.89 346.391 246.089 346.391C246.34 346.391 246.547 346.336 246.709 346.225C246.872 346.115 246.999 345.967 247.091 345.78C247.186 345.59 247.25 345.378 247.284 345.145V344.313C247.266 344.132 247.227 343.964 247.169 343.808C247.114 343.651 247.039 343.515 246.944 343.399C246.849 343.279 246.731 343.187 246.59 343.123C246.452 343.055 246.288 343.022 246.098 343.022C245.896 343.022 245.724 343.065 245.583 343.15C245.442 343.236 245.326 343.354 245.234 343.504C245.145 343.654 245.079 343.829 245.036 344.028C244.993 344.227 244.972 344.44 244.972 344.667ZM252.363 346.023V342.222H253.476V347.195H252.428L252.363 346.023ZM252.519 344.989L252.892 344.98C252.892 345.314 252.855 345.622 252.781 345.904C252.708 346.183 252.595 346.426 252.441 346.635C252.288 346.84 252.092 347.001 251.853 347.117C251.614 347.231 251.327 347.287 250.993 347.287C250.751 347.287 250.529 347.252 250.327 347.182C250.125 347.111 249.95 347.002 249.803 346.855C249.659 346.708 249.547 346.517 249.467 346.281C249.388 346.045 249.348 345.763 249.348 345.435V342.222H250.456V345.444C250.456 345.625 250.477 345.777 250.52 345.899C250.563 346.019 250.621 346.115 250.695 346.189C250.768 346.262 250.854 346.314 250.952 346.345C251.05 346.376 251.154 346.391 251.265 346.391C251.58 346.391 251.828 346.33 252.009 346.207C252.193 346.081 252.323 345.913 252.4 345.701C252.48 345.49 252.519 345.253 252.519 344.989ZM256.643 346.405C256.823 346.405 256.986 346.369 257.13 346.299C257.277 346.225 257.395 346.124 257.484 345.996C257.576 345.867 257.626 345.718 257.635 345.55H258.679C258.673 345.872 258.578 346.164 258.394 346.428C258.21 346.691 257.966 346.901 257.663 347.057C257.36 347.211 257.024 347.287 256.656 347.287C256.276 347.287 255.945 347.223 255.664 347.094C255.382 346.962 255.147 346.782 254.96 346.552C254.773 346.322 254.632 346.057 254.537 345.757C254.445 345.456 254.399 345.135 254.399 344.791V344.63C254.399 344.287 254.445 343.965 254.537 343.665C254.632 343.362 254.773 343.095 254.96 342.865C255.147 342.636 255.382 342.456 255.664 342.328C255.945 342.196 256.275 342.13 256.652 342.13C257.05 342.13 257.399 342.21 257.7 342.369C258 342.525 258.236 342.744 258.408 343.026C258.582 343.305 258.673 343.63 258.679 344.001H257.635C257.626 343.817 257.58 343.651 257.498 343.504C257.418 343.354 257.304 343.235 257.157 343.146C257.013 343.057 256.84 343.012 256.638 343.012C256.414 343.012 256.229 343.058 256.082 343.15C255.935 343.239 255.82 343.362 255.737 343.518C255.654 343.671 255.595 343.844 255.558 344.037C255.524 344.227 255.507 344.425 255.507 344.63V344.791C255.507 344.997 255.524 345.196 255.558 345.389C255.592 345.582 255.65 345.755 255.732 345.908C255.818 346.058 255.935 346.179 256.082 346.271C256.229 346.36 256.416 346.405 256.643 346.405ZM261.809 342.222V343.031H259.005V342.222H261.809ZM259.814 341.004H260.922V345.821C260.922 345.974 260.943 346.092 260.986 346.175C261.032 346.255 261.095 346.308 261.175 346.336C261.254 346.363 261.348 346.377 261.455 346.377C261.532 346.377 261.605 346.373 261.676 346.363C261.746 346.354 261.803 346.345 261.846 346.336L261.85 347.182C261.759 347.209 261.651 347.234 261.529 347.255C261.409 347.277 261.271 347.287 261.115 347.287C260.861 347.287 260.635 347.243 260.439 347.154C260.243 347.062 260.09 346.913 259.98 346.708C259.869 346.503 259.814 346.23 259.814 345.89V341.004ZM265.454 345.849C265.454 345.738 265.427 345.639 265.371 345.55C265.316 345.458 265.211 345.375 265.054 345.302C264.901 345.228 264.674 345.161 264.374 345.099C264.11 345.041 263.868 344.972 263.648 344.892C263.43 344.81 263.243 344.71 263.087 344.594C262.931 344.477 262.81 344.339 262.724 344.18C262.638 344.021 262.595 343.837 262.595 343.628C262.595 343.426 262.64 343.235 262.728 343.054C262.817 342.873 262.944 342.714 263.11 342.576C263.275 342.438 263.476 342.329 263.712 342.249C263.951 342.17 264.218 342.13 264.512 342.13C264.929 342.13 265.286 342.2 265.583 342.341C265.883 342.479 266.113 342.668 266.272 342.907C266.432 343.143 266.511 343.409 266.511 343.707H265.404C265.404 343.575 265.37 343.452 265.302 343.339C265.238 343.222 265.14 343.129 265.008 343.058C264.877 342.985 264.711 342.948 264.512 342.948C264.322 342.948 264.164 342.979 264.038 343.04C263.916 343.098 263.824 343.175 263.763 343.27C263.704 343.365 263.675 343.469 263.675 343.582C263.675 343.665 263.691 343.74 263.721 343.808C263.755 343.872 263.81 343.932 263.887 343.987C263.963 344.039 264.068 344.088 264.199 344.134C264.334 344.18 264.503 344.224 264.705 344.267C265.085 344.347 265.411 344.45 265.684 344.575C265.96 344.698 266.171 344.857 266.318 345.053C266.465 345.246 266.539 345.492 266.539 345.789C266.539 346.009 266.491 346.212 266.396 346.396C266.304 346.576 266.17 346.734 265.992 346.869C265.814 347.001 265.601 347.103 265.353 347.177C265.108 347.25 264.832 347.287 264.526 347.287C264.075 347.287 263.694 347.208 263.381 347.048C263.069 346.886 262.831 346.679 262.669 346.428C262.509 346.173 262.43 345.91 262.43 345.637H263.501C263.513 345.842 263.57 346.006 263.671 346.129C263.775 346.248 263.904 346.336 264.057 346.391C264.213 346.443 264.374 346.469 264.539 346.469C264.739 346.469 264.906 346.443 265.04 346.391C265.175 346.336 265.278 346.262 265.348 346.17C265.419 346.075 265.454 345.968 265.454 345.849Z" fill="#4D8CFF"/>
<g filter="url(#filter2_d_17408_9628)">
<ellipse cx="373.31" cy="284.692" rx="7.24131" ry="7.24132" fill="white"/>
</g>
<path fill-rule="evenodd" clip-rule="evenodd" d="M376.212 287.998L370.63 282.315L371.137 281.799L376.719 287.481L376.212 287.998Z" fill="#999999"/>
<path fill-rule="evenodd" clip-rule="evenodd" d="M376.503 282.424L370.921 288.106L370.413 287.59L375.995 281.908L376.503 282.424Z" fill="#999999"/>
<path d="M277.303 115.344C277.303 117.331 275.684 118.948 273.682 118.948C271.68 118.948 270.062 117.331 270.062 115.344C270.062 113.356 271.68 111.74 273.682 111.74C275.684 111.74 277.303 113.356 277.303 115.344Z" fill="white" stroke="#95A1AC" stroke-width="1.44826"/>
<path d="M273.682 119.672V155.065" stroke="#95A1AC" stroke-width="0.724131"/>
<path d="M277.303 159.392C277.303 161.38 275.684 162.996 273.682 162.996C271.68 162.996 270.062 161.38 270.062 159.392C270.062 157.405 271.68 155.789 273.682 155.789C275.684 155.789 277.303 157.405 277.303 159.392Z" fill="#1BB644" stroke="white" stroke-width="1.44826"/>
<path d="M277.302 239.463C277.302 241.451 275.684 243.067 273.682 243.067C271.679 243.067 270.061 241.451 270.061 239.463C270.061 237.475 271.679 235.859 273.682 235.859C275.684 235.859 277.302 237.475 277.302 239.463Z" fill="white" stroke="#95A1AC" stroke-width="1.44826"/>
<path d="M273.682 243.791V279.184" stroke="#95A1AC" stroke-width="0.724131"/>
<path d="M277.302 283.512C277.302 285.499 275.684 287.115 273.682 287.115C271.679 287.115 270.061 285.499 270.061 283.512C270.061 281.524 271.679 279.908 273.682 279.908C275.684 279.908 277.302 281.524 277.302 283.512Z" fill="#1BB644" stroke="white" stroke-width="1.44826"/>
<defs>
<filter id="filter0_d_17408_9628" x="360.275" y="43.6367" width="26.0685" height="26.0685" filterUnits="userSpaceOnUse" color-interpolation-filters="sRGB">
<feFlood flood-opacity="0" result="BackgroundImageFix"/>
<feColorMatrix in="SourceAlpha" type="matrix" values="0 0 0 0 0 0 0 0 0 0 0 0 0 0 0 0 0 0 127 0" result="hardAlpha"/>
<feOffset dy="2.89652"/>
<feGaussianBlur stdDeviation="2.89652"/>
<feComposite in2="hardAlpha" operator="out"/>
<feColorMatrix type="matrix" values="0 0 0 0 0 0 0 0 0 0 0 0 0 0 0 0 0 0 0.1 0"/>
<feBlend mode="normal" in2="BackgroundImageFix" result="effect1_dropShadow_17408_9628"/>
<feBlend mode="normal" in="SourceGraphic" in2="effect1_dropShadow_17408_9628" result="shape"/>
</filter>
<filter id="filter1_d_17408_9628" x="360.275" y="150.434" width="26.0685" height="26.0685" filterUnits="userSpaceOnUse" color-interpolation-filters="sRGB">
<feFlood flood-opacity="0" result="BackgroundImageFix"/>
<feColorMatrix in="SourceAlpha" type="matrix" values="0 0 0 0 0 0 0 0 0 0 0 0 0 0 0 0 0 0 127 0" result="hardAlpha"/>
<feOffset dy="2.89652"/>
<feGaussianBlur stdDeviation="2.89652"/>
<feComposite in2="hardAlpha" operator="out"/>
<feColorMatrix type="matrix" values="0 0 0 0 0 0 0 0 0 0 0 0 0 0 0 0 0 0 0.1 0"/>
<feBlend mode="normal" in2="BackgroundImageFix" result="effect1_dropShadow_17408_9628"/>
<feBlend mode="normal" in="SourceGraphic" in2="effect1_dropShadow_17408_9628" result="shape"/>
</filter>
<filter id="filter2_d_17408_9628" x="360.275" y="274.555" width="26.0685" height="26.0685" filterUnits="userSpaceOnUse" color-interpolation-filters="sRGB">
<feFlood flood-opacity="0" result="BackgroundImageFix"/>
<feColorMatrix in="SourceAlpha" type="matrix" values="0 0 0 0 0 0 0 0 0 0 0 0 0 0 0 0 0 0 127 0" result="hardAlpha"/>
<feOffset dy="2.89652"/>
<feGaussianBlur stdDeviation="2.89652"/>
<feComposite in2="hardAlpha" operator="out"/>
<feColorMatrix type="matrix" values="0 0 0 0 0 0 0 0 0 0 0 0 0 0 0 0 0 0 0.1 0"/>
<feBlend mode="normal" in2="BackgroundImageFix" result="effect1_dropShadow_17408_9628"/>
<feBlend mode="normal" in="SourceGraphic" in2="effect1_dropShadow_17408_9628" result="shape"/>
</filter>
</defs>
</svg>
