<svg width="548" height="416" viewBox="0 0 548 416" fill="none" xmlns="http://www.w3.org/2000/svg">
<rect x="0.681641" y="1.10352" width="546" height="414" rx="11.5" fill="#FAFCFF" stroke="#EAEBED"/>
<rect x="173.682" y="53.7891" width="200" height="60.3912" rx="6.29922" fill="white"/>
<rect x="173.682" y="53.7891" width="200" height="60.3912" rx="6.29922" stroke="#E0E0E0" stroke-width="0.787403"/>
<rect x="185.268" y="64.6504" width="18.8274" height="18.8275" rx="4.34479" fill="#1A73E8"/>
<path d="M199.431 70.7441C199.23 70.5162 198.94 70.3852 198.634 70.3846C197.751 70.3829 196.854 70.3833 195.985 70.3835C195.626 70.3835 195.267 70.3839 194.906 70.3839H194.304C193.57 70.3835 192.811 70.3833 192.064 70.3861C192.01 70.3865 192.006 70.3831 191.994 70.329C191.942 70.0882 191.884 69.8448 191.829 69.6095C191.812 69.5398 191.795 69.4702 191.779 69.4006C191.725 69.1701 191.585 69.0577 191.351 69.0573C190.893 69.0564 190.482 69.0564 190.094 69.0573C189.971 69.0577 189.861 69.101 189.783 69.1792C189.712 69.2515 189.673 69.3498 189.674 69.4566C189.675 69.6843 189.854 69.85 190.099 69.8508C190.165 69.851 190.231 69.8515 190.298 69.8519C190.523 69.8532 190.756 69.8545 190.986 69.8484C191.067 69.8463 191.079 69.8558 191.097 69.9337C191.301 70.8232 191.512 71.7266 191.717 72.6003C191.782 72.8803 191.848 73.1601 191.913 73.4401C191.984 73.7441 192.055 74.0482 192.127 74.3561L192.21 74.7143C192.205 74.7152 192.2 74.716 192.196 74.7169C191.916 74.7642 191.673 74.9193 191.51 75.1539C191.348 75.3863 191.287 75.6659 191.337 75.9414C191.434 76.4643 191.862 76.816 192.403 76.8164C193.231 76.8167 194.058 76.8167 194.886 76.8167H197.933H197.947C197.963 76.8167 197.98 76.8169 197.999 76.8156C198.195 76.8027 198.356 76.646 198.371 76.4513C198.386 76.2534 198.253 76.0733 198.06 76.0324C198.013 76.0224 197.967 76.0225 197.922 76.0229H197.903C196.5 76.0225 195.097 76.0225 193.693 76.0225H192.466C192.455 76.0225 192.445 76.0225 192.435 76.0225C192.408 76.0229 192.382 76.0233 192.357 76.0214C192.229 76.0117 192.123 75.9085 192.112 75.7812C192.099 75.6522 192.177 75.5382 192.299 75.5038C192.344 75.4913 192.395 75.4904 192.444 75.4902C193.434 75.4898 194.424 75.4898 195.413 75.4898C196.243 75.4897 197.072 75.4897 197.902 75.4895C198.445 75.4895 198.844 75.1735 198.969 74.6445C199.131 73.9604 199.307 73.2084 199.524 72.2776C199.539 72.2134 199.555 72.1481 199.571 72.085C199.615 71.909 199.661 71.7268 199.683 71.543C199.717 71.255 199.625 70.9636 199.431 70.7439V70.7441ZM198.879 71.5723C198.639 72.5977 198.403 73.6034 198.204 74.4517C198.163 74.6249 198.076 74.6955 197.904 74.6955C197.25 74.6957 196.596 74.6958 195.942 74.6958C194.979 74.6958 194.017 74.696 193.055 74.6966C193.046 74.6964 193.025 74.6966 193.018 74.6942C193.017 74.6923 193.013 74.6863 193.01 74.6729C192.802 73.7753 192.588 72.8631 192.381 71.981L192.193 71.1784V71.1779H198.564C198.695 71.1779 198.792 71.2131 198.844 71.28C198.91 71.3632 198.9 71.4849 198.879 71.5723Z" fill="white"/>
<path d="M193.365 77.084C192.815 77.0849 192.373 77.5329 192.375 78.0878C192.377 78.6287 192.823 79.0742 193.362 79.0737C193.908 79.0731 194.351 78.6289 194.352 78.0803C194.352 77.5318 193.908 77.0832 193.365 77.084ZM193.372 78.4098C193.188 78.4146 193.035 78.2645 193.034 78.0798C193.034 77.8991 193.18 77.7501 193.36 77.7477C193.538 77.7453 193.69 77.8935 193.692 78.0727C193.695 78.2539 193.551 78.4053 193.372 78.4098Z" fill="white"/>
<path d="M196.996 77.084C196.449 77.0823 196.005 77.5234 196 78.0717C195.995 78.619 196.439 79.0722 196.981 79.0737C197.528 79.0754 197.974 78.6334 197.977 78.0861C197.979 77.5362 197.538 77.0857 196.996 77.084ZM196.989 78.4099C196.805 78.4101 196.656 78.2565 196.659 78.0716C196.663 77.8912 196.813 77.7458 196.993 77.7477C197.171 77.7494 197.319 77.9015 197.317 78.0809C197.316 78.2621 197.169 78.4096 196.989 78.4099Z" fill="white"/>
<path fill-rule="evenodd" clip-rule="evenodd" d="M197.502 71.8423C197.624 72.0167 197.582 72.2572 197.407 72.3793L194.903 74.1321C194.816 74.1935 194.707 74.2157 194.602 74.1934C194.497 74.1711 194.407 74.1064 194.352 74.0146L193.6 72.7626C193.491 72.58 193.55 72.3431 193.733 72.2335C193.915 72.124 194.152 72.1832 194.262 72.3658L194.8 73.263L196.965 71.7475C197.14 71.6253 197.38 71.6678 197.502 71.8423Z" fill="white"/>
<path d="M213.586 69.8571V77.0645H212.353V69.8571H213.586ZM215.848 69.8571V70.8471H210.111V69.8571H215.848ZM217.42 72.7281V77.0645H216.227V71.7084H217.365L217.42 72.7281ZM219.058 71.6738L219.048 72.7826C218.976 72.7694 218.897 72.7595 218.811 72.7529C218.728 72.7463 218.646 72.743 218.563 72.743C218.359 72.743 218.179 72.7727 218.024 72.8321C217.869 72.8882 217.738 72.9707 217.633 73.0796C217.53 73.1852 217.451 73.3139 217.395 73.4657C217.339 73.6175 217.306 73.7875 217.296 73.9756L217.024 73.9954C217.024 73.6588 217.057 73.3469 217.123 73.0598C217.189 72.7727 217.288 72.5202 217.42 72.3024C217.555 72.0846 217.723 71.9147 217.925 71.7926C218.129 71.6705 218.365 71.6094 218.633 71.6094C218.705 71.6094 218.783 71.616 218.865 71.6292C218.951 71.6424 219.015 71.6573 219.058 71.6738ZM220.982 71.7084V77.0645H219.784V71.7084H220.982ZM219.704 70.3026C219.704 70.1211 219.764 69.9709 219.883 69.8521C220.005 69.73 220.173 69.669 220.388 69.669C220.599 69.669 220.765 69.73 220.888 69.8521C221.01 69.9709 221.071 70.1211 221.071 70.3026C221.071 70.4808 221.01 70.6293 220.888 70.7481C220.765 70.8669 220.599 70.9263 220.388 70.9263C220.173 70.9263 220.005 70.8669 219.883 70.7481C219.764 70.6293 219.704 70.4808 219.704 70.3026ZM225.617 71.7084H226.702V76.9159C226.702 77.3978 226.599 77.807 226.395 78.1436C226.19 78.4802 225.905 78.7359 225.538 78.9108C225.172 79.0891 224.748 79.1782 224.266 79.1782C224.061 79.1782 223.834 79.1485 223.583 79.0891C223.335 79.0297 223.095 78.9339 222.86 78.8019C222.629 78.6732 222.436 78.5033 222.281 78.2921L222.84 77.5892C223.032 77.8169 223.243 77.9835 223.474 78.0891C223.705 78.1947 223.948 78.2475 224.202 78.2475C224.476 78.2475 224.708 78.1964 224.9 78.0941C225.094 77.9951 225.245 77.8482 225.35 77.6535C225.456 77.4588 225.509 77.2212 225.509 76.9407V72.9212L225.617 71.7084ZM221.979 74.4458V74.3419C221.979 73.936 222.029 73.5664 222.128 73.2331C222.227 72.8965 222.369 72.6077 222.553 72.3668C222.738 72.1226 222.963 71.9361 223.227 71.8074C223.491 71.6754 223.789 71.6094 224.123 71.6094C224.469 71.6094 224.764 71.6721 225.009 71.7975C225.256 71.9229 225.462 72.1028 225.627 72.3371C225.792 72.5681 225.921 72.8453 226.013 73.1687C226.109 73.4888 226.18 73.8452 226.226 74.2379V74.5696C226.183 74.9524 226.111 75.3022 226.009 75.619C225.906 75.9358 225.771 76.2097 225.603 76.4407C225.434 76.6717 225.226 76.8499 224.979 76.9754C224.735 77.1008 224.446 77.1635 224.113 77.1635C223.786 77.1635 223.491 77.0958 223.227 76.9605C222.966 76.8252 222.741 76.6354 222.553 76.3912C222.369 76.147 222.227 75.8599 222.128 75.5299C222.029 75.1966 221.979 74.8352 221.979 74.4458ZM223.172 74.3419V74.4458C223.172 74.69 223.195 74.9178 223.241 75.129C223.291 75.3402 223.365 75.5266 223.464 75.6883C223.566 75.8467 223.695 75.9721 223.85 76.0645C224.009 76.1536 224.195 76.1982 224.41 76.1982C224.69 76.1982 224.92 76.1388 225.098 76.02C225.279 75.9012 225.418 75.7411 225.514 75.5398C225.613 75.3352 225.682 75.1075 225.721 74.8567V73.9607C225.702 73.766 225.66 73.5845 225.598 73.4162C225.538 73.2479 225.457 73.1011 225.355 72.9757C225.253 72.847 225.124 72.748 224.969 72.6786C224.814 72.606 224.631 72.5697 224.42 72.5697C224.205 72.5697 224.019 72.6159 223.86 72.7083C223.702 72.8008 223.571 72.9278 223.469 73.0895C223.37 73.2512 223.296 73.4393 223.246 73.6538C223.197 73.8683 223.172 74.0977 223.172 74.3419ZM231.268 71.7084H232.352V76.9159C232.352 77.3978 232.25 77.807 232.045 78.1436C231.841 78.4802 231.555 78.7359 231.189 78.9108C230.823 79.0891 230.399 79.1782 229.917 79.1782C229.712 79.1782 229.484 79.1485 229.234 79.0891C228.986 79.0297 228.745 78.9339 228.511 78.8019C228.28 78.6732 228.087 78.5033 227.932 78.2921L228.491 77.5892C228.683 77.8169 228.894 77.9835 229.125 78.0891C229.356 78.1947 229.598 78.2475 229.852 78.2475C230.126 78.2475 230.359 78.1964 230.55 78.0941C230.745 77.9951 230.895 77.8482 231.001 77.6535C231.106 77.4588 231.159 77.2212 231.159 76.9407V72.9212L231.268 71.7084ZM227.63 74.4458V74.3419C227.63 73.936 227.679 73.5664 227.778 73.2331C227.877 72.8965 228.019 72.6077 228.204 72.3668C228.389 72.1226 228.613 71.9361 228.877 71.8074C229.141 71.6754 229.44 71.6094 229.773 71.6094C230.12 71.6094 230.415 71.6721 230.659 71.7975C230.907 71.9229 231.113 72.1028 231.278 72.3371C231.443 72.5681 231.572 72.8453 231.664 73.1687C231.76 73.4888 231.831 73.8452 231.877 74.2379V74.5696C231.834 74.9524 231.762 75.3022 231.659 75.619C231.557 75.9358 231.422 76.2097 231.253 76.4407C231.085 76.6717 230.877 76.8499 230.63 76.9754C230.385 77.1008 230.097 77.1635 229.763 77.1635C229.437 77.1635 229.141 77.0958 228.877 76.9605C228.617 76.8252 228.392 76.6354 228.204 76.3912C228.019 76.147 227.877 75.8599 227.778 75.5299C227.679 75.1966 227.63 74.8352 227.63 74.4458ZM228.823 74.3419V74.4458C228.823 74.69 228.846 74.9178 228.892 75.129C228.942 75.3402 229.016 75.5266 229.115 75.6883C229.217 75.8467 229.346 75.9721 229.501 76.0645C229.659 76.1536 229.846 76.1982 230.06 76.1982C230.341 76.1982 230.57 76.1388 230.748 76.02C230.93 75.9012 231.068 75.7411 231.164 75.5398C231.263 75.3352 231.332 75.1075 231.372 74.8567V73.9607C231.352 73.766 231.311 73.5845 231.248 73.4162C231.189 73.2479 231.108 73.1011 231.006 72.9757C230.903 72.847 230.775 72.748 230.62 72.6786C230.465 72.606 230.281 72.5697 230.07 72.5697C229.856 72.5697 229.669 72.6159 229.511 72.7083C229.352 72.8008 229.222 72.9278 229.12 73.0895C229.021 73.2512 228.947 73.4393 228.897 73.6538C228.848 73.8683 228.823 74.0977 228.823 74.3419ZM235.85 77.1635C235.454 77.1635 235.096 77.0991 234.775 76.9704C234.459 76.8384 234.188 76.6552 233.964 76.4209C233.742 76.1866 233.573 75.9111 233.454 75.5943C233.335 75.2775 233.276 74.9359 233.276 74.5696V74.3716C233.276 73.9525 233.337 73.573 233.459 73.2331C233.581 72.8932 233.751 72.6027 233.969 72.3618C234.186 72.1176 234.444 71.9312 234.741 71.8025C235.038 71.6738 235.36 71.6094 235.706 71.6094C236.089 71.6094 236.424 71.6738 236.711 71.8025C236.998 71.9312 237.236 72.1127 237.424 72.347C237.615 72.578 237.757 72.8536 237.849 73.1737C237.945 73.4938 237.993 73.8469 237.993 74.233V74.7428H233.855V73.8865H236.815V73.7924C236.808 73.5779 236.765 73.3766 236.686 73.1885C236.61 73.0004 236.493 72.8486 236.335 72.7331C236.176 72.6176 235.965 72.5598 235.701 72.5598C235.503 72.5598 235.327 72.6027 235.171 72.6885C235.02 72.7711 234.893 72.8915 234.79 73.0499C234.688 73.2083 234.609 73.3997 234.553 73.6241C234.5 73.8452 234.473 74.0944 234.473 74.3716V74.5696C234.473 74.8039 234.505 75.0217 234.567 75.223C234.633 75.421 234.729 75.5943 234.855 75.7428C234.98 75.8913 235.132 76.0084 235.31 76.0942C235.488 76.1767 235.691 76.218 235.919 76.218C236.206 76.218 236.462 76.1602 236.686 76.0447C236.911 75.9292 237.105 75.7659 237.27 75.5547L237.899 76.1635C237.783 76.3318 237.633 76.4935 237.448 76.6486C237.264 76.8004 237.038 76.9242 236.77 77.0199C236.506 77.1156 236.199 77.1635 235.85 77.1635ZM240.02 72.7281V77.0645H238.827V71.7084H239.966L240.02 72.7281ZM241.659 71.6738L241.649 72.7826C241.576 72.7694 241.497 72.7595 241.411 72.7529C241.329 72.7463 241.246 72.743 241.164 72.743C240.959 72.743 240.779 72.7727 240.624 72.8321C240.469 72.8882 240.339 72.9707 240.233 73.0796C240.131 73.1852 240.051 73.3139 239.995 73.4657C239.939 73.6175 239.906 73.7875 239.896 73.9756L239.624 73.9954C239.624 73.6588 239.657 73.3469 239.723 73.0598C239.789 72.7727 239.888 72.5202 240.02 72.3024C240.155 72.0846 240.324 71.9147 240.525 71.7926C240.73 71.6705 240.966 71.6094 241.233 71.6094C241.306 71.6094 241.383 71.616 241.466 71.6292C241.551 71.6424 241.616 71.6573 241.659 71.6738Z" fill="#1A73E8"/>
<path d="M191.747 95.9171V96.3131C191.747 96.8576 191.676 97.346 191.534 97.7783C191.393 98.2106 191.19 98.5786 190.926 98.8822C190.665 99.1858 190.351 99.4184 189.985 99.5801C189.619 99.7386 189.213 99.8178 188.767 99.8178C188.325 99.8178 187.921 99.7386 187.555 99.5801C187.192 99.4184 186.876 99.1858 186.609 98.8822C186.342 98.5786 186.134 98.2106 185.985 97.7783C185.84 97.346 185.768 96.8576 185.768 96.3131V95.9171C185.768 95.3725 185.84 94.8858 185.985 94.4568C186.131 94.0245 186.335 93.6565 186.599 93.3529C186.866 93.046 187.182 92.8133 187.545 92.6549C187.911 92.4932 188.315 92.4124 188.757 92.4124C189.203 92.4124 189.609 92.4932 189.975 92.6549C190.341 92.8133 190.657 93.046 190.921 93.3529C191.185 93.6565 191.388 94.0245 191.529 94.4568C191.675 94.8858 191.747 95.3725 191.747 95.9171ZM190.505 96.3131V95.9072C190.505 95.5045 190.465 95.1498 190.386 94.8429C190.31 94.5327 190.196 94.2736 190.044 94.0657C189.896 93.8545 189.713 93.6961 189.495 93.5905C189.277 93.4816 189.031 93.4271 188.757 93.4271C188.484 93.4271 188.239 93.4816 188.025 93.5905C187.81 93.6961 187.627 93.8545 187.475 94.0657C187.327 94.2736 187.213 94.5327 187.134 94.8429C187.055 95.1498 187.015 95.5045 187.015 95.9072V96.3131C187.015 96.7157 187.055 97.0721 187.134 97.3823C187.213 97.6925 187.328 97.9549 187.48 98.1694C187.635 98.3806 187.82 98.5406 188.035 98.6495C188.249 98.7551 188.493 98.8079 188.767 98.8079C189.045 98.8079 189.29 98.7551 189.505 98.6495C189.719 98.5406 189.901 98.3806 190.049 98.1694C190.198 97.9549 190.31 97.6925 190.386 97.3823C190.465 97.0721 190.505 96.7157 190.505 96.3131ZM193.968 95.3824V99.7188H192.775V94.3627H193.913L193.968 95.3824ZM195.606 94.3281L195.596 95.4369C195.523 95.4237 195.444 95.4138 195.358 95.4072C195.276 95.4006 195.193 95.3973 195.111 95.3973C194.906 95.3973 194.727 95.427 194.571 95.4864C194.416 95.5425 194.286 95.625 194.18 95.7339C194.078 95.8395 193.999 95.9682 193.943 96.12C193.887 96.2718 193.854 96.4418 193.844 96.6299L193.572 96.6497C193.572 96.3131 193.605 96.0012 193.671 95.7141C193.737 95.427 193.836 95.1745 193.968 94.9567C194.103 94.7389 194.271 94.569 194.472 94.4469C194.677 94.3248 194.913 94.2637 195.18 94.2637C195.253 94.2637 195.33 94.2703 195.413 94.2835C195.499 94.2967 195.563 94.3116 195.606 94.3281ZM199.42 98.6099V92.1154H200.618V99.7188H199.534L199.42 98.6099ZM195.935 97.1001V96.9962C195.935 96.5903 195.983 96.2207 196.079 95.8874C196.175 95.5508 196.313 95.262 196.495 95.0211C196.676 94.7769 196.897 94.5904 197.158 94.4617C197.419 94.3297 197.712 94.2637 198.039 94.2637C198.362 94.2637 198.646 94.3264 198.891 94.4518C199.135 94.5772 199.343 94.7571 199.514 94.9914C199.686 95.2224 199.823 95.4996 199.925 95.823C200.027 96.1431 200.1 96.4995 200.143 96.8922V97.2239C200.1 97.6067 200.027 97.9565 199.925 98.2733C199.823 98.5901 199.686 98.864 199.514 99.095C199.343 99.326 199.133 99.5042 198.886 99.6296C198.641 99.7551 198.356 99.8178 198.029 99.8178C197.706 99.8178 197.414 99.7501 197.153 99.6148C196.896 99.4795 196.676 99.2897 196.495 99.0455C196.313 98.8013 196.175 98.5142 196.079 98.1842C195.983 97.8509 195.935 97.4895 195.935 97.1001ZM197.128 96.9962V97.1001C197.128 97.3443 197.15 97.572 197.193 97.7833C197.239 97.9945 197.31 98.1809 197.405 98.3426C197.501 98.501 197.625 98.6264 197.777 98.7188C197.932 98.8079 198.117 98.8525 198.331 98.8525C198.602 98.8525 198.824 98.7931 198.999 98.6743C199.174 98.5555 199.311 98.3954 199.41 98.1941C199.513 97.9895 199.582 97.7618 199.618 97.511V96.615C199.598 96.4203 199.557 96.2388 199.494 96.0705C199.435 95.9022 199.354 95.7554 199.252 95.63C199.15 95.5012 199.023 95.4022 198.871 95.3329C198.722 95.2603 198.546 95.224 198.341 95.224C198.123 95.224 197.938 95.2702 197.787 95.3626C197.635 95.455 197.509 95.5821 197.41 95.7438C197.315 95.9055 197.244 96.0936 197.198 96.3081C197.151 96.5226 197.128 96.752 197.128 96.9962ZM204.125 99.8178C203.729 99.8178 203.371 99.7534 203.051 99.6247C202.734 99.4927 202.464 99.3095 202.239 99.0752C202.018 98.8409 201.848 98.5654 201.729 98.2486C201.611 97.9318 201.551 97.5902 201.551 97.2239V97.0259C201.551 96.6068 201.612 96.2273 201.734 95.8874C201.857 95.5475 202.027 95.257 202.244 95.0161C202.462 94.7719 202.72 94.5855 203.017 94.4568C203.314 94.3281 203.635 94.2637 203.982 94.2637C204.365 94.2637 204.7 94.3281 204.987 94.4568C205.274 94.5855 205.511 94.767 205.699 95.0013C205.891 95.2323 206.033 95.5078 206.125 95.828C206.221 96.1481 206.269 96.5012 206.269 96.8873V97.3971H202.13V96.5408H205.091V96.4467C205.084 96.2322 205.041 96.0309 204.962 95.8428C204.886 95.6547 204.769 95.5029 204.61 95.3874C204.452 95.2719 204.241 95.2141 203.977 95.2141C203.779 95.2141 203.602 95.257 203.447 95.3428C203.295 95.4253 203.168 95.5458 203.066 95.7042C202.964 95.8626 202.885 96.054 202.828 96.2784C202.776 96.4995 202.749 96.7487 202.749 97.0259V97.2239C202.749 97.4582 202.781 97.676 202.843 97.8773C202.909 98.0753 203.005 98.2486 203.13 98.3971C203.256 98.5456 203.408 98.6627 203.586 98.7485C203.764 98.831 203.967 98.8723 204.195 98.8723C204.482 98.8723 204.738 98.8145 204.962 98.699C205.186 98.5835 205.381 98.4202 205.546 98.209L206.175 98.8178C206.059 98.9861 205.909 99.1478 205.724 99.3029C205.539 99.4547 205.313 99.5785 205.046 99.6742C204.782 99.7699 204.475 99.8178 204.125 99.8178ZM208.296 95.3824V99.7188H207.103V94.3627H208.241L208.296 95.3824ZM209.934 94.3281L209.925 95.4369C209.852 95.4237 209.773 95.4138 209.687 95.4072C209.604 95.4006 209.522 95.3973 209.439 95.3973C209.235 95.3973 209.055 95.427 208.9 95.4864C208.745 95.5425 208.614 95.625 208.509 95.7339C208.406 95.8395 208.327 95.9682 208.271 96.12C208.215 96.2718 208.182 96.4418 208.172 96.6299L207.9 96.6497C207.9 96.3131 207.933 96.0012 207.999 95.7141C208.065 95.427 208.164 95.1745 208.296 94.9567C208.431 94.7389 208.6 94.569 208.801 94.4469C209.005 94.3248 209.241 94.2637 209.509 94.2637C209.581 94.2637 209.659 94.2703 209.741 94.2835C209.827 94.2967 209.892 94.3116 209.934 94.3281ZM214.202 95.3923V101.778H213.009V94.3627H214.108L214.202 95.3923ZM217.691 96.9912V97.0952C217.691 97.4846 217.645 97.846 217.553 98.1793C217.464 98.5093 217.33 98.798 217.152 99.0455C216.977 99.2897 216.761 99.4795 216.503 99.6148C216.246 99.7501 215.949 99.8178 215.612 99.8178C215.279 99.8178 214.987 99.7567 214.736 99.6346C214.489 99.5092 214.279 99.3326 214.108 99.1049C213.936 98.8772 213.797 98.6099 213.692 98.303C213.589 97.9928 213.517 97.6529 213.474 97.2833V96.8823C213.517 96.4896 213.589 96.1332 213.692 95.8131C213.797 95.493 213.936 95.2174 214.108 94.9864C214.279 94.7554 214.489 94.5772 214.736 94.4518C214.984 94.3264 215.272 94.2637 215.602 94.2637C215.939 94.2637 216.238 94.3297 216.498 94.4617C216.759 94.5904 216.979 94.7752 217.157 95.0161C217.335 95.2537 217.469 95.5409 217.558 95.8775C217.647 96.2108 217.691 96.582 217.691 96.9912ZM216.498 97.0952V96.9912C216.498 96.7437 216.475 96.5144 216.429 96.3032C216.383 96.0887 216.31 95.9006 216.211 95.7389C216.112 95.5772 215.985 95.4517 215.83 95.3626C215.678 95.2702 215.495 95.224 215.281 95.224C215.07 95.224 214.888 95.2603 214.736 95.3329C214.584 95.4022 214.457 95.4996 214.355 95.625C214.253 95.7504 214.174 95.8973 214.117 96.0656C214.061 96.2306 214.022 96.4104 213.999 96.6051V97.5654C214.038 97.8031 214.106 98.0209 214.202 98.2189C214.297 98.4169 214.433 98.5753 214.608 98.6941C214.786 98.8096 215.013 98.8673 215.291 98.8673C215.505 98.8673 215.688 98.8211 215.84 98.7287C215.992 98.6363 216.116 98.5093 216.211 98.3476C216.31 98.1826 216.383 97.9928 216.429 97.7783C216.475 97.5638 216.498 97.3361 216.498 97.0952ZM219.882 92.1154V99.7188H218.684V92.1154H219.882ZM224.107 98.6446V96.0903C224.107 95.8989 224.072 95.7339 224.003 95.5953C223.934 95.4567 223.828 95.3494 223.686 95.2735C223.548 95.1976 223.373 95.1597 223.162 95.1597C222.967 95.1597 222.799 95.1927 222.657 95.2587C222.515 95.3247 222.404 95.4138 222.325 95.526C222.246 95.6382 222.206 95.7653 222.206 95.9072H221.018C221.018 95.696 221.069 95.4913 221.172 95.2933C221.274 95.0953 221.422 94.9188 221.617 94.7637C221.812 94.6086 222.044 94.4865 222.315 94.3974C222.586 94.3083 222.889 94.2637 223.226 94.2637C223.628 94.2637 223.985 94.3314 224.295 94.4667C224.609 94.602 224.854 94.8066 225.033 95.0805C225.214 95.3511 225.305 95.691 225.305 96.1002V98.4812C225.305 98.7254 225.321 98.9449 225.354 99.1396C225.391 99.331 225.442 99.4976 225.508 99.6395V99.7188H224.285C224.229 99.59 224.185 99.4267 224.152 99.2287C224.122 99.0274 224.107 98.8327 224.107 98.6446ZM224.28 96.4616L224.29 97.1991H223.434C223.213 97.1991 223.018 97.2206 222.85 97.2635C222.681 97.3031 222.541 97.3625 222.429 97.4417C222.317 97.5209 222.233 97.6166 222.176 97.7288C222.12 97.841 222.092 97.9681 222.092 98.11C222.092 98.2519 222.125 98.3822 222.191 98.501C222.257 98.6165 222.353 98.7073 222.478 98.7733C222.607 98.8393 222.762 98.8723 222.944 98.8723C223.188 98.8723 223.401 98.8228 223.582 98.7238C223.767 98.6215 223.912 98.4977 224.018 98.3525C224.123 98.204 224.18 98.0638 224.186 97.9318L224.572 98.4614C224.533 98.5967 224.465 98.7419 224.369 98.897C224.274 99.0521 224.148 99.2006 223.993 99.3425C223.841 99.4811 223.658 99.595 223.444 99.6841C223.232 99.7732 222.988 99.8178 222.711 99.8178C222.361 99.8178 222.049 99.7485 221.775 99.6098C221.502 99.4679 221.287 99.2782 221.132 99.0406C220.977 98.7997 220.899 98.5274 220.899 98.2238C220.899 97.94 220.952 97.6892 221.058 97.4714C221.167 97.2503 221.325 97.0655 221.533 96.917C221.744 96.7685 222.002 96.6563 222.305 96.5804C222.609 96.5012 222.955 96.4616 223.345 96.4616H224.28ZM228.639 98.8673C228.834 98.8673 229.009 98.8294 229.164 98.7535C229.322 98.6743 229.449 98.5654 229.545 98.4268C229.644 98.2882 229.698 98.1281 229.708 97.9466H230.832C230.825 98.2931 230.723 98.6083 230.525 98.8921C230.327 99.1759 230.065 99.4019 229.738 99.5702C229.411 99.7353 229.05 99.8178 228.654 99.8178C228.245 99.8178 227.888 99.7485 227.585 99.6098C227.281 99.4679 227.028 99.2732 226.827 99.0257C226.626 98.7782 226.474 98.4928 226.372 98.1694C226.273 97.846 226.223 97.4994 226.223 97.1298V96.9566C226.223 96.587 226.273 96.2405 226.372 95.9171C226.474 95.5904 226.626 95.3032 226.827 95.0557C227.028 94.8082 227.281 94.6152 227.585 94.4766C227.888 94.3347 228.243 94.2637 228.649 94.2637C229.078 94.2637 229.454 94.3495 229.777 94.5211C230.101 94.6894 230.355 94.9254 230.54 95.229C230.728 95.5293 230.825 95.8791 230.832 96.2784H229.708C229.698 96.0804 229.649 95.9022 229.56 95.7438C229.474 95.5821 229.352 95.4534 229.193 95.3577C229.038 95.262 228.852 95.2141 228.634 95.2141C228.393 95.2141 228.193 95.2636 228.035 95.3626C227.877 95.4583 227.753 95.5904 227.664 95.7587C227.575 95.9237 227.51 96.1101 227.471 96.318C227.434 96.5226 227.416 96.7355 227.416 96.9566V97.1298C227.416 97.3509 227.434 97.5654 227.471 97.7734C227.507 97.9813 227.57 98.1677 227.659 98.3327C227.751 98.4944 227.877 98.6248 228.035 98.7238C228.193 98.8195 228.395 98.8673 228.639 98.8673ZM234.007 99.8178C233.611 99.8178 233.253 99.7534 232.933 99.6247C232.616 99.4927 232.346 99.3095 232.121 99.0752C231.9 98.8409 231.73 98.5654 231.612 98.2486C231.493 97.9318 231.433 97.5902 231.433 97.2239V97.0259C231.433 96.6068 231.494 96.2273 231.617 95.8874C231.739 95.5475 231.909 95.257 232.126 95.0161C232.344 94.7719 232.602 94.5855 232.899 94.4568C233.196 94.3281 233.517 94.2637 233.864 94.2637C234.247 94.2637 234.582 94.3281 234.869 94.4568C235.156 94.5855 235.393 94.767 235.582 95.0013C235.773 95.2323 235.915 95.5078 236.007 95.828C236.103 96.1481 236.151 96.5012 236.151 96.8873V97.3971H232.013V96.5408H234.973V96.4467C234.966 96.2322 234.923 96.0309 234.844 95.8428C234.768 95.6547 234.651 95.5029 234.493 95.3874C234.334 95.2719 234.123 95.2141 233.859 95.2141C233.661 95.2141 233.484 95.257 233.329 95.3428C233.177 95.4253 233.05 95.5458 232.948 95.7042C232.846 95.8626 232.767 96.054 232.71 96.2784C232.658 96.4995 232.631 96.7487 232.631 97.0259V97.2239C232.631 97.4582 232.663 97.676 232.725 97.8773C232.791 98.0753 232.887 98.2486 233.012 98.3971C233.138 98.5456 233.29 98.6627 233.468 98.7485C233.646 98.831 233.849 98.8723 234.077 98.8723C234.364 98.8723 234.62 98.8145 234.844 98.699C235.068 98.5835 235.263 98.4202 235.428 98.209L236.057 98.8178C235.941 98.9861 235.791 99.1478 235.606 99.3029C235.422 99.4547 235.195 99.5785 234.928 99.6742C234.664 99.7699 234.357 99.8178 234.007 99.8178ZM240.247 98.6099V92.1154H241.445V99.7188H240.361L240.247 98.6099ZM236.762 97.1001V96.9962C236.762 96.5903 236.81 96.2207 236.906 95.8874C237.002 95.5508 237.14 95.262 237.322 95.0211C237.503 94.7769 237.724 94.5904 237.985 94.4617C238.246 94.3297 238.539 94.2637 238.866 94.2637C239.189 94.2637 239.473 94.3264 239.717 94.4518C239.962 94.5772 240.17 94.7571 240.341 94.9914C240.513 95.2224 240.65 95.4996 240.752 95.823C240.854 96.1431 240.927 96.4995 240.97 96.8922V97.2239C240.927 97.6067 240.854 97.9565 240.752 98.2733C240.65 98.5901 240.513 98.864 240.341 99.095C240.17 99.326 239.96 99.5042 239.713 99.6296C239.468 99.7551 239.183 99.8178 238.856 99.8178C238.533 99.8178 238.241 99.7501 237.98 99.6148C237.723 99.4795 237.503 99.2897 237.322 99.0455C237.14 98.8013 237.002 98.5142 236.906 98.1842C236.81 97.8509 236.762 97.4895 236.762 97.1001ZM237.955 96.9962V97.1001C237.955 97.3443 237.977 97.572 238.02 97.7833C238.066 97.9945 238.137 98.1809 238.232 98.3426C238.328 98.501 238.452 98.6264 238.604 98.7188C238.759 98.8079 238.944 98.8525 239.158 98.8525C239.429 98.8525 239.651 98.7931 239.826 98.6743C240.001 98.5555 240.138 98.3954 240.237 98.1941C240.34 97.9895 240.409 97.7618 240.445 97.511V96.615C240.425 96.4203 240.384 96.2388 240.321 96.0705C240.262 95.9022 240.181 95.7554 240.079 95.63C239.977 95.5012 239.849 95.4022 239.698 95.3329C239.549 95.2603 239.373 95.224 239.168 95.224C238.95 95.224 238.765 95.2702 238.614 95.3626C238.462 95.455 238.336 95.5821 238.237 95.7438C238.142 95.9055 238.071 96.0936 238.025 96.3081C237.978 96.5226 237.955 96.752 237.955 96.9962Z" fill="#4A566B"/>
<g filter="url(#filter0_d_17414_9947)">
<ellipse cx="373.31" cy="53.7921" rx="7.24131" ry="7.24133" fill="white"/>
</g>
<path fill-rule="evenodd" clip-rule="evenodd" d="M376.213 57.0933L370.631 51.4111L371.138 50.8945L376.72 56.5768L376.213 57.0933Z" fill="#999999"/>
<path fill-rule="evenodd" clip-rule="evenodd" d="M376.504 51.5199L370.922 57.2021L370.414 56.6855L375.996 51.0033L376.504 51.5199Z" fill="#999999"/>
<rect x="173.682" y="160.588" width="200" height="77.7141" rx="6.29922" fill="white"/>
<rect x="173.682" y="160.588" width="200" height="77.7141" rx="6.29922" stroke="#E0E0E0" stroke-width="0.787403"/>
<rect x="185.268" y="171.449" width="18.8274" height="18.8275" rx="4.34479" fill="#1BB644"/>
<path d="M199.165 177.562C198.315 176.457 197.206 175.755 195.87 175.477C194.179 175.124 192.626 175.473 191.253 176.513C190.156 177.343 189.45 178.457 189.153 179.822C189.117 179.986 189.096 180.154 189.076 180.317C189.067 180.392 189.057 180.47 189.046 180.546C189.042 180.571 189.038 180.596 189.033 180.62C189.031 180.633 189.029 180.645 189.027 180.658L189.025 180.667V181.326L189.026 181.341C189.035 181.407 189.043 181.473 189.051 181.539C189.068 181.682 189.086 181.83 189.113 181.976C189.427 183.655 190.33 184.962 191.796 185.86C192.536 186.314 193.367 186.576 194.266 186.639C194.275 186.64 194.289 186.644 194.303 186.647C194.314 186.65 194.324 186.653 194.334 186.655L194.346 186.658H195.015L195.022 186.656C195.088 186.648 195.154 186.64 195.22 186.631C195.364 186.614 195.512 186.595 195.658 186.57C196.953 186.339 198.053 185.72 198.93 184.73C199.731 183.823 200.195 182.759 200.31 181.567C200.452 180.082 200.067 178.734 199.165 177.562ZM197.913 184.243C197.048 185.105 195.905 185.579 194.692 185.579H194.676C192.15 185.57 190.099 183.515 190.104 180.998C190.109 178.475 192.162 176.424 194.68 176.424H194.684C197.206 176.426 199.26 178.479 199.261 181C199.262 182.224 198.783 183.375 197.913 184.243Z" fill="white"/>
<path d="M196.92 182.463C196.871 182.639 196.747 182.773 196.581 182.831C196.524 182.851 196.465 182.861 196.406 182.861C196.292 182.861 196.177 182.823 196.076 182.751C195.884 182.611 195.691 182.466 195.506 182.326C195.427 182.266 195.347 182.206 195.268 182.147C195.181 182.081 195.095 182.016 195.009 181.951C194.814 181.804 194.612 181.651 194.411 181.505C194.228 181.373 194.139 181.195 194.142 180.963C194.144 180.675 194.144 180.382 194.143 180.098C194.143 179.979 194.143 179.859 194.143 179.74C194.143 179.613 194.142 179.485 194.142 179.358C194.142 179.071 194.141 178.775 194.144 178.482C194.145 178.285 194.233 178.112 194.385 178.009C194.528 177.911 194.706 177.891 194.873 177.954C195.095 178.038 195.222 178.237 195.223 178.502V178.653C195.223 179.324 195.224 180.019 195.221 180.702C195.221 180.755 195.231 180.776 195.276 180.809C195.757 181.164 196.242 181.53 196.699 181.874C196.901 182.027 196.982 182.242 196.92 182.463Z" fill="white"/>
<path d="M212.715 183.863H211.175L211.185 182.878H212.715C213.16 182.878 213.533 182.781 213.833 182.586C214.137 182.391 214.365 182.113 214.517 181.75C214.672 181.387 214.749 180.954 214.749 180.453V180.062C214.749 179.672 214.705 179.327 214.616 179.027C214.53 178.727 214.401 178.474 214.229 178.27C214.061 178.065 213.853 177.91 213.606 177.804C213.362 177.699 213.079 177.646 212.759 177.646H211.146V176.656H212.759C213.238 176.656 213.675 176.737 214.071 176.898C214.467 177.057 214.809 177.286 215.096 177.587C215.386 177.887 215.609 178.247 215.764 178.666C215.919 179.085 215.997 179.553 215.997 180.071V180.453C215.997 180.971 215.919 181.439 215.764 181.858C215.609 182.278 215.386 182.637 215.096 182.938C214.805 183.235 214.459 183.464 214.056 183.626C213.657 183.784 213.21 183.863 212.715 183.863ZM211.863 176.656V183.863H210.621V176.656H211.863ZM219.385 183.962C218.989 183.962 218.631 183.898 218.311 183.769C217.994 183.637 217.723 183.454 217.499 183.22C217.278 182.985 217.108 182.71 216.989 182.393C216.87 182.076 216.811 181.735 216.811 181.368V181.17C216.811 180.751 216.872 180.372 216.994 180.032C217.116 179.692 217.286 179.402 217.504 179.161C217.722 178.916 217.979 178.73 218.276 178.601C218.573 178.473 218.895 178.408 219.242 178.408C219.624 178.408 219.959 178.473 220.246 178.601C220.534 178.73 220.771 178.912 220.959 179.146C221.151 179.377 221.293 179.652 221.385 179.972C221.481 180.293 221.528 180.646 221.528 181.032V181.542H217.39V180.685H220.35V180.591C220.344 180.377 220.301 180.175 220.222 179.987C220.146 179.799 220.029 179.647 219.87 179.532C219.712 179.416 219.501 179.359 219.237 179.359C219.039 179.359 218.862 179.402 218.707 179.487C218.555 179.57 218.428 179.69 218.326 179.849C218.223 180.007 218.144 180.199 218.088 180.423C218.035 180.644 218.009 180.893 218.009 181.17V181.368C218.009 181.603 218.04 181.821 218.103 182.022C218.169 182.22 218.265 182.393 218.39 182.542C218.516 182.69 218.667 182.807 218.846 182.893C219.024 182.976 219.227 183.017 219.454 183.017C219.741 183.017 219.997 182.959 220.222 182.844C220.446 182.728 220.641 182.565 220.806 182.353L221.434 182.962C221.319 183.131 221.169 183.292 220.984 183.447C220.799 183.599 220.573 183.723 220.306 183.819C220.042 183.914 219.735 183.962 219.385 183.962ZM223.635 176.26V183.863H222.437V176.26H223.635ZM227.86 182.789V180.235C227.86 180.043 227.825 179.878 227.756 179.74C227.687 179.601 227.581 179.494 227.439 179.418C227.301 179.342 227.126 179.304 226.914 179.304C226.72 179.304 226.551 179.337 226.409 179.403C226.268 179.469 226.157 179.558 226.078 179.671C225.999 179.783 225.959 179.91 225.959 180.052H224.771C224.771 179.84 224.822 179.636 224.924 179.438C225.027 179.24 225.175 179.063 225.37 178.908C225.565 178.753 225.797 178.631 226.068 178.542C226.339 178.453 226.642 178.408 226.979 178.408C227.381 178.408 227.738 178.476 228.048 178.611C228.361 178.747 228.607 178.951 228.786 179.225C228.967 179.496 229.058 179.836 229.058 180.245V182.626C229.058 182.87 229.074 183.089 229.107 183.284C229.144 183.476 229.195 183.642 229.261 183.784V183.863H228.038C227.982 183.735 227.937 183.571 227.904 183.373C227.875 183.172 227.86 182.977 227.86 182.789ZM228.033 180.606L228.043 181.344H227.187C226.966 181.344 226.771 181.365 226.603 181.408C226.434 181.448 226.294 181.507 226.182 181.586C226.07 181.665 225.985 181.761 225.929 181.873C225.873 181.986 225.845 182.113 225.845 182.254C225.845 182.396 225.878 182.527 225.944 182.646C226.01 182.761 226.106 182.852 226.231 182.918C226.36 182.984 226.515 183.017 226.697 183.017C226.941 183.017 227.154 182.967 227.335 182.868C227.52 182.766 227.665 182.642 227.771 182.497C227.876 182.349 227.932 182.208 227.939 182.076L228.325 182.606C228.286 182.741 228.218 182.886 228.122 183.042C228.027 183.197 227.901 183.345 227.746 183.487C227.594 183.626 227.411 183.74 227.197 183.829C226.985 183.918 226.741 183.962 226.464 183.962C226.114 183.962 225.802 183.893 225.528 183.754C225.254 183.612 225.04 183.423 224.885 183.185C224.73 182.944 224.652 182.672 224.652 182.368C224.652 182.085 224.705 181.834 224.811 181.616C224.92 181.395 225.078 181.21 225.286 181.062C225.497 180.913 225.754 180.801 226.058 180.725C226.362 180.646 226.708 180.606 227.098 180.606H228.033ZM231.679 183.279L233.134 178.507H234.411L232.263 184.68C232.214 184.812 232.149 184.956 232.07 185.111C231.991 185.266 231.887 185.413 231.758 185.551C231.633 185.693 231.476 185.807 231.288 185.893C231.1 185.982 230.872 186.026 230.605 186.026C230.499 186.026 230.397 186.017 230.298 185.997C230.202 185.98 230.111 185.962 230.026 185.942L230.021 185.032C230.054 185.035 230.093 185.038 230.14 185.041C230.189 185.045 230.229 185.046 230.258 185.046C230.456 185.046 230.621 185.022 230.753 184.972C230.885 184.926 230.993 184.85 231.075 184.744C231.161 184.639 231.233 184.497 231.293 184.319L231.679 183.279ZM230.857 178.507L232.129 182.517L232.342 183.774L231.516 183.987L229.57 178.507H230.857Z" fill="#1BB644"/>
<path d="M187.805 205.495L189.133 200.825H189.777L189.404 202.641L187.975 207.518H187.336L187.805 205.495ZM186.431 200.825L187.488 205.403L187.805 207.518H187.171L185.548 200.825H186.431ZM191.496 205.399L192.53 200.825H193.417L191.799 207.518H191.165L191.496 205.399ZM189.873 200.825L191.165 205.495L191.634 207.518H190.995L189.616 202.641L189.239 200.825H189.873ZM197.049 206.667V204.107C197.049 203.911 197.009 203.741 196.929 203.597C196.852 203.45 196.736 203.336 196.58 203.257C196.423 203.177 196.23 203.137 196 203.137C195.786 203.137 195.598 203.174 195.435 203.247C195.276 203.321 195.15 203.417 195.058 203.537C194.969 203.656 194.925 203.785 194.925 203.923H194.075C194.075 203.745 194.121 203.569 194.212 203.394C194.304 203.22 194.436 203.062 194.608 202.921C194.782 202.777 194.991 202.664 195.233 202.581C195.478 202.495 195.751 202.452 196.051 202.452C196.413 202.452 196.731 202.513 197.007 202.636C197.286 202.759 197.504 202.944 197.66 203.192C197.819 203.437 197.899 203.745 197.899 204.116V206.433C197.899 206.598 197.913 206.774 197.94 206.961C197.971 207.148 198.015 207.309 198.074 207.444V207.518H197.186C197.144 207.42 197.11 207.289 197.085 207.127C197.061 206.961 197.049 206.808 197.049 206.667ZM197.196 204.502L197.205 205.1H196.345C196.103 205.1 195.887 205.12 195.697 205.16C195.507 205.196 195.348 205.253 195.219 205.33C195.09 205.406 194.992 205.503 194.925 205.619C194.857 205.733 194.824 205.866 194.824 206.019C194.824 206.175 194.859 206.318 194.93 206.447C195 206.575 195.106 206.678 195.247 206.755C195.391 206.828 195.567 206.865 195.775 206.865C196.036 206.865 196.266 206.81 196.465 206.699C196.664 206.589 196.822 206.454 196.938 206.295C197.058 206.136 197.122 205.981 197.131 205.831L197.494 206.24C197.473 206.368 197.415 206.511 197.32 206.667C197.225 206.824 197.098 206.974 196.938 207.118C196.782 207.259 196.595 207.377 196.377 207.472C196.163 207.564 195.921 207.61 195.651 207.61C195.314 207.61 195.018 207.544 194.764 207.412C194.513 207.28 194.317 207.104 194.176 206.883C194.038 206.66 193.969 206.41 193.969 206.134C193.969 205.867 194.021 205.633 194.125 205.431C194.229 205.225 194.379 205.055 194.576 204.921C194.772 204.783 195.008 204.678 195.283 204.608C195.559 204.537 195.867 204.502 196.207 204.502H197.196ZM200.16 202.544V207.518H199.305V202.544H200.16ZM199.241 201.225C199.241 201.087 199.282 200.971 199.365 200.876C199.451 200.781 199.577 200.733 199.742 200.733C199.904 200.733 200.029 200.781 200.114 200.876C200.203 200.971 200.248 201.087 200.248 201.225C200.248 201.357 200.203 201.47 200.114 201.565C200.029 201.657 199.904 201.703 199.742 201.703C199.577 201.703 199.451 201.657 199.365 201.565C199.282 201.47 199.241 201.357 199.241 201.225ZM203.608 202.544V203.197H200.919V202.544H203.608ZM201.829 201.335H202.679V206.286C202.679 206.454 202.705 206.581 202.757 206.667C202.81 206.753 202.877 206.81 202.96 206.837C203.042 206.865 203.131 206.879 203.226 206.879C203.297 206.879 203.37 206.873 203.447 206.86C203.527 206.845 203.586 206.833 203.626 206.824L203.631 207.518C203.563 207.539 203.474 207.559 203.364 207.577C203.257 207.599 203.127 207.61 202.973 207.61C202.765 207.61 202.574 207.568 202.399 207.485C202.224 207.403 202.085 207.265 201.981 207.072C201.879 206.876 201.829 206.612 201.829 206.281V201.335Z" fill="#6E7F9D"/>
<path d="M190.259 222.209V223.092H185.773V222.333L187.952 219.957C188.191 219.687 188.379 219.454 188.517 219.258C188.655 219.062 188.752 218.886 188.807 218.73C188.865 218.57 188.894 218.416 188.894 218.265C188.894 218.054 188.854 217.869 188.775 217.709C188.698 217.547 188.585 217.42 188.435 217.328C188.284 217.233 188.102 217.185 187.888 217.185C187.639 217.185 187.431 217.239 187.262 217.346C187.094 217.453 186.967 217.602 186.881 217.792C186.795 217.979 186.752 218.193 186.752 218.436H185.644C185.644 218.046 185.733 217.691 185.911 217.369C186.089 217.044 186.346 216.787 186.683 216.597C187.02 216.404 187.426 216.307 187.901 216.307C188.349 216.307 188.729 216.382 189.041 216.533C189.354 216.683 189.591 216.896 189.754 217.171C189.919 217.447 190.002 217.774 190.002 218.151C190.002 218.359 189.968 218.566 189.901 218.771C189.833 218.976 189.737 219.182 189.611 219.387C189.489 219.589 189.343 219.793 189.175 219.998C189.006 220.201 188.821 220.406 188.618 220.614L187.171 222.209H190.259ZM195.486 219.185V220.279C195.486 220.803 195.434 221.25 195.329 221.621C195.228 221.989 195.081 222.287 194.888 222.517C194.695 222.747 194.464 222.916 194.194 223.023C193.927 223.13 193.629 223.184 193.298 223.184C193.034 223.184 192.789 223.15 192.562 223.083C192.339 223.015 192.136 222.909 191.956 222.765C191.775 222.621 191.62 222.436 191.491 222.209C191.366 221.979 191.268 221.705 191.197 221.386C191.13 221.068 191.096 220.699 191.096 220.279V219.185C191.096 218.658 191.148 218.213 191.252 217.852C191.356 217.487 191.505 217.191 191.698 216.965C191.891 216.735 192.121 216.568 192.388 216.464C192.657 216.359 192.958 216.307 193.289 216.307C193.555 216.307 193.8 216.341 194.024 216.408C194.251 216.473 194.453 216.575 194.631 216.716C194.812 216.857 194.965 217.041 195.09 217.268C195.219 217.492 195.317 217.763 195.385 218.082C195.452 218.397 195.486 218.765 195.486 219.185ZM194.378 220.435V219.019C194.378 218.753 194.363 218.518 194.332 218.316C194.301 218.111 194.255 217.938 194.194 217.797C194.136 217.653 194.062 217.536 193.973 217.447C193.885 217.355 193.783 217.289 193.67 217.25C193.557 217.207 193.429 217.185 193.289 217.185C193.117 217.185 192.964 217.219 192.829 217.286C192.694 217.351 192.581 217.455 192.489 217.599C192.397 217.743 192.326 217.933 192.277 218.169C192.231 218.402 192.208 218.685 192.208 219.019V220.435C192.208 220.705 192.224 220.942 192.254 221.147C192.285 221.353 192.331 221.529 192.392 221.676C192.454 221.82 192.527 221.94 192.613 222.035C192.702 222.127 192.803 222.194 192.916 222.237C193.033 222.28 193.16 222.301 193.298 222.301C193.472 222.301 193.627 222.267 193.762 222.2C193.897 222.133 194.01 222.025 194.102 221.878C194.194 221.728 194.263 221.534 194.309 221.295C194.355 221.056 194.378 220.769 194.378 220.435ZM200.937 223.092H199.508L199.517 222.177H200.937C201.351 222.177 201.697 222.087 201.976 221.906C202.258 221.725 202.469 221.466 202.61 221.129C202.754 220.792 202.826 220.391 202.826 219.925V219.562C202.826 219.2 202.785 218.88 202.702 218.601C202.623 218.322 202.503 218.088 202.344 217.898C202.187 217.708 201.994 217.564 201.765 217.466C201.538 217.368 201.276 217.319 200.979 217.319H199.48V216.399H200.979C201.423 216.399 201.829 216.474 202.197 216.624C202.564 216.772 202.882 216.985 203.148 217.263C203.418 217.542 203.625 217.876 203.769 218.265C203.913 218.655 203.985 219.09 203.985 219.571V219.925C203.985 220.406 203.913 220.841 203.769 221.23C203.625 221.619 203.418 221.953 203.148 222.232C202.878 222.508 202.557 222.721 202.183 222.871C201.812 223.018 201.397 223.092 200.937 223.092ZM200.147 216.399V223.092H198.993V216.399H200.147ZM207.837 222.094V219.723C207.837 219.545 207.804 219.392 207.74 219.263C207.676 219.134 207.578 219.035 207.446 218.964C207.317 218.894 207.155 218.858 206.959 218.858C206.778 218.858 206.622 218.889 206.49 218.95C206.358 219.012 206.255 219.094 206.182 219.199C206.108 219.303 206.072 219.421 206.072 219.552H204.968C204.968 219.356 205.016 219.166 205.111 218.982C205.206 218.799 205.344 218.635 205.525 218.491C205.705 218.347 205.921 218.233 206.173 218.151C206.424 218.068 206.706 218.026 207.018 218.026C207.392 218.026 207.723 218.089 208.011 218.215C208.302 218.341 208.531 218.53 208.696 218.785C208.865 219.036 208.949 219.352 208.949 219.732V221.943C208.949 222.169 208.964 222.373 208.995 222.554C209.029 222.732 209.076 222.886 209.137 223.018V223.092H208.002C207.95 222.972 207.909 222.821 207.878 222.637C207.85 222.45 207.837 222.269 207.837 222.094ZM207.997 220.067L208.007 220.752H207.211C207.006 220.752 206.825 220.772 206.669 220.812C206.513 220.849 206.383 220.904 206.278 220.977C206.174 221.051 206.096 221.14 206.044 221.244C205.992 221.348 205.966 221.466 205.966 221.598C205.966 221.73 205.996 221.851 206.058 221.961C206.119 222.068 206.208 222.153 206.324 222.214C206.444 222.275 206.588 222.306 206.756 222.306C206.983 222.306 207.181 222.26 207.349 222.168C207.521 222.073 207.656 221.958 207.754 221.823C207.852 221.685 207.904 221.555 207.91 221.432L208.269 221.924C208.232 222.05 208.169 222.185 208.08 222.329C207.991 222.473 207.875 222.611 207.731 222.742C207.59 222.871 207.42 222.977 207.221 223.06C207.025 223.142 206.798 223.184 206.54 223.184C206.216 223.184 205.926 223.119 205.672 222.991C205.417 222.859 205.218 222.683 205.074 222.462C204.93 222.238 204.858 221.986 204.858 221.704C204.858 221.44 204.907 221.207 205.005 221.005C205.106 220.8 205.253 220.628 205.446 220.49C205.643 220.352 205.882 220.248 206.163 220.178C206.445 220.104 206.767 220.067 207.129 220.067H207.997ZM211.477 222.549L212.828 218.118H214.014L212.019 223.85C211.973 223.973 211.914 224.106 211.84 224.25C211.767 224.394 211.67 224.531 211.551 224.659C211.434 224.791 211.289 224.897 211.114 224.976C210.939 225.059 210.728 225.1 210.48 225.1C210.382 225.1 210.287 225.091 210.195 225.073C210.106 225.058 210.021 225.041 209.942 225.022L209.937 224.177C209.968 224.18 210.005 224.183 210.048 224.186C210.093 224.189 210.13 224.19 210.158 224.19C210.342 224.19 210.495 224.167 210.617 224.121C210.74 224.079 210.84 224.008 210.916 223.91C210.996 223.812 211.063 223.68 211.119 223.515L211.477 222.549ZM210.714 218.118L211.895 221.842L212.093 223.009L211.325 223.207L209.519 218.118H210.714ZM217.439 221.745C217.439 221.635 217.411 221.535 217.356 221.446C217.301 221.354 217.195 221.272 217.039 221.198C216.886 221.124 216.659 221.057 216.359 220.996C216.095 220.938 215.853 220.869 215.632 220.789C215.415 220.706 215.228 220.607 215.072 220.49C214.915 220.374 214.794 220.236 214.708 220.076C214.623 219.917 214.58 219.733 214.58 219.525C214.58 219.323 214.624 219.131 214.713 218.95C214.802 218.77 214.929 218.61 215.095 218.472C215.26 218.334 215.461 218.226 215.697 218.146C215.936 218.066 216.202 218.026 216.496 218.026C216.913 218.026 217.27 218.097 217.567 218.238C217.868 218.376 218.098 218.564 218.257 218.803C218.416 219.039 218.496 219.306 218.496 219.603H217.388C217.388 219.471 217.354 219.349 217.287 219.235C217.223 219.119 217.125 219.025 216.993 218.955C216.861 218.881 216.696 218.845 216.496 218.845C216.306 218.845 216.149 218.875 216.023 218.937C215.9 218.995 215.809 219.071 215.747 219.166C215.689 219.261 215.66 219.366 215.66 219.479C215.66 219.562 215.675 219.637 215.706 219.704C215.74 219.768 215.795 219.828 215.871 219.883C215.948 219.936 216.052 219.985 216.184 220.031C216.319 220.076 216.487 220.121 216.69 220.164C217.07 220.243 217.396 220.346 217.669 220.472C217.944 220.594 218.156 220.754 218.303 220.95C218.45 221.143 218.524 221.388 218.524 221.685C218.524 221.906 218.476 222.108 218.381 222.292C218.289 222.473 218.154 222.631 217.977 222.765C217.799 222.897 217.586 223 217.338 223.073C217.092 223.147 216.817 223.184 216.51 223.184C216.06 223.184 215.678 223.104 215.366 222.945C215.053 222.782 214.816 222.575 214.653 222.324C214.494 222.07 214.414 221.806 214.414 221.534H215.485C215.497 221.739 215.554 221.903 215.655 222.025C215.759 222.145 215.888 222.232 216.041 222.287C216.198 222.339 216.359 222.366 216.524 222.366C216.723 222.366 216.89 222.339 217.025 222.287C217.16 222.232 217.263 222.159 217.333 222.067C217.404 221.972 217.439 221.865 217.439 221.745Z" fill="#333333"/>
<g filter="url(#filter1_d_17414_9947)">
<ellipse cx="373.31" cy="160.589" rx="7.24131" ry="7.24133" fill="white"/>
</g>
<path fill-rule="evenodd" clip-rule="evenodd" d="M376.212 163.892L370.63 158.21L371.137 157.693L376.719 163.376L376.212 163.892Z" fill="#999999"/>
<path fill-rule="evenodd" clip-rule="evenodd" d="M376.503 158.319L370.921 164.001L370.413 163.484L375.995 157.802L376.503 158.319Z" fill="#999999"/>
<rect x="173.682" y="284.707" width="200" height="77.7141" rx="6.29922" fill="white"/>
<rect x="173.682" y="284.707" width="200" height="77.7141" rx="6.29922" stroke="#E0E0E0" stroke-width="0.787403"/>
<rect x="185.268" y="295.568" width="18.8274" height="18.8275" rx="4.34479" fill="#1BB644"/>
<path d="M200.076 304.356C200.075 304.494 200.025 304.618 199.935 304.706C199.853 304.785 199.744 304.827 199.627 304.825C199.376 304.819 199.199 304.626 199.198 304.356C199.198 304.178 199.198 303.999 199.198 303.821V303.678C199.198 303.461 199.198 303.245 199.197 303.029C199.194 302.134 198.603 301.421 197.728 301.255C197.629 301.236 197.518 301.228 197.389 301.228C195.533 301.226 193.629 301.226 191.57 301.227C190.553 301.227 189.779 301.989 189.771 302.998C189.761 304.156 189.761 305.334 189.771 306.5C189.779 307.509 190.552 308.271 191.569 308.273C192.241 308.274 192.913 308.274 193.584 308.274H193.985C194.398 308.274 194.812 308.273 195.226 308.274C195.299 308.274 195.378 308.277 195.454 308.3C195.633 308.356 195.758 308.535 195.751 308.725C195.743 308.916 195.612 309.083 195.432 309.131C195.377 309.146 195.315 309.153 195.242 309.153L194.534 309.154C194.026 309.154 193.509 309.155 192.99 309.155C192.518 309.155 192.044 309.154 191.573 309.153C190.952 309.151 190.374 308.955 189.901 308.586C189.428 308.216 189.104 307.707 188.965 307.113C188.919 306.919 188.895 306.701 188.894 306.464C188.888 305.426 188.888 304.335 188.892 303.032C188.896 301.658 189.848 300.562 191.205 300.369C191.337 300.35 191.473 300.35 191.594 300.349H191.6C192.22 300.348 192.841 300.348 193.461 300.348H194.48C194.779 300.348 195.078 300.348 195.377 300.348C196.027 300.348 196.721 300.347 197.396 300.349C198.702 300.353 199.757 301.207 200.022 302.475C200.054 302.629 200.071 302.795 200.074 302.967C200.081 303.447 200.079 303.939 200.076 304.356Z" fill="white"/>
<path d="M198.181 304.926H198.171C197.549 304.926 196.966 305.165 196.529 305.599C196.093 306.033 195.851 306.613 195.85 307.233C195.846 308.508 196.881 309.55 198.156 309.554H198.164C198.778 309.554 199.357 309.315 199.793 308.881C200.231 308.445 200.473 307.864 200.475 307.246C200.478 305.972 199.449 304.931 198.181 304.926ZM199.174 308.253C198.902 308.526 198.543 308.676 198.164 308.676H198.157C197.368 308.672 196.727 308.027 196.729 307.237C196.73 306.448 197.373 305.807 198.162 305.807C198.951 305.807 199.594 306.448 199.598 307.237C199.599 307.618 199.449 307.979 199.174 308.253Z" fill="white"/>
<path d="M198.135 303.509C197.915 303.601 197.69 303.69 197.472 303.777L197.453 303.784C197.374 303.815 197.295 303.847 197.216 303.878C197.03 303.953 196.843 304.028 196.657 304.103L196.613 304.121C196.103 304.325 195.576 304.536 195.055 304.739C194.931 304.787 194.803 304.818 194.678 304.847L194.669 304.849C194.618 304.861 194.565 304.873 194.515 304.887L194.492 304.893L194.469 304.888C194.417 304.875 194.366 304.865 194.317 304.855L194.304 304.852C194.19 304.829 194.082 304.807 193.977 304.765C193.027 304.391 192.063 304.004 191.13 303.629L190.843 303.514C190.617 303.423 190.504 303.213 190.563 302.991C190.597 302.865 190.675 302.766 190.783 302.711C190.898 302.652 191.036 302.649 191.172 302.701C191.401 302.789 191.633 302.882 191.85 302.97L191.908 302.993C191.966 303.016 192.024 303.04 192.081 303.063L192.604 303.271C193.133 303.482 193.697 303.707 194.251 303.931C194.408 303.995 194.55 303.996 194.7 303.936C195.681 303.542 196.701 303.134 197.734 302.725C197.844 302.681 197.943 302.662 198.028 302.668C198.222 302.681 198.383 302.835 198.41 303.035C198.439 303.246 198.334 303.427 198.135 303.509Z" fill="white"/>
<path d="M199.075 307.262C198.913 307.397 198.746 307.531 198.585 307.66L198.48 307.744C198.437 307.779 198.394 307.814 198.35 307.849C198.338 307.859 198.326 307.869 198.314 307.879L198.292 307.896C198.247 307.934 198.2 307.973 198.149 308.008C198.066 308.068 197.973 308.1 197.88 308.1C197.754 308.1 197.637 308.043 197.55 307.939C197.414 307.778 197.286 307.615 197.17 307.454C197.032 307.262 197.07 306.998 197.256 306.853C197.437 306.712 197.702 306.74 197.859 306.916C197.893 306.955 197.924 306.994 197.957 307.035C197.989 307.009 198.021 306.983 198.053 306.957L198.056 306.955C198.205 306.833 198.346 306.719 198.494 306.606C198.573 306.546 198.663 306.504 198.747 306.489C198.932 306.455 199.118 306.559 199.199 306.74C199.282 306.93 199.235 307.13 199.075 307.262Z" fill="white"/>
<path d="M214.413 306.126C214.413 305.978 214.389 305.846 214.343 305.73C214.3 305.615 214.223 305.509 214.111 305.413C213.998 305.318 213.84 305.225 213.635 305.136C213.434 305.044 213.177 304.95 212.863 304.854C212.52 304.748 212.203 304.631 211.913 304.502C211.626 304.37 211.375 304.219 211.16 304.047C210.946 303.872 210.779 303.673 210.66 303.448C210.542 303.22 210.482 302.958 210.482 302.661C210.482 302.367 210.543 302.1 210.665 301.859C210.791 301.618 210.967 301.41 211.195 301.235C211.426 301.057 211.698 300.92 212.012 300.825C212.325 300.726 212.672 300.676 213.051 300.676C213.586 300.676 214.046 300.775 214.432 300.973C214.822 301.171 215.12 301.437 215.328 301.77C215.54 302.103 215.645 302.471 215.645 302.874H214.413C214.413 302.636 214.361 302.427 214.259 302.245C214.16 302.06 214.008 301.915 213.804 301.81C213.602 301.704 213.347 301.651 213.036 301.651C212.743 301.651 212.499 301.696 212.304 301.785C212.109 301.874 211.964 301.994 211.868 302.146C211.773 302.298 211.725 302.47 211.725 302.661C211.725 302.796 211.756 302.92 211.819 303.032C211.881 303.141 211.977 303.244 212.106 303.339C212.235 303.432 212.396 303.519 212.591 303.602C212.786 303.684 213.015 303.763 213.279 303.839C213.678 303.958 214.026 304.09 214.323 304.235C214.62 304.377 214.868 304.539 215.066 304.72C215.264 304.902 215.413 305.108 215.512 305.339C215.611 305.567 215.66 305.826 215.66 306.116C215.66 306.42 215.599 306.694 215.477 306.938C215.355 307.179 215.18 307.385 214.952 307.557C214.728 307.725 214.457 307.855 214.14 307.948C213.827 308.037 213.477 308.081 213.091 308.081C212.744 308.081 212.403 308.035 212.066 307.943C211.733 307.85 211.429 307.71 211.155 307.522C210.882 307.331 210.664 307.093 210.502 306.809C210.34 306.522 210.259 306.187 210.259 305.804H211.502C211.502 306.039 211.542 306.238 211.621 306.403C211.703 306.568 211.817 306.704 211.962 306.809C212.107 306.912 212.276 306.987 212.467 307.037C212.662 307.086 212.87 307.111 213.091 307.111C213.381 307.111 213.624 307.07 213.819 306.987C214.017 306.905 214.165 306.789 214.264 306.641C214.363 306.492 214.413 306.321 214.413 306.126ZM218.9 308.081C218.504 308.081 218.146 308.017 217.826 307.888C217.509 307.756 217.238 307.573 217.014 307.339C216.793 307.105 216.623 306.829 216.504 306.512C216.385 306.195 216.326 305.854 216.326 305.488V305.29C216.326 304.87 216.387 304.491 216.509 304.151C216.631 303.811 216.801 303.521 217.019 303.28C217.237 303.036 217.494 302.849 217.791 302.72C218.088 302.592 218.41 302.527 218.756 302.527C219.139 302.527 219.474 302.592 219.761 302.72C220.048 302.849 220.286 303.031 220.474 303.265C220.666 303.496 220.807 303.772 220.9 304.092C220.996 304.412 221.043 304.765 221.043 305.151V305.661H216.905V304.804H219.865V304.71C219.859 304.496 219.816 304.295 219.737 304.106C219.661 303.918 219.543 303.767 219.385 303.651C219.227 303.536 219.015 303.478 218.751 303.478C218.553 303.478 218.377 303.521 218.222 303.607C218.07 303.689 217.943 303.809 217.841 303.968C217.738 304.126 217.659 304.318 217.603 304.542C217.55 304.763 217.524 305.012 217.524 305.29V305.488C217.524 305.722 217.555 305.94 217.618 306.141C217.684 306.339 217.78 306.512 217.905 306.661C218.03 306.809 218.182 306.926 218.36 307.012C218.539 307.095 218.742 307.136 218.969 307.136C219.256 307.136 219.512 307.078 219.737 306.963C219.961 306.847 220.156 306.684 220.321 306.473L220.949 307.082C220.834 307.25 220.684 307.412 220.499 307.567C220.314 307.718 220.088 307.842 219.821 307.938C219.557 308.034 219.25 308.081 218.9 308.081ZM223.056 303.77V307.982H221.863V302.626H222.986L223.056 303.77ZM222.843 305.106L222.457 305.101C222.46 304.722 222.513 304.374 222.615 304.057C222.721 303.74 222.866 303.468 223.051 303.24C223.239 303.013 223.463 302.838 223.724 302.715C223.985 302.59 224.275 302.527 224.595 302.527C224.853 302.527 225.085 302.564 225.293 302.636C225.504 302.706 225.684 302.819 225.833 302.978C225.985 303.136 226.1 303.343 226.179 303.597C226.258 303.847 226.298 304.156 226.298 304.522V307.982H225.1V304.517C225.1 304.26 225.062 304.057 224.986 303.908C224.914 303.757 224.806 303.649 224.664 303.587C224.526 303.521 224.353 303.488 224.145 303.488C223.94 303.488 223.757 303.531 223.595 303.616C223.434 303.702 223.297 303.819 223.184 303.968C223.075 304.116 222.991 304.288 222.932 304.483C222.873 304.677 222.843 304.885 222.843 305.106ZM230.681 306.874V300.379H231.879V307.982H230.795L230.681 306.874ZM227.197 305.364V305.26C227.197 304.854 227.244 304.484 227.34 304.151C227.436 303.814 227.574 303.526 227.756 303.285C227.937 303.041 228.159 302.854 228.419 302.725C228.68 302.593 228.974 302.527 229.3 302.527C229.624 302.527 229.908 302.59 230.152 302.715C230.396 302.841 230.604 303.021 230.776 303.255C230.947 303.486 231.084 303.763 231.186 304.087C231.289 304.407 231.361 304.763 231.404 305.156V305.488C231.361 305.87 231.289 306.22 231.186 306.537C231.084 306.854 230.947 307.128 230.776 307.359C230.604 307.59 230.394 307.768 230.147 307.893C229.903 308.019 229.617 308.081 229.29 308.081C228.967 308.081 228.675 308.014 228.414 307.878C228.157 307.743 227.937 307.553 227.756 307.309C227.574 307.065 227.436 306.778 227.34 306.448C227.244 306.115 227.197 305.753 227.197 305.364ZM228.39 305.26V305.364C228.39 305.608 228.411 305.836 228.454 306.047C228.5 306.258 228.571 306.445 228.667 306.606C228.762 306.765 228.886 306.89 229.038 306.982C229.193 307.072 229.378 307.116 229.592 307.116C229.863 307.116 230.086 307.057 230.261 306.938C230.436 306.819 230.573 306.659 230.672 306.458C230.774 306.253 230.843 306.025 230.879 305.775V304.879C230.86 304.684 230.818 304.502 230.756 304.334C230.696 304.166 230.615 304.019 230.513 303.894C230.411 303.765 230.284 303.666 230.132 303.597C229.983 303.524 229.807 303.488 229.602 303.488C229.385 303.488 229.2 303.534 229.048 303.626C228.896 303.719 228.771 303.846 228.672 304.007C228.576 304.169 228.505 304.357 228.459 304.572C228.413 304.786 228.39 305.016 228.39 305.26ZM237.81 308.081C237.414 308.081 237.056 308.017 236.736 307.888C236.419 307.756 236.148 307.573 235.924 307.339C235.703 307.105 235.533 306.829 235.414 306.512C235.295 306.195 235.236 305.854 235.236 305.488V305.29C235.236 304.87 235.297 304.491 235.419 304.151C235.541 303.811 235.711 303.521 235.929 303.28C236.147 303.036 236.404 302.849 236.701 302.72C236.998 302.592 237.32 302.527 237.666 302.527C238.049 302.527 238.384 302.592 238.671 302.72C238.958 302.849 239.196 303.031 239.384 303.265C239.575 303.496 239.717 303.772 239.81 304.092C239.905 304.412 239.953 304.765 239.953 305.151V305.661H235.815V304.804H238.775V304.71C238.768 304.496 238.726 304.295 238.646 304.106C238.57 303.918 238.453 303.767 238.295 303.651C238.137 303.536 237.925 303.478 237.661 303.478C237.463 303.478 237.287 303.521 237.132 303.607C236.98 303.689 236.853 303.809 236.75 303.968C236.648 304.126 236.569 304.318 236.513 304.542C236.46 304.763 236.434 305.012 236.434 305.29V305.488C236.434 305.722 236.465 305.94 236.528 306.141C236.594 306.339 236.689 306.512 236.815 306.661C236.94 306.809 237.092 306.926 237.27 307.012C237.448 307.095 237.651 307.136 237.879 307.136C238.166 307.136 238.422 307.078 238.646 306.963C238.871 306.847 239.065 306.684 239.231 306.473L239.859 307.082C239.744 307.25 239.594 307.412 239.409 307.567C239.224 307.718 238.998 307.842 238.731 307.938C238.467 308.034 238.16 308.081 237.81 308.081ZM241.975 303.715V307.982H240.782V302.626H241.906L241.975 303.715ZM241.782 305.106L241.376 305.101C241.376 304.732 241.423 304.39 241.515 304.077C241.607 303.763 241.743 303.491 241.921 303.26C242.099 303.026 242.32 302.846 242.584 302.72C242.852 302.592 243.16 302.527 243.51 302.527C243.754 302.527 243.977 302.564 244.178 302.636C244.383 302.706 244.559 302.816 244.708 302.968C244.86 303.12 244.975 303.314 245.054 303.552C245.137 303.79 245.178 304.077 245.178 304.413V307.982H243.985V304.517C243.985 304.257 243.946 304.052 243.866 303.904C243.79 303.755 243.68 303.649 243.535 303.587C243.393 303.521 243.223 303.488 243.025 303.488C242.8 303.488 242.609 303.531 242.451 303.616C242.296 303.702 242.168 303.819 242.069 303.968C241.97 304.116 241.898 304.288 241.852 304.483C241.805 304.677 241.782 304.885 241.782 305.106ZM245.104 304.79L244.545 304.913C244.545 304.59 244.589 304.285 244.678 303.998C244.771 303.707 244.904 303.453 245.079 303.235C245.257 303.014 245.477 302.841 245.738 302.715C245.998 302.59 246.297 302.527 246.634 302.527C246.907 302.527 247.152 302.565 247.366 302.641C247.584 302.714 247.769 302.829 247.921 302.988C248.072 303.146 248.188 303.352 248.267 303.607C248.346 303.857 248.386 304.161 248.386 304.517V307.982H247.188V304.512C247.188 304.242 247.148 304.032 247.069 303.884C246.993 303.735 246.884 303.633 246.742 303.577C246.601 303.517 246.431 303.488 246.233 303.488C246.048 303.488 245.884 303.522 245.742 303.592C245.604 303.658 245.487 303.752 245.391 303.874C245.295 303.993 245.223 304.13 245.173 304.285C245.127 304.44 245.104 304.608 245.104 304.79ZM252.532 306.908V304.354C252.532 304.163 252.497 303.998 252.428 303.859C252.358 303.72 252.253 303.613 252.111 303.537C251.972 303.461 251.797 303.423 251.586 303.423C251.391 303.423 251.223 303.456 251.081 303.522C250.939 303.588 250.829 303.677 250.75 303.79C250.67 303.902 250.631 304.029 250.631 304.171H249.443C249.443 303.96 249.494 303.755 249.596 303.557C249.699 303.359 249.847 303.182 250.042 303.027C250.236 302.872 250.469 302.75 250.74 302.661C251.01 302.572 251.314 302.527 251.651 302.527C252.053 302.527 252.41 302.595 252.72 302.73C253.033 302.866 253.279 303.07 253.457 303.344C253.639 303.615 253.73 303.955 253.73 304.364V306.745C253.73 306.989 253.746 307.209 253.779 307.403C253.815 307.595 253.867 307.761 253.933 307.903V307.982H252.71C252.654 307.854 252.609 307.69 252.576 307.492C252.547 307.291 252.532 307.096 252.532 306.908ZM252.705 304.725L252.715 305.463H251.858C251.637 305.463 251.443 305.484 251.274 305.527C251.106 305.567 250.966 305.626 250.854 305.705C250.741 305.785 250.657 305.88 250.601 305.992C250.545 306.105 250.517 306.232 250.517 306.374C250.517 306.516 250.55 306.646 250.616 306.765C250.682 306.88 250.778 306.971 250.903 307.037C251.032 307.103 251.187 307.136 251.368 307.136C251.613 307.136 251.825 307.086 252.007 306.987C252.192 306.885 252.337 306.761 252.443 306.616C252.548 306.468 252.604 306.327 252.611 306.195L252.997 306.725C252.957 306.86 252.89 307.006 252.794 307.161C252.698 307.316 252.573 307.464 252.418 307.606C252.266 307.745 252.083 307.859 251.868 307.948C251.657 308.037 251.413 308.081 251.136 308.081C250.786 308.081 250.474 308.012 250.2 307.874C249.926 307.732 249.712 307.542 249.557 307.304C249.402 307.063 249.324 306.791 249.324 306.487C249.324 306.204 249.377 305.953 249.482 305.735C249.591 305.514 249.75 305.329 249.958 305.181C250.169 305.032 250.426 304.92 250.73 304.844C251.033 304.765 251.38 304.725 251.769 304.725H252.705ZM256.153 302.626V307.982H254.955V302.626H256.153ZM254.876 301.221C254.876 301.039 254.935 300.889 255.054 300.77C255.176 300.648 255.344 300.587 255.559 300.587C255.77 300.587 255.937 300.648 256.059 300.77C256.181 300.889 256.242 301.039 256.242 301.221C256.242 301.399 256.181 301.547 256.059 301.666C255.937 301.785 255.77 301.844 255.559 301.844C255.344 301.844 255.176 301.785 255.054 301.666C254.935 301.547 254.876 301.399 254.876 301.221ZM258.635 300.379V307.982H257.437V300.379H258.635Z" fill="#1BB644"/>
<path d="M190.296 330.915V331.637H186.752V330.915H190.296ZM186.932 324.944V331.637H186.044V324.944H186.932ZM189.827 327.822V328.543H186.752V327.822H189.827ZM190.25 324.944V325.67H186.752V324.944H190.25ZM192.112 327.652V331.637H191.257V326.663H192.066L192.112 327.652ZM191.937 328.962L191.542 328.948C191.545 328.608 191.589 328.294 191.675 328.005C191.761 327.714 191.888 327.462 192.057 327.247C192.225 327.033 192.435 326.867 192.686 326.751C192.938 326.631 193.229 326.571 193.56 326.571C193.793 326.571 194.007 326.605 194.203 326.672C194.399 326.737 194.569 326.839 194.713 326.98C194.857 327.121 194.969 327.302 195.049 327.523C195.129 327.743 195.169 328.01 195.169 328.323V331.637H194.318V328.364C194.318 328.104 194.274 327.895 194.185 327.739C194.099 327.583 193.976 327.469 193.817 327.399C193.658 327.325 193.471 327.288 193.256 327.288C193.005 327.288 192.795 327.333 192.627 327.422C192.458 327.511 192.323 327.633 192.222 327.789C192.121 327.946 192.047 328.125 192.002 328.327C191.959 328.526 191.937 328.738 191.937 328.962ZM195.159 328.493L194.589 328.667C194.592 328.395 194.637 328.133 194.723 327.881C194.812 327.63 194.939 327.406 195.104 327.21C195.273 327.014 195.48 326.859 195.725 326.746C195.97 326.63 196.25 326.571 196.566 326.571C196.832 326.571 197.068 326.607 197.274 326.677C197.482 326.748 197.657 326.856 197.798 327.003C197.942 327.147 198.051 327.333 198.124 327.56C198.198 327.786 198.234 328.056 198.234 328.369V331.637H197.379V328.359C197.379 328.081 197.335 327.864 197.246 327.711C197.16 327.555 197.038 327.446 196.878 327.385C196.722 327.321 196.535 327.288 196.318 327.288C196.131 327.288 195.965 327.321 195.821 327.385C195.677 327.449 195.556 327.538 195.458 327.652C195.36 327.762 195.285 327.889 195.233 328.033C195.184 328.177 195.159 328.33 195.159 328.493ZM202.454 330.786V328.226C202.454 328.03 202.414 327.86 202.335 327.716C202.258 327.569 202.141 327.455 201.985 327.376C201.829 327.296 201.636 327.256 201.406 327.256C201.192 327.256 201.003 327.293 200.841 327.367C200.681 327.44 200.556 327.537 200.464 327.656C200.375 327.776 200.33 327.904 200.33 328.042H199.48C199.48 327.864 199.526 327.688 199.618 327.514C199.71 327.339 199.842 327.181 200.013 327.04C200.188 326.896 200.396 326.783 200.638 326.7C200.884 326.614 201.156 326.571 201.457 326.571C201.818 326.571 202.137 326.633 202.413 326.755C202.692 326.878 202.909 327.063 203.065 327.311C203.225 327.557 203.304 327.864 203.304 328.235V330.552C203.304 330.717 203.318 330.894 203.346 331.081C203.376 331.267 203.421 331.428 203.479 331.563V331.637H202.592C202.549 331.539 202.515 331.408 202.491 331.246C202.466 331.081 202.454 330.927 202.454 330.786ZM202.601 328.621L202.61 329.219H201.751C201.509 329.219 201.293 329.239 201.103 329.279C200.913 329.315 200.753 329.372 200.625 329.449C200.496 329.525 200.398 329.622 200.33 329.738C200.263 329.852 200.229 329.985 200.229 330.138C200.229 330.295 200.265 330.437 200.335 330.566C200.406 330.694 200.511 330.797 200.652 330.874C200.796 330.947 200.972 330.984 201.181 330.984C201.441 330.984 201.671 330.929 201.87 330.819C202.069 330.708 202.227 330.573 202.344 330.414C202.463 330.255 202.528 330.1 202.537 329.95L202.9 330.359C202.878 330.488 202.82 330.63 202.725 330.786C202.63 330.943 202.503 331.093 202.344 331.237C202.187 331.378 202.001 331.496 201.783 331.591C201.568 331.683 201.326 331.729 201.057 331.729C200.72 331.729 200.424 331.663 200.17 331.531C199.918 331.399 199.722 331.223 199.581 331.002C199.443 330.779 199.374 330.529 199.374 330.253C199.374 329.987 199.426 329.752 199.531 329.55C199.635 329.345 199.785 329.175 199.981 329.04C200.177 328.902 200.413 328.798 200.689 328.727C200.965 328.657 201.273 328.621 201.613 328.621H202.601ZM205.566 326.663V331.637H204.711V326.663H205.566ZM204.647 325.344C204.647 325.206 204.688 325.09 204.771 324.995C204.856 324.9 204.982 324.852 205.148 324.852C205.31 324.852 205.434 324.9 205.52 324.995C205.609 325.09 205.653 325.206 205.653 325.344C205.653 325.476 205.609 325.589 205.52 325.684C205.434 325.776 205.31 325.822 205.148 325.822C204.982 325.822 204.856 325.776 204.771 325.684C204.688 325.589 204.647 325.476 204.647 325.344ZM207.855 324.576V331.637H207V324.576H207.855ZM212.401 327.652V331.637H211.546V326.663H212.355L212.401 327.652ZM212.226 328.962L211.831 328.948C211.834 328.608 211.878 328.294 211.964 328.005C212.05 327.714 212.177 327.462 212.346 327.247C212.514 327.033 212.724 326.867 212.976 326.751C213.227 326.631 213.518 326.571 213.849 326.571C214.082 326.571 214.296 326.605 214.492 326.672C214.688 326.737 214.859 326.839 215.003 326.98C215.147 327.121 215.258 327.302 215.338 327.523C215.418 327.743 215.458 328.01 215.458 328.323V331.637H214.607V328.364C214.607 328.104 214.563 327.895 214.474 327.739C214.388 327.583 214.266 327.469 214.106 327.399C213.947 327.325 213.76 327.288 213.545 327.288C213.294 327.288 213.084 327.333 212.916 327.422C212.747 327.511 212.612 327.633 212.511 327.789C212.41 327.946 212.337 328.125 212.291 328.327C212.248 328.526 212.226 328.738 212.226 328.962ZM215.448 328.493L214.878 328.667C214.882 328.395 214.926 328.133 215.012 327.881C215.101 327.63 215.228 327.406 215.393 327.21C215.562 327.014 215.769 326.859 216.014 326.746C216.259 326.63 216.539 326.571 216.855 326.571C217.122 326.571 217.358 326.607 217.563 326.677C217.771 326.748 217.946 326.856 218.087 327.003C218.231 327.147 218.34 327.333 218.413 327.56C218.487 327.786 218.524 328.056 218.524 328.369V331.637H217.669V328.359C217.669 328.081 217.624 327.864 217.535 327.711C217.449 327.555 217.327 327.446 217.168 327.385C217.011 327.321 216.824 327.288 216.607 327.288C216.42 327.288 216.254 327.321 216.11 327.385C215.966 327.449 215.845 327.538 215.747 327.652C215.649 327.762 215.574 327.889 215.522 328.033C215.473 328.177 215.448 328.33 215.448 328.493ZM221.874 331.729C221.528 331.729 221.214 331.67 220.932 331.554C220.653 331.434 220.413 331.267 220.21 331.053C220.011 330.838 219.858 330.584 219.751 330.29C219.644 329.996 219.59 329.674 219.59 329.325V329.132C219.59 328.727 219.65 328.367 219.769 328.051C219.889 327.733 220.051 327.463 220.256 327.242C220.462 327.022 220.695 326.855 220.955 326.741C221.216 326.628 221.485 326.571 221.764 326.571C222.12 326.571 222.426 326.633 222.683 326.755C222.944 326.878 223.157 327.049 223.322 327.27C223.488 327.488 223.61 327.745 223.69 328.042C223.77 328.336 223.81 328.658 223.81 329.007V329.389H220.096V328.695H222.959V328.631C222.947 328.41 222.901 328.195 222.821 327.987C222.745 327.779 222.622 327.607 222.454 327.472C222.285 327.337 222.055 327.27 221.764 327.27C221.571 327.27 221.393 327.311 221.231 327.394C221.068 327.474 220.929 327.593 220.813 327.753C220.696 327.912 220.606 328.107 220.541 328.336C220.477 328.566 220.445 328.831 220.445 329.132V329.325C220.445 329.561 220.477 329.783 220.541 329.991C220.609 330.196 220.705 330.377 220.831 330.534C220.96 330.69 221.114 330.812 221.295 330.901C221.479 330.99 221.687 331.035 221.92 331.035C222.221 331.035 222.475 330.973 222.683 330.851C222.892 330.728 223.074 330.564 223.23 330.359L223.745 330.768C223.638 330.93 223.502 331.085 223.336 331.232C223.171 331.379 222.967 331.499 222.725 331.591C222.486 331.683 222.202 331.729 221.874 331.729ZM227.698 330.318C227.698 330.195 227.671 330.082 227.615 329.977C227.563 329.87 227.455 329.774 227.289 329.688C227.127 329.599 226.882 329.522 226.554 329.458C226.278 329.4 226.028 329.331 225.804 329.251C225.584 329.171 225.395 329.075 225.239 328.962C225.086 328.848 224.968 328.715 224.885 328.562C224.802 328.408 224.761 328.229 224.761 328.024C224.761 327.828 224.804 327.642 224.89 327.468C224.979 327.293 225.103 327.138 225.262 327.003C225.424 326.869 225.619 326.763 225.846 326.686C226.073 326.61 226.325 326.571 226.604 326.571C227.003 326.571 227.343 326.642 227.625 326.783C227.907 326.924 228.123 327.112 228.273 327.348C228.423 327.581 228.498 327.84 228.498 328.125H227.648C227.648 327.987 227.606 327.854 227.524 327.725C227.444 327.593 227.326 327.485 227.17 327.399C227.016 327.313 226.828 327.27 226.604 327.27C226.368 327.27 226.177 327.307 226.03 327.38C225.886 327.451 225.78 327.541 225.713 327.652C225.648 327.762 225.616 327.878 225.616 328.001C225.616 328.093 225.631 328.176 225.662 328.249C225.696 328.32 225.754 328.385 225.837 328.447C225.919 328.505 226.036 328.56 226.186 328.612C226.336 328.664 226.528 328.716 226.761 328.768C227.168 328.86 227.504 328.971 227.767 329.099C228.031 329.228 228.227 329.386 228.356 329.573C228.484 329.76 228.549 329.987 228.549 330.253C228.549 330.471 228.503 330.67 228.411 330.851C228.322 331.032 228.192 331.188 228.02 331.32C227.851 331.448 227.649 331.549 227.413 331.623C227.18 331.693 226.918 331.729 226.627 331.729C226.189 331.729 225.818 331.651 225.515 331.494C225.212 331.338 224.982 331.136 224.825 330.887C224.669 330.639 224.591 330.377 224.591 330.101H225.446C225.458 330.334 225.526 330.52 225.648 330.658C225.771 330.792 225.921 330.889 226.099 330.947C226.276 331.002 226.453 331.03 226.627 331.03C226.86 331.03 227.055 330.999 227.211 330.938C227.37 330.877 227.491 330.792 227.574 330.685C227.657 330.578 227.698 330.455 227.698 330.318ZM232.561 330.318C232.561 330.195 232.534 330.082 232.479 329.977C232.427 329.87 232.318 329.774 232.152 329.688C231.99 329.599 231.745 329.522 231.417 329.458C231.141 329.4 230.891 329.331 230.668 329.251C230.447 329.171 230.259 329.075 230.102 328.962C229.949 328.848 229.831 328.715 229.748 328.562C229.666 328.408 229.624 328.229 229.624 328.024C229.624 327.828 229.667 327.642 229.753 327.468C229.842 327.293 229.966 327.138 230.125 327.003C230.288 326.869 230.482 326.763 230.709 326.686C230.936 326.61 231.189 326.571 231.467 326.571C231.866 326.571 232.206 326.642 232.488 326.783C232.77 326.924 232.986 327.112 233.136 327.348C233.286 327.581 233.361 327.84 233.361 328.125H232.511C232.511 327.987 232.469 327.854 232.387 327.725C232.307 327.593 232.189 327.485 232.033 327.399C231.88 327.313 231.691 327.27 231.467 327.27C231.231 327.27 231.04 327.307 230.893 327.38C230.749 327.451 230.643 327.541 230.576 327.652C230.511 327.762 230.479 327.878 230.479 328.001C230.479 328.093 230.494 328.176 230.525 328.249C230.559 328.32 230.617 328.385 230.7 328.447C230.783 328.505 230.899 328.56 231.049 328.612C231.199 328.664 231.391 328.716 231.624 328.768C232.031 328.86 232.367 328.971 232.63 329.099C232.894 329.228 233.09 329.386 233.219 329.573C233.347 329.76 233.412 329.987 233.412 330.253C233.412 330.471 233.366 330.67 233.274 330.851C233.185 331.032 233.055 331.188 232.883 331.32C232.715 331.448 232.512 331.549 232.276 331.623C232.043 331.693 231.781 331.729 231.49 331.729C231.052 331.729 230.681 331.651 230.378 331.494C230.075 331.338 229.845 331.136 229.689 330.887C229.532 330.639 229.454 330.377 229.454 330.101H230.309C230.321 330.334 230.389 330.52 230.511 330.658C230.634 330.792 230.784 330.889 230.962 330.947C231.14 331.002 231.316 331.03 231.49 331.03C231.723 331.03 231.918 330.999 232.074 330.938C232.233 330.877 232.355 330.792 232.437 330.685C232.52 330.578 232.561 330.455 232.561 330.318ZM237.461 330.786V328.226C237.461 328.03 237.421 327.86 237.342 327.716C237.265 327.569 237.149 327.455 236.992 327.376C236.836 327.296 236.643 327.256 236.413 327.256C236.199 327.256 236.01 327.293 235.848 327.367C235.689 327.44 235.563 327.537 235.471 327.656C235.382 327.776 235.338 327.904 235.338 328.042H234.487C234.487 327.864 234.533 327.688 234.625 327.514C234.717 327.339 234.849 327.181 235.021 327.04C235.195 326.896 235.404 326.783 235.646 326.7C235.891 326.614 236.164 326.571 236.464 326.571C236.825 326.571 237.144 326.633 237.42 326.755C237.699 326.878 237.916 327.063 238.073 327.311C238.232 327.557 238.312 327.864 238.312 328.235V330.552C238.312 330.717 238.325 330.894 238.353 331.081C238.384 331.267 238.428 331.428 238.486 331.563V331.637H237.599C237.556 331.539 237.523 331.408 237.498 331.246C237.474 331.081 237.461 330.927 237.461 330.786ZM237.608 328.621L237.618 329.219H236.758C236.516 329.219 236.3 329.239 236.11 329.279C235.92 329.315 235.761 329.372 235.632 329.449C235.503 329.525 235.405 329.622 235.338 329.738C235.27 329.852 235.237 329.985 235.237 330.138C235.237 330.295 235.272 330.437 235.342 330.566C235.413 330.694 235.518 330.797 235.659 330.874C235.803 330.947 235.98 330.984 236.188 330.984C236.449 330.984 236.678 330.929 236.878 330.819C237.077 330.708 237.235 330.573 237.351 330.414C237.47 330.255 237.535 330.1 237.544 329.95L237.907 330.359C237.886 330.488 237.827 330.63 237.732 330.786C237.637 330.943 237.51 331.093 237.351 331.237C237.195 331.378 237.008 331.496 236.79 331.591C236.576 331.683 236.334 331.729 236.064 331.729C235.727 331.729 235.431 331.663 235.177 331.531C234.926 331.399 234.729 331.223 234.588 331.002C234.451 330.779 234.382 330.529 234.382 330.253C234.382 329.987 234.434 329.752 234.538 329.55C234.642 329.345 234.792 329.175 234.988 329.04C235.184 328.902 235.42 328.798 235.696 328.727C235.972 328.657 236.28 328.621 236.62 328.621H237.608ZM242.871 326.663H243.644V331.531C243.644 331.969 243.555 332.343 243.377 332.653C243.199 332.962 242.951 333.196 242.632 333.356C242.317 333.518 241.952 333.599 241.538 333.599C241.367 333.599 241.165 333.572 240.932 333.517C240.702 333.465 240.475 333.374 240.251 333.246C240.031 333.12 239.845 332.95 239.695 332.735L240.141 332.23C240.349 332.481 240.567 332.656 240.794 332.754C241.024 332.852 241.25 332.901 241.474 332.901C241.744 332.901 241.977 332.85 242.173 332.749C242.369 332.648 242.521 332.498 242.628 332.299C242.738 332.103 242.793 331.86 242.793 331.572V327.757L242.871 326.663ZM239.447 329.205V329.109C239.447 328.729 239.491 328.384 239.58 328.074C239.672 327.762 239.802 327.494 239.971 327.27C240.143 327.046 240.349 326.875 240.592 326.755C240.834 326.633 241.106 326.571 241.41 326.571C241.722 326.571 241.995 326.626 242.228 326.737C242.464 326.844 242.663 327.002 242.825 327.21C242.991 327.416 243.121 327.664 243.216 327.955C243.311 328.246 243.377 328.575 243.414 328.943V329.366C243.38 329.731 243.314 330.059 243.216 330.35C243.121 330.641 242.991 330.889 242.825 331.094C242.663 331.3 242.464 331.457 242.228 331.568C241.992 331.675 241.716 331.729 241.401 331.729C241.103 331.729 240.834 331.666 240.592 331.54C240.353 331.415 240.147 331.238 239.976 331.012C239.804 330.785 239.672 330.518 239.58 330.212C239.491 329.902 239.447 329.567 239.447 329.205ZM240.297 329.109V329.205C240.297 329.453 240.322 329.686 240.371 329.904C240.423 330.121 240.501 330.313 240.605 330.478C240.713 330.644 240.849 330.774 241.014 330.869C241.18 330.961 241.378 331.007 241.607 331.007C241.889 331.007 242.122 330.947 242.306 330.828C242.49 330.708 242.635 330.55 242.743 330.354C242.853 330.158 242.939 329.945 243 329.715V328.608C242.966 328.439 242.914 328.277 242.844 328.12C242.776 327.961 242.688 327.82 242.577 327.697C242.47 327.572 242.337 327.472 242.177 327.399C242.018 327.325 241.831 327.288 241.617 327.288C241.384 327.288 241.183 327.337 241.014 327.435C240.849 327.53 240.713 327.662 240.605 327.831C240.501 327.996 240.423 328.189 240.371 328.41C240.322 328.628 240.297 328.86 240.297 329.109ZM246.999 331.729C246.653 331.729 246.339 331.67 246.057 331.554C245.778 331.434 245.537 331.267 245.335 331.053C245.136 330.838 244.983 330.584 244.876 330.29C244.768 329.996 244.715 329.674 244.715 329.325V329.132C244.715 328.727 244.774 328.367 244.894 328.051C245.013 327.733 245.176 327.463 245.381 327.242C245.586 327.022 245.819 326.855 246.08 326.741C246.34 326.628 246.61 326.571 246.889 326.571C247.244 326.571 247.551 326.633 247.808 326.755C248.069 326.878 248.282 327.049 248.447 327.27C248.612 327.488 248.735 327.745 248.815 328.042C248.894 328.336 248.934 328.658 248.934 329.007V329.389H245.22V328.695H248.084V328.631C248.072 328.41 248.026 328.195 247.946 327.987C247.869 327.779 247.747 327.607 247.578 327.472C247.41 327.337 247.18 327.27 246.889 327.27C246.696 327.27 246.518 327.311 246.356 327.394C246.193 327.474 246.054 327.593 245.937 327.753C245.821 327.912 245.73 328.107 245.666 328.336C245.602 328.566 245.57 328.831 245.57 329.132V329.325C245.57 329.561 245.602 329.783 245.666 329.991C245.734 330.196 245.83 330.377 245.956 330.534C246.084 330.69 246.239 330.812 246.42 330.901C246.604 330.99 246.812 331.035 247.045 331.035C247.345 331.035 247.6 330.973 247.808 330.851C248.016 330.728 248.199 330.564 248.355 330.359L248.87 330.768C248.763 330.93 248.626 331.085 248.461 331.232C248.295 331.379 248.092 331.499 247.849 331.591C247.61 331.683 247.327 331.729 246.999 331.729Z" fill="#6E7F9D"/>
<path d="M186.587 340.518L188.14 343.713L189.694 340.518H190.972L188.72 344.747V347.211H187.557V344.747L185.304 340.518H186.587ZM191.078 344.779V344.674C191.078 344.315 191.13 343.983 191.234 343.676C191.338 343.367 191.488 343.099 191.684 342.872C191.884 342.642 192.126 342.464 192.411 342.339C192.699 342.21 193.023 342.146 193.385 342.146C193.75 342.146 194.075 342.21 194.36 342.339C194.648 342.464 194.891 342.642 195.09 342.872C195.29 343.099 195.441 343.367 195.545 343.676C195.65 343.983 195.702 344.315 195.702 344.674V344.779C195.702 345.138 195.65 345.47 195.545 345.777C195.441 346.083 195.29 346.351 195.09 346.581C194.891 346.808 194.649 346.986 194.364 347.114C194.079 347.24 193.756 347.303 193.394 347.303C193.03 347.303 192.703 347.24 192.415 347.114C192.13 346.986 191.888 346.808 191.689 346.581C191.49 346.351 191.338 346.083 191.234 345.777C191.13 345.47 191.078 345.138 191.078 344.779ZM192.185 344.674V344.779C192.185 345.003 192.208 345.215 192.254 345.414C192.3 345.613 192.372 345.788 192.47 345.938C192.568 346.088 192.694 346.206 192.847 346.292C193 346.377 193.183 346.42 193.394 346.42C193.6 346.42 193.777 346.377 193.927 346.292C194.081 346.206 194.206 346.088 194.304 345.938C194.402 345.788 194.474 345.613 194.52 345.414C194.569 345.215 194.594 345.003 194.594 344.779V344.674C194.594 344.453 194.569 344.245 194.52 344.049C194.474 343.849 194.401 343.673 194.3 343.52C194.202 343.367 194.076 343.247 193.923 343.161C193.773 343.073 193.593 343.028 193.385 343.028C193.177 343.028 192.996 343.073 192.843 343.161C192.693 343.247 192.568 343.367 192.47 343.52C192.372 343.673 192.3 343.849 192.254 344.049C192.208 344.245 192.185 344.453 192.185 344.674ZM199.623 346.039V342.237H200.735V347.211H199.687L199.623 346.039ZM199.779 345.005L200.151 344.995C200.151 345.329 200.114 345.637 200.041 345.919C199.967 346.198 199.854 346.442 199.701 346.65C199.547 346.855 199.351 347.016 199.112 347.133C198.873 347.246 198.587 347.303 198.253 347.303C198.011 347.303 197.789 347.268 197.586 347.197C197.384 347.127 197.209 347.018 197.062 346.871C196.918 346.724 196.806 346.532 196.727 346.296C196.647 346.06 196.607 345.778 196.607 345.45V342.237H197.715V345.46C197.715 345.64 197.736 345.792 197.779 345.915C197.822 346.034 197.88 346.131 197.954 346.204C198.028 346.278 198.113 346.33 198.211 346.361C198.309 346.391 198.414 346.407 198.524 346.407C198.84 346.407 199.088 346.345 199.269 346.223C199.452 346.097 199.583 345.929 199.659 345.717C199.739 345.506 199.779 345.268 199.779 345.005ZM205.322 343.249V347.211H204.215V342.237H205.258L205.322 343.249ZM205.143 344.54L204.766 344.536C204.766 344.193 204.809 343.875 204.895 343.584C204.981 343.293 205.106 343.04 205.272 342.826C205.437 342.608 205.643 342.441 205.888 342.325C206.136 342.205 206.422 342.146 206.747 342.146C206.974 342.146 207.181 342.179 207.368 342.247C207.558 342.311 207.722 342.414 207.86 342.555C208.001 342.696 208.108 342.876 208.181 343.097C208.258 343.318 208.296 343.584 208.296 343.897V347.211H207.188V343.993C207.188 343.751 207.152 343.561 207.078 343.423C207.008 343.285 206.905 343.187 206.77 343.129C206.638 343.068 206.481 343.037 206.297 343.037C206.088 343.037 205.911 343.077 205.764 343.157C205.62 343.236 205.502 343.345 205.41 343.483C205.318 343.621 205.25 343.78 205.207 343.961C205.164 344.142 205.143 344.335 205.143 344.54ZM208.227 344.246L207.708 344.361C207.708 344.061 207.749 343.777 207.832 343.511C207.918 343.241 208.042 343.005 208.204 342.803C208.37 342.598 208.574 342.437 208.816 342.32C209.058 342.204 209.335 342.146 209.648 342.146C209.902 342.146 210.129 342.181 210.328 342.251C210.53 342.319 210.702 342.426 210.843 342.573C210.984 342.72 211.091 342.912 211.164 343.148C211.238 343.38 211.275 343.662 211.275 343.993V347.211H210.162V343.989C210.162 343.737 210.126 343.543 210.052 343.405C209.982 343.267 209.881 343.172 209.749 343.12C209.617 343.065 209.459 343.037 209.275 343.037C209.104 343.037 208.952 343.069 208.82 343.134C208.692 343.195 208.583 343.282 208.494 343.396C208.405 343.506 208.338 343.633 208.292 343.777C208.249 343.921 208.227 344.078 208.227 344.246ZM215.219 346.213V343.842C215.219 343.664 215.186 343.511 215.122 343.382C215.058 343.253 214.96 343.154 214.828 343.083C214.699 343.013 214.537 342.978 214.341 342.978C214.16 342.978 214.004 343.008 213.872 343.069C213.74 343.131 213.637 343.213 213.564 343.318C213.49 343.422 213.454 343.54 213.454 343.672H212.35C212.35 343.475 212.398 343.285 212.493 343.102C212.588 342.918 212.726 342.754 212.907 342.61C213.087 342.466 213.303 342.352 213.555 342.27C213.806 342.187 214.088 342.146 214.4 342.146C214.774 342.146 215.105 342.208 215.393 342.334C215.684 342.46 215.913 342.65 216.078 342.904C216.247 343.155 216.331 343.471 216.331 343.851V346.062C216.331 346.289 216.346 346.492 216.377 346.673C216.411 346.851 216.458 347.006 216.519 347.137V347.211H215.384C215.332 347.091 215.291 346.94 215.26 346.756C215.232 346.569 215.219 346.388 215.219 346.213ZM215.38 344.186L215.389 344.871H214.593C214.388 344.871 214.207 344.891 214.051 344.931C213.895 344.968 213.765 345.023 213.66 345.097C213.556 345.17 213.478 345.259 213.426 345.363C213.374 345.467 213.348 345.585 213.348 345.717C213.348 345.849 213.378 345.97 213.44 346.08C213.501 346.187 213.59 346.272 213.706 346.333C213.826 346.394 213.97 346.425 214.138 346.425C214.365 346.425 214.563 346.379 214.731 346.287C214.903 346.192 215.038 346.077 215.136 345.942C215.234 345.804 215.286 345.674 215.292 345.552L215.651 346.043C215.614 346.169 215.551 346.304 215.462 346.448C215.373 346.592 215.257 346.73 215.113 346.862C214.972 346.99 214.802 347.096 214.603 347.179C214.407 347.261 214.18 347.303 213.922 347.303C213.598 347.303 213.308 347.239 213.054 347.11C212.799 346.978 212.6 346.802 212.456 346.581C212.312 346.358 212.24 346.105 212.24 345.823C212.24 345.559 212.289 345.326 212.387 345.124C212.488 344.919 212.635 344.747 212.828 344.609C213.025 344.471 213.264 344.367 213.545 344.297C213.827 344.223 214.149 344.186 214.511 344.186H215.38ZM218.859 346.669L220.21 342.237H221.396L219.401 347.969C219.356 348.092 219.296 348.225 219.222 348.369C219.149 348.513 219.052 348.65 218.933 348.778C218.816 348.91 218.671 349.016 218.496 349.096C218.321 349.178 218.11 349.22 217.862 349.22C217.764 349.22 217.669 349.21 217.577 349.192C217.488 349.177 217.404 349.16 217.324 349.141L217.319 348.296C217.35 348.299 217.387 348.302 217.43 348.305C217.476 348.308 217.512 348.31 217.54 348.31C217.724 348.31 217.877 348.287 218 348.241C218.122 348.198 218.222 348.127 218.298 348.029C218.378 347.931 218.445 347.799 218.501 347.634L218.859 346.669ZM218.096 342.237L219.277 345.961L219.475 347.128L218.707 347.326L216.901 342.237H218.096ZM225.561 340.151V347.211H224.448V340.151H225.561ZM227.96 342.237V347.211H226.848V342.237H227.96ZM226.774 340.932C226.774 340.764 226.829 340.624 226.94 340.514C227.053 340.4 227.209 340.344 227.409 340.344C227.605 340.344 227.76 340.4 227.873 340.514C227.986 340.624 228.043 340.764 228.043 340.932C228.043 341.098 227.986 341.235 227.873 341.346C227.76 341.456 227.605 341.511 227.409 341.511C227.209 341.511 227.053 341.456 226.94 341.346C226.829 341.235 226.774 341.098 226.774 340.932ZM230.291 340.151V347.211H229.178V340.151H230.291ZM233.38 342.237L231.215 344.637L230.029 345.85L229.739 344.913L230.635 343.805L232.042 342.237H233.38ZM232.281 347.211L230.668 344.876L231.366 344.099L233.563 347.211H232.281ZM236.183 347.303C235.816 347.303 235.483 347.243 235.186 347.124C234.892 347.001 234.641 346.831 234.432 346.613C234.227 346.396 234.069 346.14 233.959 345.846C233.848 345.552 233.793 345.234 233.793 344.894V344.71C233.793 344.321 233.85 343.969 233.963 343.653C234.077 343.338 234.235 343.068 234.437 342.844C234.639 342.617 234.878 342.444 235.154 342.325C235.43 342.205 235.728 342.146 236.05 342.146C236.406 342.146 236.717 342.205 236.983 342.325C237.25 342.444 237.47 342.613 237.645 342.83C237.823 343.045 237.955 343.301 238.04 343.598C238.129 343.895 238.174 344.223 238.174 344.582V345.055H234.331V344.26H237.08V344.173C237.074 343.973 237.034 343.787 236.96 343.612C236.89 343.437 236.781 343.296 236.634 343.189C236.487 343.082 236.291 343.028 236.046 343.028C235.862 343.028 235.698 343.068 235.554 343.148C235.413 343.224 235.295 343.336 235.2 343.483C235.105 343.63 235.031 343.808 234.979 344.016C234.93 344.222 234.906 344.453 234.906 344.71V344.894C234.906 345.112 234.935 345.314 234.993 345.501C235.054 345.685 235.143 345.846 235.26 345.984C235.376 346.122 235.517 346.23 235.682 346.31C235.848 346.387 236.036 346.425 236.248 346.425C236.514 346.425 236.752 346.371 236.96 346.264C237.169 346.157 237.349 346.005 237.503 345.809L238.086 346.374C237.979 346.531 237.84 346.681 237.668 346.825C237.497 346.966 237.287 347.081 237.038 347.17C236.793 347.258 236.508 347.303 236.183 347.303ZM243.662 342.237V343.046H240.858V342.237H243.662ZM241.667 341.019H242.775V345.837C242.775 345.99 242.796 346.108 242.839 346.191C242.885 346.27 242.948 346.324 243.028 346.351C243.107 346.379 243.201 346.393 243.308 346.393C243.385 346.393 243.458 346.388 243.529 346.379C243.599 346.37 243.656 346.361 243.699 346.351L243.703 347.197C243.611 347.225 243.504 347.249 243.382 347.271C243.262 347.292 243.124 347.303 242.968 347.303C242.714 347.303 242.488 347.258 242.292 347.17C242.096 347.078 241.943 346.929 241.833 346.724C241.722 346.518 241.667 346.246 241.667 345.906V341.019ZM245.611 340.151V347.211H244.508V340.151H245.611ZM245.418 344.54L245.059 344.536C245.062 344.193 245.11 343.875 245.202 343.584C245.297 343.293 245.429 343.04 245.597 342.826C245.769 342.608 245.974 342.441 246.213 342.325C246.452 342.205 246.717 342.146 247.008 342.146C247.253 342.146 247.474 342.179 247.67 342.247C247.869 342.314 248.041 342.423 248.185 342.573C248.329 342.72 248.438 342.913 248.511 343.152C248.588 343.388 248.626 343.676 248.626 344.016V347.211H247.514V344.007C247.514 343.768 247.479 343.578 247.408 343.437C247.341 343.296 247.241 343.195 247.109 343.134C246.978 343.069 246.817 343.037 246.627 343.037C246.428 343.037 246.251 343.077 246.098 343.157C245.948 343.236 245.822 343.345 245.721 343.483C245.62 343.621 245.544 343.78 245.491 343.961C245.442 344.142 245.418 344.335 245.418 344.54ZM250.934 342.237V347.211H249.821V342.237H250.934ZM249.748 340.932C249.748 340.764 249.803 340.624 249.913 340.514C250.027 340.4 250.183 340.344 250.382 340.344C250.578 340.344 250.733 340.4 250.846 340.514C250.96 340.624 251.016 340.764 251.016 340.932C251.016 341.098 250.96 341.235 250.846 341.346C250.733 341.456 250.578 341.511 250.382 341.511C250.183 341.511 250.027 341.456 249.913 341.346C249.803 341.235 249.748 341.098 249.748 340.932ZM254.937 345.864C254.937 345.754 254.91 345.654 254.855 345.565C254.799 345.473 254.694 345.391 254.537 345.317C254.384 345.244 254.157 345.176 253.857 345.115C253.594 345.057 253.352 344.988 253.131 344.908C252.913 344.825 252.726 344.726 252.57 344.609C252.414 344.493 252.293 344.355 252.207 344.196C252.121 344.036 252.078 343.852 252.078 343.644C252.078 343.442 252.123 343.25 252.212 343.069C252.3 342.889 252.428 342.729 252.593 342.591C252.759 342.454 252.959 342.345 253.195 342.265C253.434 342.185 253.701 342.146 253.995 342.146C254.412 342.146 254.769 342.216 255.066 342.357C255.366 342.495 255.596 342.683 255.756 342.922C255.915 343.158 255.995 343.425 255.995 343.722H254.887C254.887 343.59 254.853 343.468 254.786 343.354C254.721 343.238 254.623 343.145 254.491 343.074C254.36 343.001 254.194 342.964 253.995 342.964C253.805 342.964 253.647 342.994 253.522 343.056C253.399 343.114 253.307 343.19 253.246 343.285C253.188 343.38 253.158 343.485 253.158 343.598C253.158 343.681 253.174 343.756 253.204 343.823C253.238 343.888 253.293 343.947 253.37 344.003C253.447 344.055 253.551 344.104 253.682 344.15C253.817 344.196 253.986 344.24 254.188 344.283C254.568 344.363 254.894 344.465 255.167 344.591C255.443 344.713 255.654 344.873 255.801 345.069C255.949 345.262 256.022 345.507 256.022 345.804C256.022 346.025 255.975 346.227 255.88 346.411C255.788 346.592 255.653 346.75 255.475 346.885C255.297 347.016 255.084 347.119 254.836 347.193C254.591 347.266 254.315 347.303 254.009 347.303C253.558 347.303 253.177 347.223 252.864 347.064C252.552 346.901 252.314 346.695 252.152 346.443C251.992 346.189 251.913 345.925 251.913 345.653H252.984C252.996 345.858 253.053 346.022 253.154 346.145C253.258 346.264 253.387 346.351 253.54 346.407C253.696 346.459 253.857 346.485 254.023 346.485C254.222 346.485 254.389 346.459 254.524 346.407C254.658 346.351 254.761 346.278 254.832 346.186C254.902 346.091 254.937 345.984 254.937 345.864ZM257.038 346.659C257.038 346.488 257.096 346.344 257.213 346.227C257.329 346.108 257.487 346.048 257.686 346.048C257.888 346.048 258.046 346.108 258.159 346.227C258.276 346.344 258.334 346.488 258.334 346.659C258.334 346.831 258.276 346.975 258.159 347.091C258.046 347.208 257.888 347.266 257.686 347.266C257.487 347.266 257.329 347.208 257.213 347.091C257.096 346.975 257.038 346.831 257.038 346.659ZM259.658 346.659C259.658 346.488 259.716 346.344 259.833 346.227C259.949 346.108 260.107 346.048 260.306 346.048C260.508 346.048 260.666 346.108 260.78 346.227C260.896 346.344 260.954 346.488 260.954 346.659C260.954 346.831 260.896 346.975 260.78 347.091C260.666 347.208 260.508 347.266 260.306 347.266C260.107 347.266 259.949 347.208 259.833 347.091C259.716 346.975 259.658 346.831 259.658 346.659ZM262.278 346.659C262.278 346.488 262.336 346.344 262.453 346.227C262.569 346.108 262.727 346.048 262.926 346.048C263.128 346.048 263.286 346.108 263.4 346.227C263.516 346.344 263.574 346.488 263.574 346.659C263.574 346.831 263.516 346.975 263.4 347.091C263.286 347.208 263.128 347.266 262.926 347.266C262.727 347.266 262.569 347.208 262.453 347.091C262.336 346.975 262.278 346.831 262.278 346.659Z" fill="#4D8CFF"/>
<g filter="url(#filter2_d_17414_9947)">
<ellipse cx="373.31" cy="284.706" rx="7.24131" ry="7.24133" fill="white"/>
</g>
<path fill-rule="evenodd" clip-rule="evenodd" d="M376.212 288.009L370.63 282.327L371.137 281.811L376.719 287.493L376.212 288.009Z" fill="#999999"/>
<path fill-rule="evenodd" clip-rule="evenodd" d="M376.503 282.436L370.921 288.118L370.413 287.602L375.995 281.919L376.503 282.436Z" fill="#999999"/>
<path d="M277.303 115.359C277.303 117.347 275.684 118.963 273.682 118.963C271.68 118.963 270.062 117.347 270.062 115.359C270.062 113.372 271.68 111.755 273.682 111.755C275.684 111.755 277.303 113.372 277.303 115.359Z" fill="white" stroke="#95A1AC" stroke-width="1.44826"/>
<path d="M273.682 119.688V155.081" stroke="#95A1AC" stroke-width="0.724132"/>
<path d="M277.303 159.408C277.303 161.396 275.684 163.012 273.682 163.012C271.68 163.012 270.062 161.396 270.062 159.408C270.062 157.42 271.68 155.804 273.682 155.804C275.684 155.804 277.303 157.42 277.303 159.408Z" fill="#1BB644" stroke="white" stroke-width="1.44826"/>
<path d="M277.303 239.478C277.303 241.466 275.684 243.082 273.682 243.082C271.68 243.082 270.062 241.466 270.062 239.478C270.062 237.491 271.68 235.875 273.682 235.875C275.684 235.875 277.303 237.491 277.303 239.478Z" fill="white" stroke="#95A1AC" stroke-width="1.44826"/>
<path d="M273.682 243.807V279.2" stroke="#95A1AC" stroke-width="0.724132"/>
<path d="M277.303 283.527C277.303 285.515 275.684 287.131 273.682 287.131C271.68 287.131 270.062 285.515 270.062 283.527C270.062 281.54 271.68 279.923 273.682 279.923C275.684 279.923 277.303 281.54 277.303 283.527Z" fill="#1BB644" stroke="white" stroke-width="1.44826"/>
<defs>
<filter id="filter0_d_17414_9947" x="360.275" y="43.6543" width="26.0685" height="26.0685" filterUnits="userSpaceOnUse" color-interpolation-filters="sRGB">
<feFlood flood-opacity="0" result="BackgroundImageFix"/>
<feColorMatrix in="SourceAlpha" type="matrix" values="0 0 0 0 0 0 0 0 0 0 0 0 0 0 0 0 0 0 127 0" result="hardAlpha"/>
<feOffset dy="2.89653"/>
<feGaussianBlur stdDeviation="2.89653"/>
<feComposite in2="hardAlpha" operator="out"/>
<feColorMatrix type="matrix" values="0 0 0 0 0 0 0 0 0 0 0 0 0 0 0 0 0 0 0.1 0"/>
<feBlend mode="normal" in2="BackgroundImageFix" result="effect1_dropShadow_17414_9947"/>
<feBlend mode="normal" in="SourceGraphic" in2="effect1_dropShadow_17414_9947" result="shape"/>
</filter>
<filter id="filter1_d_17414_9947" x="360.275" y="150.451" width="26.0685" height="26.0685" filterUnits="userSpaceOnUse" color-interpolation-filters="sRGB">
<feFlood flood-opacity="0" result="BackgroundImageFix"/>
<feColorMatrix in="SourceAlpha" type="matrix" values="0 0 0 0 0 0 0 0 0 0 0 0 0 0 0 0 0 0 127 0" result="hardAlpha"/>
<feOffset dy="2.89653"/>
<feGaussianBlur stdDeviation="2.89653"/>
<feComposite in2="hardAlpha" operator="out"/>
<feColorMatrix type="matrix" values="0 0 0 0 0 0 0 0 0 0 0 0 0 0 0 0 0 0 0.1 0"/>
<feBlend mode="normal" in2="BackgroundImageFix" result="effect1_dropShadow_17414_9947"/>
<feBlend mode="normal" in="SourceGraphic" in2="effect1_dropShadow_17414_9947" result="shape"/>
</filter>
<filter id="filter2_d_17414_9947" x="360.275" y="274.568" width="26.0685" height="26.0685" filterUnits="userSpaceOnUse" color-interpolation-filters="sRGB">
<feFlood flood-opacity="0" result="BackgroundImageFix"/>
<feColorMatrix in="SourceAlpha" type="matrix" values="0 0 0 0 0 0 0 0 0 0 0 0 0 0 0 0 0 0 127 0" result="hardAlpha"/>
<feOffset dy="2.89653"/>
<feGaussianBlur stdDeviation="2.89653"/>
<feComposite in2="hardAlpha" operator="out"/>
<feColorMatrix type="matrix" values="0 0 0 0 0 0 0 0 0 0 0 0 0 0 0 0 0 0 0.1 0"/>
<feBlend mode="normal" in2="BackgroundImageFix" result="effect1_dropShadow_17414_9947"/>
<feBlend mode="normal" in="SourceGraphic" in2="effect1_dropShadow_17414_9947" result="shape"/>
</filter>
</defs>
</svg>
