<svg width="99" height="34" viewBox="0 0 99 34" fill="none" xmlns="http://www.w3.org/2000/svg">
<path d="M17 34C26.3888 34 34 26.3888 34 17C34 7.61116 26.3888 0 17 0C7.61116 0 0 7.61116 0 17C0 26.3888 7.61116 34 17 34Z" fill="white"/>
<path d="M48.4059 11.4719H43.1739V26.1719H39.9459V11.4719H34.7139V8.81987H48.4059V11.4719Z" fill="white"/>
<path d="M49.6304 15.9959C50.0144 15.2599 50.4704 14.6839 50.9984 14.2679C51.5264 13.8439 52.1504 13.6319 52.8704 13.6319C53.4384 13.6319 53.8944 13.7559 54.2384 14.0039L54.0464 16.2239C54.0064 16.3679 53.9464 16.4719 53.8664 16.5359C53.7944 16.5919 53.6944 16.6199 53.5664 16.6199C53.4464 16.6199 53.2664 16.5999 53.0264 16.5599C52.7944 16.5199 52.5664 16.4999 52.3424 16.4999C52.0144 16.4999 51.7224 16.5479 51.4664 16.6439C51.2104 16.7399 50.9784 16.8799 50.7704 17.0639C50.5704 17.2399 50.3904 17.4559 50.2304 17.7119C50.0784 17.9679 49.9344 18.2599 49.7984 18.5879V26.1719H46.8344V13.8599H48.5744C48.8784 13.8599 49.0904 13.9159 49.2104 14.0279C49.3304 14.1319 49.4104 14.3239 49.4504 14.6039L49.6304 15.9959Z" fill="white"/>
<path d="M57.8996 13.8599V26.1719H54.9236V13.8599H57.8996ZM58.3076 10.2719C58.3076 10.5279 58.2556 10.7679 58.1516 10.9919C58.0476 11.2159 57.9076 11.4119 57.7316 11.5799C57.5636 11.7479 57.3636 11.8839 57.1316 11.9879C56.8996 12.0839 56.6516 12.1319 56.3876 12.1319C56.1316 12.1319 55.8876 12.0839 55.6556 11.9879C55.4316 11.8839 55.2356 11.7479 55.0676 11.5799C54.8996 11.4119 54.7636 11.2159 54.6596 10.9919C54.5636 10.7679 54.5156 10.5279 54.5156 10.2719C54.5156 10.0079 54.5636 9.75987 54.6596 9.52787C54.7636 9.29587 54.8996 9.09587 55.0676 8.92787C55.2356 8.75987 55.4316 8.62787 55.6556 8.53187C55.8876 8.42787 56.1316 8.37587 56.3876 8.37587C56.6516 8.37587 56.8996 8.42787 57.1316 8.53187C57.3636 8.62787 57.5636 8.75987 57.7316 8.92787C57.9076 9.09587 58.0476 9.29587 58.1516 9.52787C58.2556 9.75987 58.3076 10.0079 58.3076 10.2719Z" fill="white"/>
<path d="M62.9613 8.33987V26.1719H59.9973V8.33987H62.9613Z" fill="white"/>
<path d="M67.9544 8.33987V26.1719H64.9904V8.33987H67.9544Z" fill="white"/>
<path d="M73.0196 13.8599V26.1719H70.0436V13.8599H73.0196ZM73.4276 10.2719C73.4276 10.5279 73.3756 10.7679 73.2716 10.9919C73.1676 11.2159 73.0276 11.4119 72.8516 11.5799C72.6836 11.7479 72.4836 11.8839 72.2516 11.9879C72.0196 12.0839 71.7716 12.1319 71.5076 12.1319C71.2516 12.1319 71.0076 12.0839 70.7756 11.9879C70.5516 11.8839 70.3556 11.7479 70.1876 11.5799C70.0196 11.4119 69.8836 11.2159 69.7796 10.9919C69.6836 10.7679 69.6356 10.5279 69.6356 10.2719C69.6356 10.0079 69.6836 9.75987 69.7796 9.52787C69.8836 9.29587 70.0196 9.09587 70.1876 8.92787C70.3556 8.75987 70.5516 8.62787 70.7756 8.53187C71.0076 8.42787 71.2516 8.37587 71.5076 8.37587C71.7716 8.37587 72.0196 8.42787 72.2516 8.53187C72.4836 8.62787 72.6836 8.75987 72.8516 8.92787C73.0276 9.09587 73.1676 9.29587 73.2716 9.52787C73.3756 9.75987 73.4276 10.0079 73.4276 10.2719Z" fill="white"/>
<path d="M80.5293 13.6679C81.4413 13.6679 82.2693 13.8159 83.0133 14.1119C83.7653 14.4079 84.4053 14.8279 84.9333 15.3719C85.4693 15.9159 85.8813 16.5799 86.1693 17.3639C86.4573 18.1479 86.6013 19.0239 86.6013 19.9919C86.6013 20.9679 86.4573 21.8479 86.1693 22.6319C85.8813 23.4159 85.4693 24.0839 84.9333 24.6359C84.4053 25.1879 83.7653 25.6119 83.0133 25.9079C82.2693 26.2039 81.4413 26.3519 80.5293 26.3519C79.6093 26.3519 78.7733 26.2039 78.0213 25.9079C77.2693 25.6119 76.6253 25.1879 76.0893 24.6359C75.5613 24.0839 75.1493 23.4159 74.8533 22.6319C74.5653 21.8479 74.4213 20.9679 74.4213 19.9919C74.4213 19.0239 74.5653 18.1479 74.8533 17.3639C75.1493 16.5799 75.5613 15.9159 76.0893 15.3719C76.6253 14.8279 77.2693 14.4079 78.0213 14.1119C78.7733 13.8159 79.6093 13.6679 80.5293 13.6679ZM80.5293 24.0719C81.5533 24.0719 82.3093 23.7279 82.7973 23.0399C83.2933 22.3519 83.5413 21.3439 83.5413 20.0159C83.5413 18.6879 83.2933 17.6759 82.7973 16.9799C82.3093 16.2839 81.5533 15.9359 80.5293 15.9359C79.4893 15.9359 78.7173 16.2879 78.2133 16.9919C77.7173 17.6879 77.4693 18.6959 77.4693 20.0159C77.4693 21.3359 77.7173 22.3439 78.2133 23.0399C78.7173 23.7279 79.4893 24.0719 80.5293 24.0719Z" fill="white"/>
<path d="M90.6746 15.3719C90.9226 15.1239 91.1826 14.8959 91.4546 14.6879C91.7346 14.4719 92.0266 14.2919 92.3306 14.1479C92.6426 13.9959 92.9746 13.8799 93.3266 13.7999C93.6786 13.7119 94.0626 13.6679 94.4786 13.6679C95.1506 13.6679 95.7466 13.7839 96.2666 14.0159C96.7866 14.2399 97.2186 14.5599 97.5626 14.9759C97.9146 15.3839 98.1786 15.8759 98.3546 16.4519C98.5386 17.0199 98.6306 17.6479 98.6306 18.3359V26.1719H95.6666V18.3359C95.6666 17.5839 95.4946 17.0039 95.1506 16.5959C94.8066 16.1799 94.2826 15.9719 93.5786 15.9719C93.0666 15.9719 92.5866 16.0879 92.1386 16.3199C91.6906 16.5519 91.2666 16.8679 90.8666 17.2679V26.1719H87.9026V13.8599H89.7146C90.0986 13.8599 90.3506 14.0399 90.4706 14.3999L90.6746 15.3719Z" fill="white"/>
<path d="M17.1195 19.2434L15.314 14.1374C15.2066 13.869 15.0916 13.5547 14.969 13.1944C14.854 12.834 14.7428 12.443 14.6355 12.0214C14.5281 12.4507 14.4131 12.8494 14.2905 13.2174C14.1755 13.5777 14.0643 13.892 13.957 14.1604L12.163 19.2434H17.1195ZM22.9155 25.5799H20.236C19.937 25.5799 19.6916 25.5109 19.5 25.3729C19.316 25.2272 19.178 25.0432 19.086 24.8209L17.959 21.6354H11.312L10.185 24.8209C10.1083 25.0125 9.97414 25.1889 9.78247 25.3499C9.5908 25.5032 9.3493 25.5799 9.05797 25.5799H6.35547L12.876 8.89337H16.4065L22.9155 25.5799Z" fill="#000923"/>
<path d="M27.2664 13.7234V25.5799H24.0924V13.7234H27.2664ZM27.6459 10.3539C27.6459 10.6222 27.5923 10.8714 27.4849 11.1014C27.3776 11.3314 27.2319 11.5345 27.0479 11.7109C26.8716 11.8872 26.6608 12.0252 26.4154 12.1249C26.1778 12.2245 25.9209 12.2744 25.6449 12.2744C25.3843 12.2744 25.1351 12.2245 24.8974 12.1249C24.6674 12.0252 24.4643 11.8872 24.2879 11.7109C24.1116 11.5345 23.9698 11.3314 23.8624 11.1014C23.7628 10.8714 23.7129 10.6222 23.7129 10.3539C23.7129 10.0855 23.7628 9.83637 23.8624 9.60638C23.9698 9.36871 24.1116 9.16171 24.2879 8.98537C24.4643 8.80904 24.6674 8.67104 24.8974 8.57137C25.1351 8.47171 25.3843 8.42188 25.6449 8.42188C25.9209 8.42188 26.1778 8.47171 26.4154 8.57137C26.6608 8.67104 26.8716 8.80904 27.0479 8.98537C27.2319 9.16171 27.3776 9.36871 27.4849 9.60638C27.5923 9.83637 27.6459 10.0855 27.6459 10.3539Z" fill="#000923"/>
</svg>
